<?xml version="1.0" encoding="UTF-8" standalone="no"?>
<!DOCTYPE svg PUBLIC "-//W3C//DTD SVG 1.1//EN"
 "http://www.w3.org/Graphics/SVG/1.1/DTD/svg11.dtd">
<!-- Generated by graphviz version 2.50.0 (0)
 -->
<!-- Pages: 1 -->
<svg width="325pt" height="1214pt"
 viewBox="0.00 0.00 325.00 1214.00" xmlns="http://www.w3.org/2000/svg" xmlns:xlink="http://www.w3.org/1999/xlink">
<g id="graph0" class="graph" transform="scale(1 1) rotate(0) translate(4 1210)">
<polygon fill="white" stroke="transparent" points="-4,4 -4,-1210 321,-1210 321,4 -4,4"/>
<text text-anchor="start" x="36.5" y="-1164.6" font-family="Arial" font-weight="bold" font-size="48.00">Sequential</text>
<text text-anchor="start" x="23" y="-1143.8" font-family="Arial" font-weight="bold" font-size="14.00">Source: </text>
<text text-anchor="start" x="78" y="-1143.8" font-family="Arial" font-size="14.00"> torch.nn.modules.container v1.12.1</text>
<text text-anchor="start" x="118.5" y="-1129.8" font-family="Arial" font-weight="bold" font-size="14.00">NNViz </text>
<text text-anchor="start" x="161.5" y="-1129.8" font-family="Arial" font-size="14.00">v0.5.0</text>
<text text-anchor="start" x="156.5" y="-1115.8" font-family="Arial" font-size="14.00"> </text>
<g id="clust1" class="cluster">
<title>cluster_1</title>
<path fill="#e7e7e7" stroke="black" d="M91.5,-766C91.5,-766 225.5,-766 225.5,-766 231.5,-766 237.5,-772 237.5,-778 237.5,-778 237.5,-892 237.5,-892 237.5,-898 231.5,-904 225.5,-904 225.5,-904 91.5,-904 91.5,-904 85.5,-904 79.5,-898 79.5,-892 79.5,-892 79.5,-778 79.5,-778 79.5,-772 85.5,-766 91.5,-766"/>
<text text-anchor="start" x="87.5" y="-886.6" font-family="Arial" font-weight="bold" font-size="18.00">1</text>
</g>
<g id="clust2" class="cluster">
<title>cluster_6</title>
<path fill="#e7e7e7" stroke="black" d="M91.5,-80C91.5,-80 225.5,-80 225.5,-80 231.5,-80 237.5,-86 237.5,-92 237.5,-92 237.5,-206 237.5,-206 237.5,-212 231.5,-218 225.5,-218 225.5,-218 91.5,-218 91.5,-218 85.5,-218 79.5,-212 79.5,-206 79.5,-206 79.5,-92 79.5,-92 79.5,-86 85.5,-80 91.5,-80"/>
<text text-anchor="start" x="87.5" y="-200.6" font-family="Arial" font-weight="bold" font-size="18.00">6</text>
</g>
<!-- permute -->
<g id="node1" class="node">
<title>permute</title>
<path fill="#b16342" stroke="#b16342" d="M217,-868C217,-868 100,-868 100,-868 94,-868 88,-862 88,-856 88,-856 88,-786 88,-786 88,-780 94,-774 100,-774 100,-774 217,-774 217,-774 223,-774 229,-780 229,-786 229,-786 229,-856 229,-856 229,-862 223,-868 217,-868"/>
<text text-anchor="start" x="110.5" y="-842.8" font-family="Arial" font-weight="bold" font-size="24.00" fill="white">permute</text>
<text text-anchor="start" x="127.5" y="-826.8" font-family="Arial" font-style="italic" font-size="14.00" fill="white">1.permute</text>
<text text-anchor="start" x="110" y="-812.8" font-family="Arial" font-weight="bold" font-size="14.00" fill="white">args</text>
<text text-anchor="start" x="139" y="-812.8" font-family="Arial" font-size="14.00" fill="white">: [0, 2, 3, 1]</text>
<text text-anchor="start" x="102" y="-784.8" font-family="Arial" font-weight="bold" font-size="14.00" fill="white">src</text>
<text text-anchor="start" x="123" y="-784.8" font-family="Arial" font-size="14.00" fill="white">: torch.permute</text>
</g>
<!-- _2 -->
<g id="node5" class="node">
<title>_2</title>
<path fill="#52406b" stroke="#52406b" d="M305,-738C305,-738 12,-738 12,-738 6,-738 0,-732 0,-726 0,-726 0,-642 0,-642 0,-636 6,-630 12,-630 12,-630 305,-630 305,-630 311,-630 317,-636 317,-642 317,-642 317,-726 317,-726 317,-732 311,-738 305,-738"/>
<text text-anchor="start" x="95" y="-712.8" font-family="Arial" font-weight="bold" font-size="24.00" fill="white">LayerNorm</text>
<text text-anchor="start" x="154.5" y="-696.8" font-family="Arial" font-style="italic" font-size="14.00" fill="white">2</text>
<text text-anchor="start" x="93" y="-668.8" font-family="Arial" font-weight="bold" font-size="14.00" fill="white">params</text>
<text text-anchor="start" x="142" y="-668.8" font-family="Arial" font-size="14.00" fill="white">: 384 (0.13%)</text>
<text text-anchor="start" x="14" y="-640.8" font-family="Arial" font-weight="bold" font-size="14.00" fill="white">src</text>
<text text-anchor="start" x="35" y="-640.8" font-family="Arial" font-size="14.00" fill="white">: torch.nn.modules.normalization.LayerNorm</text>
</g>
<!-- permute&#45;&gt;_2 -->
<g id="edge3" class="edge">
<title>permute&#45;&gt;_2</title>
<path fill="none" stroke="black" stroke-width="2" d="M158.5,-773.92C158.5,-765.68 158.5,-756.97 158.5,-748.35"/>
<polygon fill="black" stroke="black" stroke-width="2" points="162,-748.31 158.5,-738.31 155,-748.31 162,-748.31"/>
</g>
<!-- permute_1 -->
<g id="node2" class="node">
<title>permute_1</title>
<path fill="#b16342" stroke="#b16342" d="M217,-182C217,-182 100,-182 100,-182 94,-182 88,-176 88,-170 88,-170 88,-100 88,-100 88,-94 94,-88 100,-88 100,-88 217,-88 217,-88 223,-88 229,-94 229,-100 229,-100 229,-170 229,-170 229,-176 223,-182 217,-182"/>
<text text-anchor="start" x="110.5" y="-156.8" font-family="Arial" font-weight="bold" font-size="24.00" fill="white">permute</text>
<text text-anchor="start" x="127.5" y="-140.8" font-family="Arial" font-style="italic" font-size="14.00" fill="white">6.permute</text>
<text text-anchor="start" x="110" y="-126.8" font-family="Arial" font-weight="bold" font-size="14.00" fill="white">args</text>
<text text-anchor="start" x="139" y="-126.8" font-family="Arial" font-size="14.00" fill="white">: [0, 3, 1, 2]</text>
<text text-anchor="start" x="102" y="-98.8" font-family="Arial" font-weight="bold" font-size="14.00" fill="white">src</text>
<text text-anchor="start" x="123" y="-98.8" font-family="Arial" font-size="14.00" fill="white">: torch.permute</text>
</g>
<!-- output -->
<g id="node9" class="node">
<title>output</title>
<path fill="#000000" stroke="#000000" d="M201,-52C201,-52 116,-52 116,-52 110,-52 104,-46 104,-40 104,-40 104,-12 104,-12 104,-6 110,0 116,0 116,0 201,0 201,0 207,0 213,-6 213,-12 213,-12 213,-40 213,-40 213,-46 207,-52 201,-52"/>
<text text-anchor="start" x="118" y="-26.8" font-family="Arial" font-weight="bold" font-size="24.00" fill="white">Output</text>
<text text-anchor="start" x="139.5" y="-10.8" font-family="Arial" font-style="italic" font-size="14.00" fill="white">output</text>
</g>
<!-- permute_1&#45;&gt;output -->
<g id="edge8" class="edge">
<title>permute_1&#45;&gt;output</title>
<path fill="none" stroke="black" stroke-width="2" d="M158.5,-87.69C158.5,-79.21 158.5,-70.48 158.5,-62.38"/>
<polygon fill="black" stroke="black" stroke-width="2" points="162,-62.17 158.5,-52.17 155,-62.17 162,-62.17"/>
</g>
<!-- input_1 -->
<g id="node3" class="node">
<title>input_1</title>
<path fill="#000000" stroke="#000000" d="M191,-1108C191,-1108 126,-1108 126,-1108 120,-1108 114,-1102 114,-1096 114,-1096 114,-1068 114,-1068 114,-1062 120,-1056 126,-1056 126,-1056 191,-1056 191,-1056 197,-1056 203,-1062 203,-1068 203,-1068 203,-1096 203,-1096 203,-1102 197,-1108 191,-1108"/>
<text text-anchor="start" x="128" y="-1082.8" font-family="Arial" font-weight="bold" font-size="24.00" fill="white">Input</text>
<text text-anchor="start" x="143.5" y="-1066.8" font-family="Arial" font-style="italic" font-size="14.00" fill="white">input</text>
</g>
<!-- _0 -->
<g id="node4" class="node">
<title>_0</title>
<path fill="#444380" stroke="#444380" d="M268,-1020C268,-1020 49,-1020 49,-1020 43,-1020 37,-1014 37,-1008 37,-1008 37,-924 37,-924 37,-918 43,-912 49,-912 49,-912 268,-912 268,-912 274,-912 280,-918 280,-924 280,-924 280,-1008 280,-1008 280,-1014 274,-1020 268,-1020"/>
<text text-anchor="start" x="113.5" y="-994.8" font-family="Arial" font-weight="bold" font-size="24.00" fill="white">Conv2d</text>
<text text-anchor="start" x="154.5" y="-978.8" font-family="Arial" font-style="italic" font-size="14.00" fill="white">0</text>
<text text-anchor="start" x="86.5" y="-950.8" font-family="Arial" font-weight="bold" font-size="14.00" fill="white">params</text>
<text text-anchor="start" x="135.5" y="-950.8" font-family="Arial" font-size="14.00" fill="white">: 9.60K (3.14%)</text>
<text text-anchor="start" x="51" y="-922.8" font-family="Arial" font-weight="bold" font-size="14.00" fill="white">src</text>
<text text-anchor="start" x="72" y="-922.8" font-family="Arial" font-size="14.00" fill="white">: torch.nn.modules.conv.Conv2d</text>
</g>
<!-- input_1&#45;&gt;_0 -->
<g id="edge1" class="edge">
<title>input_1&#45;&gt;_0</title>
<path fill="none" stroke="black" stroke-width="2" d="M158.5,-1055.98C158.5,-1048.18 158.5,-1039.21 158.5,-1030.02"/>
<polygon fill="black" stroke="black" stroke-width="2" points="162,-1030.01 158.5,-1020.01 155,-1030.01 162,-1030.01"/>
</g>
<!-- _0&#45;&gt;permute -->
<g id="edge2" class="edge">
<title>_0&#45;&gt;permute</title>
<path fill="none" stroke="black" stroke-width="2" d="M158.5,-911.75C158.5,-900.92 158.5,-889.49 158.5,-878.55"/>
<polygon fill="black" stroke="black" stroke-width="2" points="162,-878.24 158.5,-868.24 155,-878.24 162,-878.24"/>
</g>
<!-- _3 -->
<g id="node6" class="node">
<title>_3</title>
<path fill="#555580" stroke="#555580" d="M266,-594C266,-594 51,-594 51,-594 45,-594 39,-588 39,-582 39,-582 39,-498 39,-498 39,-492 45,-486 51,-486 51,-486 266,-486 266,-486 272,-486 278,-492 278,-498 278,-498 278,-582 278,-582 278,-588 272,-594 266,-594"/>
<text text-anchor="start" x="122" y="-568.8" font-family="Arial" font-weight="bold" font-size="24.00" fill="white">Linear</text>
<text text-anchor="start" x="154.5" y="-552.8" font-family="Arial" font-style="italic" font-size="14.00" fill="white">3</text>
<text text-anchor="start" x="75" y="-524.8" font-family="Arial" font-weight="bold" font-size="14.00" fill="white">params</text>
<text text-anchor="start" x="124" y="-524.8" font-family="Arial" font-size="14.00" fill="white">: 148.22K (48.46%)</text>
<text text-anchor="start" x="53" y="-496.8" font-family="Arial" font-weight="bold" font-size="14.00" fill="white">src</text>
<text text-anchor="start" x="74" y="-496.8" font-family="Arial" font-size="14.00" fill="white">: torch.nn.modules.linear.Linear</text>
</g>
<!-- _2&#45;&gt;_3 -->
<g id="edge4" class="edge">
<title>_2&#45;&gt;_3</title>
<path fill="none" stroke="black" stroke-width="2" d="M158.5,-629.72C158.5,-621.44 158.5,-612.82 158.5,-604.34"/>
<polygon fill="black" stroke="black" stroke-width="2" points="162,-604.11 158.5,-594.11 155,-604.11 162,-604.11"/>
</g>
<!-- _4 -->
<g id="node7" class="node">
<title>_4</title>
<path fill="#455392" stroke="#455392" d="M278,-450C278,-450 39,-450 39,-450 33,-450 27,-444 27,-438 27,-438 27,-382 27,-382 27,-376 33,-370 39,-370 39,-370 278,-370 278,-370 284,-370 290,-376 290,-382 290,-382 290,-438 290,-438 290,-444 284,-450 278,-450"/>
<text text-anchor="start" x="125" y="-424.8" font-family="Arial" font-weight="bold" font-size="24.00" fill="white">GELU</text>
<text text-anchor="start" x="154.5" y="-408.8" font-family="Arial" font-style="italic" font-size="14.00" fill="white">4</text>
<text text-anchor="start" x="41" y="-380.8" font-family="Arial" font-weight="bold" font-size="14.00" fill="white">src</text>
<text text-anchor="start" x="62" y="-380.8" font-family="Arial" font-size="14.00" fill="white">: torch.nn.modules.activation.GELU</text>
</g>
<!-- _3&#45;&gt;_4 -->
<g id="edge5" class="edge">
<title>_3&#45;&gt;_4</title>
<path fill="none" stroke="black" stroke-width="2" d="M158.5,-485.83C158.5,-477.33 158.5,-468.57 158.5,-460.17"/>
<polygon fill="black" stroke="black" stroke-width="2" points="162,-460.15 158.5,-450.15 155,-460.15 162,-460.15"/>
</g>
<!-- _5 -->
<g id="node8" class="node">
<title>_5</title>
<path fill="#555580" stroke="#555580" d="M266,-334C266,-334 51,-334 51,-334 45,-334 39,-328 39,-322 39,-322 39,-238 39,-238 39,-232 45,-226 51,-226 51,-226 266,-226 266,-226 272,-226 278,-232 278,-238 278,-238 278,-322 278,-322 278,-328 272,-334 266,-334"/>
<text text-anchor="start" x="122" y="-308.8" font-family="Arial" font-weight="bold" font-size="24.00" fill="white">Linear</text>
<text text-anchor="start" x="154.5" y="-292.8" font-family="Arial" font-style="italic" font-size="14.00" fill="white">5</text>
<text text-anchor="start" x="75" y="-264.8" font-family="Arial" font-weight="bold" font-size="14.00" fill="white">params</text>
<text text-anchor="start" x="124" y="-264.8" font-family="Arial" font-size="14.00" fill="white">: 147.65K (48.27%)</text>
<text text-anchor="start" x="53" y="-236.8" font-family="Arial" font-weight="bold" font-size="14.00" fill="white">src</text>
<text text-anchor="start" x="74" y="-236.8" font-family="Arial" font-size="14.00" fill="white">: torch.nn.modules.linear.Linear</text>
</g>
<!-- _4&#45;&gt;_5 -->
<g id="edge6" class="edge">
<title>_4&#45;&gt;_5</title>
<path fill="none" stroke="black" stroke-width="2" d="M158.5,-369.9C158.5,-361.76 158.5,-352.99 158.5,-344.23"/>
<polygon fill="black" stroke="black" stroke-width="2" points="162,-344 158.5,-334 155,-344 162,-344"/>
</g>
<!-- _5&#45;&gt;permute_1 -->
<g id="edge7" class="edge">
<title>_5&#45;&gt;permute_1</title>
<path fill="none" stroke="black" stroke-width="2" d="M158.5,-225.75C158.5,-214.92 158.5,-203.49 158.5,-192.55"/>
<polygon fill="black" stroke="black" stroke-width="2" points="162,-192.24 158.5,-182.24 155,-192.24 162,-192.24"/>
</g>
</g>
</svg>
