<?xml version="1.0" encoding="UTF-8" standalone="no"?>
<!DOCTYPE svg PUBLIC "-//W3C//DTD SVG 1.1//EN"
 "http://www.w3.org/Graphics/SVG/1.1/DTD/svg11.dtd">
<!-- Generated by graphviz version 2.50.0 (0)
 -->
<!-- Pages: 1 -->
<svg width="374pt" height="3372pt"
 viewBox="0.00 0.00 374.00 3372.00" xmlns="http://www.w3.org/2000/svg" xmlns:xlink="http://www.w3.org/1999/xlink">
<g id="graph0" class="graph" transform="scale(1 1) rotate(0) translate(4 3368)">
<polygon fill="white" stroke="transparent" points="-4,4 -4,-3368 370,-3368 370,4 -4,4"/>
<text text-anchor="start" x="49" y="-3322.6" font-family="Arial" font-weight="bold" font-size="48.00">EfficientNet</text>
<text text-anchor="start" x="38.5" y="-3301.8" font-family="Arial" font-weight="bold" font-size="14.00">Source: </text>
<text text-anchor="start" x="93.5" y="-3301.8" font-family="Arial" font-size="14.00"> torchvision.models.efficientnet v0.13.1</text>
<text text-anchor="start" x="143" y="-3287.8" font-family="Arial" font-weight="bold" font-size="14.00">NNViz </text>
<text text-anchor="start" x="186" y="-3287.8" font-family="Arial" font-size="14.00">v0.5.0</text>
<text text-anchor="start" x="181" y="-3273.8" font-family="Arial" font-size="14.00"> </text>
<g id="clust2" class="cluster">
<title>cluster_features</title>
<path fill="#e7e7e7" stroke="black" d="M20,-586C20,-586 346,-586 346,-586 352,-586 358,-592 358,-598 358,-598 358,-3194 358,-3194 358,-3200 352,-3206 346,-3206 346,-3206 20,-3206 20,-3206 14,-3206 8,-3200 8,-3194 8,-3194 8,-598 8,-598 8,-592 14,-586 20,-586"/>
<text text-anchor="start" x="16" y="-3188.6" font-family="Arial" font-weight="bold" font-size="18.00">features</text>
</g>
<g id="clust6" class="cluster">
<title>cluster_1</title>
<path fill="#d4d4d4" stroke="black" d="M101,-2640C101,-2640 265,-2640 265,-2640 271,-2640 277,-2646 277,-2652 277,-2652 277,-2738 277,-2738 277,-2744 271,-2750 265,-2750 265,-2750 101,-2750 101,-2750 95,-2750 89,-2744 89,-2738 89,-2738 89,-2652 89,-2652 89,-2646 95,-2640 101,-2640"/>
<text text-anchor="start" x="97" y="-2732.6" font-family="Arial" font-weight="bold" font-size="18.00">1</text>
</g>
<g id="clust7" class="cluster">
<title>cluster_7</title>
<path fill="#d4d4d4" stroke="black" d="M89,-1014C89,-1014 277,-1014 277,-1014 283,-1014 289,-1020 289,-1026 289,-1026 289,-1112 289,-1112 289,-1118 283,-1124 277,-1124 277,-1124 89,-1124 89,-1124 83,-1124 77,-1118 77,-1112 77,-1112 77,-1026 77,-1026 77,-1020 83,-1014 89,-1014"/>
<text text-anchor="start" x="85" y="-1106.6" font-family="Arial" font-weight="bold" font-size="18.00">7</text>
</g>
<g id="clust4" class="cluster">
<title>cluster_8</title>
<path fill="#d4d4d4" stroke="black" d="M28,-594C28,-594 338,-594 338,-594 344,-594 350,-600 350,-606 350,-606 350,-994 350,-994 350,-1000 344,-1006 338,-1006 338,-1006 28,-1006 28,-1006 22,-1006 16,-1000 16,-994 16,-994 16,-606 16,-606 16,-600 22,-594 28,-594"/>
<text text-anchor="start" x="24" y="-988.6" font-family="Arial" font-weight="bold" font-size="18.00">8</text>
</g>
<g id="clust8" class="cluster">
<title>cluster_4</title>
<path fill="#d4d4d4" stroke="black" d="M93,-1878C93,-1878 273,-1878 273,-1878 279,-1878 285,-1884 285,-1890 285,-1890 285,-2180 285,-2180 285,-2186 279,-2192 273,-2192 273,-2192 93,-2192 93,-2192 87,-2192 81,-2186 81,-2180 81,-2180 81,-1890 81,-1890 81,-1884 87,-1878 93,-1878"/>
<text text-anchor="start" x="89" y="-2174.6" font-family="Arial" font-weight="bold" font-size="18.00">4</text>
</g>
<g id="clust10" class="cluster">
<title>cluster_6</title>
<path fill="#d4d4d4" stroke="black" d="M90,-1132C90,-1132 276,-1132 276,-1132 282,-1132 288,-1138 288,-1144 288,-1144 288,-1536 288,-1536 288,-1542 282,-1548 276,-1548 276,-1548 90,-1548 90,-1548 84,-1548 78,-1542 78,-1536 78,-1536 78,-1144 78,-1144 78,-1138 84,-1132 90,-1132"/>
<text text-anchor="start" x="86" y="-1530.6" font-family="Arial" font-weight="bold" font-size="18.00">6</text>
</g>
<g id="clust9" class="cluster">
<title>cluster_2</title>
<path fill="#d4d4d4" stroke="black" d="M97,-2420C97,-2420 269,-2420 269,-2420 275,-2420 281,-2426 281,-2432 281,-2432 281,-2620 281,-2620 281,-2626 275,-2632 269,-2632 269,-2632 97,-2632 97,-2632 91,-2632 85,-2626 85,-2620 85,-2620 85,-2432 85,-2432 85,-2426 91,-2420 97,-2420"/>
<text text-anchor="start" x="93" y="-2614.6" font-family="Arial" font-weight="bold" font-size="18.00">2</text>
</g>
<g id="clust5" class="cluster">
<title>cluster_5</title>
<path fill="#d4d4d4" stroke="black" d="M93,-1556C93,-1556 273,-1556 273,-1556 279,-1556 285,-1562 285,-1568 285,-1568 285,-1858 285,-1858 285,-1864 279,-1870 273,-1870 273,-1870 93,-1870 93,-1870 87,-1870 81,-1864 81,-1858 81,-1858 81,-1568 81,-1568 81,-1562 87,-1556 93,-1556"/>
<text text-anchor="start" x="89" y="-1852.6" font-family="Arial" font-weight="bold" font-size="18.00">5</text>
</g>
<g id="clust3" class="cluster">
<title>cluster_0</title>
<path fill="#d4d4d4" stroke="black" d="M28,-2758C28,-2758 338,-2758 338,-2758 344,-2758 350,-2764 350,-2770 350,-2770 350,-3158 350,-3158 350,-3164 344,-3170 338,-3170 338,-3170 28,-3170 28,-3170 22,-3170 16,-3164 16,-3158 16,-3158 16,-2770 16,-2770 16,-2764 22,-2758 28,-2758"/>
<text text-anchor="start" x="24" y="-3152.6" font-family="Arial" font-weight="bold" font-size="18.00">0</text>
</g>
<g id="clust11" class="cluster">
<title>cluster_3</title>
<path fill="#d4d4d4" stroke="black" d="M97,-2200C97,-2200 269,-2200 269,-2200 275,-2200 281,-2206 281,-2212 281,-2212 281,-2400 281,-2400 281,-2406 275,-2412 269,-2412 269,-2412 97,-2412 97,-2412 91,-2412 85,-2406 85,-2400 85,-2400 85,-2212 85,-2212 85,-2206 91,-2200 97,-2200"/>
<text text-anchor="start" x="93" y="-2394.6" font-family="Arial" font-weight="bold" font-size="18.00">3</text>
</g>
<g id="clust1" class="cluster">
<title>cluster_classifier</title>
<path fill="#e7e7e7" stroke="black" d="M55,-80C55,-80 311,-80 311,-80 317,-80 323,-86 323,-92 323,-92 323,-336 323,-336 323,-342 317,-348 311,-348 311,-348 55,-348 55,-348 49,-348 43,-342 43,-336 43,-336 43,-92 43,-92 43,-86 49,-80 55,-80"/>
<text text-anchor="start" x="51" y="-330.6" font-family="Arial" font-weight="bold" font-size="18.00">classifier</text>
</g>
<!-- classifier_0 -->
<g id="node1" class="node">
<title>classifier_0</title>
<path fill="#3a376c" stroke="#3a376c" d="M302.5,-312C302.5,-312 63.5,-312 63.5,-312 57.5,-312 51.5,-306 51.5,-300 51.5,-300 51.5,-244 51.5,-244 51.5,-238 57.5,-232 63.5,-232 63.5,-232 302.5,-232 302.5,-232 308.5,-232 314.5,-238 314.5,-244 314.5,-244 314.5,-300 314.5,-300 314.5,-306 308.5,-312 302.5,-312"/>
<text text-anchor="start" x="135.5" y="-286.8" font-family="Arial" font-weight="bold" font-size="24.00" fill="white">Dropout</text>
<text text-anchor="start" x="151" y="-270.8" font-family="Arial" font-style="italic" font-size="14.00" fill="white">classifier.0</text>
<text text-anchor="start" x="65.5" y="-242.8" font-family="Arial" font-weight="bold" font-size="14.00" fill="white">src</text>
<text text-anchor="start" x="86.5" y="-242.8" font-family="Arial" font-size="14.00" fill="white">: torch.nn.modules.dropout.Dropout</text>
</g>
<!-- classifier_1 -->
<g id="node2" class="node">
<title>classifier_1</title>
<path fill="#49556c" stroke="#49556c" d="M290.5,-196C290.5,-196 75.5,-196 75.5,-196 69.5,-196 63.5,-190 63.5,-184 63.5,-184 63.5,-100 63.5,-100 63.5,-94 69.5,-88 75.5,-88 75.5,-88 290.5,-88 290.5,-88 296.5,-88 302.5,-94 302.5,-100 302.5,-100 302.5,-184 302.5,-184 302.5,-190 296.5,-196 290.5,-196"/>
<text text-anchor="start" x="146.5" y="-170.8" font-family="Arial" font-weight="bold" font-size="24.00" fill="white">Linear</text>
<text text-anchor="start" x="151" y="-154.8" font-family="Arial" font-style="italic" font-size="14.00" fill="white">classifier.1</text>
<text text-anchor="start" x="105.5" y="-126.8" font-family="Arial" font-weight="bold" font-size="14.00" fill="white">params</text>
<text text-anchor="start" x="154.5" y="-126.8" font-family="Arial" font-size="14.00" fill="white">: 1.28M (24.22%)</text>
<text text-anchor="start" x="77.5" y="-98.8" font-family="Arial" font-weight="bold" font-size="14.00" fill="white">src</text>
<text text-anchor="start" x="98.5" y="-98.8" font-family="Arial" font-size="14.00" fill="white">: torch.nn.modules.linear.Linear</text>
</g>
<!-- classifier_0&#45;&gt;classifier_1 -->
<g id="edge10" class="edge">
<title>classifier_0&#45;&gt;classifier_1</title>
<path fill="none" stroke="black" stroke-width="2" d="M183,-231.9C183,-223.76 183,-214.99 183,-206.23"/>
<polygon fill="black" stroke="black" stroke-width="2" points="186.5,-206 183,-196 179.5,-206 186.5,-206"/>
</g>
<!-- output -->
<g id="node28" class="node">
<title>output</title>
<path fill="#000000" stroke="#000000" d="M225.5,-52C225.5,-52 140.5,-52 140.5,-52 134.5,-52 128.5,-46 128.5,-40 128.5,-40 128.5,-12 128.5,-12 128.5,-6 134.5,0 140.5,0 140.5,0 225.5,0 225.5,0 231.5,0 237.5,-6 237.5,-12 237.5,-12 237.5,-40 237.5,-40 237.5,-46 231.5,-52 225.5,-52"/>
<text text-anchor="start" x="142.5" y="-26.8" font-family="Arial" font-weight="bold" font-size="24.00" fill="white">Output</text>
<text text-anchor="start" x="164" y="-10.8" font-family="Arial" font-style="italic" font-size="14.00" fill="white">output</text>
</g>
<!-- classifier_1&#45;&gt;output -->
<g id="edge11" class="edge">
<title>classifier_1&#45;&gt;output</title>
<path fill="none" stroke="black" stroke-width="2" d="M183,-87.67C183,-79.05 183,-70.31 183,-62.26"/>
<polygon fill="black" stroke="black" stroke-width="2" points="186.5,-62.13 183,-52.13 179.5,-62.13 186.5,-62.13"/>
</g>
<!-- features_0_0 -->
<g id="node3" class="node">
<title>features_0_0</title>
<path fill="#444380" stroke="#444380" d="M292.5,-3134C292.5,-3134 73.5,-3134 73.5,-3134 67.5,-3134 61.5,-3128 61.5,-3122 61.5,-3122 61.5,-3038 61.5,-3038 61.5,-3032 67.5,-3026 73.5,-3026 73.5,-3026 292.5,-3026 292.5,-3026 298.5,-3026 304.5,-3032 304.5,-3038 304.5,-3038 304.5,-3122 304.5,-3122 304.5,-3128 298.5,-3134 292.5,-3134"/>
<text text-anchor="start" x="138" y="-3108.8" font-family="Arial" font-weight="bold" font-size="24.00" fill="white">Conv2d</text>
<text text-anchor="start" x="147" y="-3092.8" font-family="Arial" font-style="italic" font-size="14.00" fill="white">features.0.0</text>
<text text-anchor="start" x="117.5" y="-3064.8" font-family="Arial" font-weight="bold" font-size="14.00" fill="white">params</text>
<text text-anchor="start" x="166.5" y="-3064.8" font-family="Arial" font-size="14.00" fill="white">: 864 (0.02%)</text>
<text text-anchor="start" x="75.5" y="-3036.8" font-family="Arial" font-weight="bold" font-size="14.00" fill="white">src</text>
<text text-anchor="start" x="96.5" y="-3036.8" font-family="Arial" font-size="14.00" fill="white">: torch.nn.modules.conv.Conv2d</text>
</g>
<!-- features_0_1 -->
<g id="node4" class="node">
<title>features_0_1</title>
<path fill="#52406b" stroke="#52406b" d="M329.5,-2990C329.5,-2990 36.5,-2990 36.5,-2990 30.5,-2990 24.5,-2984 24.5,-2978 24.5,-2978 24.5,-2894 24.5,-2894 24.5,-2888 30.5,-2882 36.5,-2882 36.5,-2882 329.5,-2882 329.5,-2882 335.5,-2882 341.5,-2888 341.5,-2894 341.5,-2894 341.5,-2978 341.5,-2978 341.5,-2984 335.5,-2990 329.5,-2990"/>
<text text-anchor="start" x="103.5" y="-2964.8" font-family="Arial" font-weight="bold" font-size="24.00" fill="white">BatchNorm2d</text>
<text text-anchor="start" x="147" y="-2948.8" font-family="Arial" font-style="italic" font-size="14.00" fill="white">features.0.1</text>
<text text-anchor="start" x="121" y="-2920.8" font-family="Arial" font-weight="bold" font-size="14.00" fill="white">params</text>
<text text-anchor="start" x="170" y="-2920.8" font-family="Arial" font-size="14.00" fill="white">: 64 (0.00%)</text>
<text text-anchor="start" x="38.5" y="-2892.8" font-family="Arial" font-weight="bold" font-size="14.00" fill="white">src</text>
<text text-anchor="start" x="59.5" y="-2892.8" font-family="Arial" font-size="14.00" fill="white">: torch.nn.modules.batchnorm.BatchNorm2d</text>
</g>
<!-- features_0_0&#45;&gt;features_0_1 -->
<g id="edge2" class="edge">
<title>features_0_0&#45;&gt;features_0_1</title>
<path fill="none" stroke="black" stroke-width="2" d="M183,-3025.72C183,-3017.44 183,-3008.82 183,-3000.34"/>
<polygon fill="black" stroke="black" stroke-width="2" points="186.5,-3000.11 183,-2990.11 179.5,-3000.11 186.5,-3000.11"/>
</g>
<!-- features_0_2 -->
<g id="node5" class="node">
<title>features_0_2</title>
<path fill="#555580" stroke="#555580" d="M298.5,-2846C298.5,-2846 67.5,-2846 67.5,-2846 61.5,-2846 55.5,-2840 55.5,-2834 55.5,-2834 55.5,-2778 55.5,-2778 55.5,-2772 61.5,-2766 67.5,-2766 67.5,-2766 298.5,-2766 298.5,-2766 304.5,-2766 310.5,-2772 310.5,-2778 310.5,-2778 310.5,-2834 310.5,-2834 310.5,-2840 304.5,-2846 298.5,-2846"/>
<text text-anchor="start" x="155.5" y="-2820.8" font-family="Arial" font-weight="bold" font-size="24.00" fill="white">SiLU</text>
<text text-anchor="start" x="147" y="-2804.8" font-family="Arial" font-style="italic" font-size="14.00" fill="white">features.0.2</text>
<text text-anchor="start" x="69.5" y="-2776.8" font-family="Arial" font-weight="bold" font-size="14.00" fill="white">src</text>
<text text-anchor="start" x="90.5" y="-2776.8" font-family="Arial" font-size="14.00" fill="white">: torch.nn.modules.activation.SiLU</text>
</g>
<!-- features_0_1&#45;&gt;features_0_2 -->
<g id="edge3" class="edge">
<title>features_0_1&#45;&gt;features_0_2</title>
<path fill="none" stroke="black" stroke-width="2" d="M183,-2881.83C183,-2873.33 183,-2864.57 183,-2856.17"/>
<polygon fill="black" stroke="black" stroke-width="2" points="186.5,-2856.15 183,-2846.15 179.5,-2856.15 186.5,-2856.15"/>
</g>
<!-- features_1_0 -->
<g id="node12" class="node">
<title>features_1_0</title>
<path fill="#8c4051" stroke="#8c4051" d="M257,-2714C257,-2714 109,-2714 109,-2714 103,-2714 97,-2708 97,-2702 97,-2702 97,-2660 97,-2660 97,-2654 103,-2648 109,-2648 109,-2648 257,-2648 257,-2648 263,-2648 269,-2654 269,-2660 269,-2660 269,-2702 269,-2702 269,-2708 263,-2714 257,-2714"/>
<text text-anchor="start" x="115" y="-2688.8" font-family="Arial" font-weight="bold" font-size="24.00" fill="white">features.1.0</text>
<text text-anchor="start" x="111" y="-2658.8" font-family="Arial" font-weight="bold" font-size="14.00" fill="white">params</text>
<text text-anchor="start" x="160" y="-2658.8" font-family="Arial" font-size="14.00" fill="white">: 1.45K (0.03%)</text>
</g>
<!-- features_0_2&#45;&gt;features_1_0 -->
<g id="edge4" class="edge">
<title>features_0_2&#45;&gt;features_1_0</title>
<path fill="none" stroke="black" stroke-width="2" d="M183,-2765.74C183,-2752.65 183,-2738 183,-2724.67"/>
<polygon fill="black" stroke="black" stroke-width="2" points="186.5,-2724.3 183,-2714.3 179.5,-2724.3 186.5,-2724.3"/>
</g>
<!-- features_8_0 -->
<g id="node6" class="node">
<title>features_8_0</title>
<path fill="#444380" stroke="#444380" d="M292.5,-970C292.5,-970 73.5,-970 73.5,-970 67.5,-970 61.5,-964 61.5,-958 61.5,-958 61.5,-874 61.5,-874 61.5,-868 67.5,-862 73.5,-862 73.5,-862 292.5,-862 292.5,-862 298.5,-862 304.5,-868 304.5,-874 304.5,-874 304.5,-958 304.5,-958 304.5,-964 298.5,-970 292.5,-970"/>
<text text-anchor="start" x="138" y="-944.8" font-family="Arial" font-weight="bold" font-size="24.00" fill="white">Conv2d</text>
<text text-anchor="start" x="147" y="-928.8" font-family="Arial" font-style="italic" font-size="14.00" fill="white">features.8.0</text>
<text text-anchor="start" x="103.5" y="-900.8" font-family="Arial" font-weight="bold" font-size="14.00" fill="white">params</text>
<text text-anchor="start" x="152.5" y="-900.8" font-family="Arial" font-size="14.00" fill="white">: 409.60K (7.75%)</text>
<text text-anchor="start" x="75.5" y="-872.8" font-family="Arial" font-weight="bold" font-size="14.00" fill="white">src</text>
<text text-anchor="start" x="96.5" y="-872.8" font-family="Arial" font-size="14.00" fill="white">: torch.nn.modules.conv.Conv2d</text>
</g>
<!-- features_8_1 -->
<g id="node7" class="node">
<title>features_8_1</title>
<path fill="#52406b" stroke="#52406b" d="M329.5,-826C329.5,-826 36.5,-826 36.5,-826 30.5,-826 24.5,-820 24.5,-814 24.5,-814 24.5,-730 24.5,-730 24.5,-724 30.5,-718 36.5,-718 36.5,-718 329.5,-718 329.5,-718 335.5,-718 341.5,-724 341.5,-730 341.5,-730 341.5,-814 341.5,-814 341.5,-820 335.5,-826 329.5,-826"/>
<text text-anchor="start" x="103.5" y="-800.8" font-family="Arial" font-weight="bold" font-size="24.00" fill="white">BatchNorm2d</text>
<text text-anchor="start" x="147" y="-784.8" font-family="Arial" font-style="italic" font-size="14.00" fill="white">features.8.1</text>
<text text-anchor="start" x="111" y="-756.8" font-family="Arial" font-weight="bold" font-size="14.00" fill="white">params</text>
<text text-anchor="start" x="160" y="-756.8" font-family="Arial" font-size="14.00" fill="white">: 2.56K (0.05%)</text>
<text text-anchor="start" x="38.5" y="-728.8" font-family="Arial" font-weight="bold" font-size="14.00" fill="white">src</text>
<text text-anchor="start" x="59.5" y="-728.8" font-family="Arial" font-size="14.00" fill="white">: torch.nn.modules.batchnorm.BatchNorm2d</text>
</g>
<!-- features_8_0&#45;&gt;features_8_1 -->
<g id="edge5" class="edge">
<title>features_8_0&#45;&gt;features_8_1</title>
<path fill="none" stroke="black" stroke-width="2" d="M183,-861.72C183,-853.44 183,-844.82 183,-836.34"/>
<polygon fill="black" stroke="black" stroke-width="2" points="186.5,-836.11 183,-826.11 179.5,-836.11 186.5,-836.11"/>
</g>
<!-- features_8_2 -->
<g id="node8" class="node">
<title>features_8_2</title>
<path fill="#555580" stroke="#555580" d="M298.5,-682C298.5,-682 67.5,-682 67.5,-682 61.5,-682 55.5,-676 55.5,-670 55.5,-670 55.5,-614 55.5,-614 55.5,-608 61.5,-602 67.5,-602 67.5,-602 298.5,-602 298.5,-602 304.5,-602 310.5,-608 310.5,-614 310.5,-614 310.5,-670 310.5,-670 310.5,-676 304.5,-682 298.5,-682"/>
<text text-anchor="start" x="155.5" y="-656.8" font-family="Arial" font-weight="bold" font-size="24.00" fill="white">SiLU</text>
<text text-anchor="start" x="147" y="-640.8" font-family="Arial" font-style="italic" font-size="14.00" fill="white">features.8.2</text>
<text text-anchor="start" x="69.5" y="-612.8" font-family="Arial" font-weight="bold" font-size="14.00" fill="white">src</text>
<text text-anchor="start" x="90.5" y="-612.8" font-family="Arial" font-size="14.00" fill="white">: torch.nn.modules.activation.SiLU</text>
</g>
<!-- features_8_1&#45;&gt;features_8_2 -->
<g id="edge6" class="edge">
<title>features_8_1&#45;&gt;features_8_2</title>
<path fill="none" stroke="black" stroke-width="2" d="M183,-717.83C183,-709.33 183,-700.57 183,-692.17"/>
<polygon fill="black" stroke="black" stroke-width="2" points="186.5,-692.15 183,-682.15 179.5,-692.15 186.5,-692.15"/>
</g>
<!-- avgpool -->
<g id="node26" class="node">
<title>avgpool</title>
<path fill="#455392" stroke="#455392" d="M336,-566C336,-566 30,-566 30,-566 24,-566 18,-560 18,-554 18,-554 18,-498 18,-498 18,-492 24,-486 30,-486 30,-486 336,-486 336,-486 342,-486 348,-492 348,-498 348,-498 348,-554 348,-554 348,-560 342,-566 336,-566"/>
<text text-anchor="start" x="68.5" y="-540.8" font-family="Arial" font-weight="bold" font-size="24.00" fill="white">AdaptiveAvgPool2d</text>
<text text-anchor="start" x="159" y="-524.8" font-family="Arial" font-style="italic" font-size="14.00" fill="white">avgpool</text>
<text text-anchor="start" x="32" y="-496.8" font-family="Arial" font-weight="bold" font-size="14.00" fill="white">src</text>
<text text-anchor="start" x="53" y="-496.8" font-family="Arial" font-size="14.00" fill="white">: torch.nn.modules.pooling.AdaptiveAvgPool2d</text>
</g>
<!-- features_8_2&#45;&gt;avgpool -->
<g id="edge7" class="edge">
<title>features_8_2&#45;&gt;avgpool</title>
<path fill="none" stroke="black" stroke-width="2" d="M183,-601.77C183,-593.62 183,-584.93 183,-576.46"/>
<polygon fill="black" stroke="black" stroke-width="2" points="186.5,-576.3 183,-566.3 179.5,-576.3 186.5,-576.3"/>
</g>
<!-- features_5_0 -->
<g id="node9" class="node">
<title>features_5_0</title>
<path fill="#7a1d4b" stroke="#7a1d4b" d="M264.5,-1834C264.5,-1834 101.5,-1834 101.5,-1834 95.5,-1834 89.5,-1828 89.5,-1822 89.5,-1822 89.5,-1780 89.5,-1780 89.5,-1774 95.5,-1768 101.5,-1768 101.5,-1768 264.5,-1768 264.5,-1768 270.5,-1768 276.5,-1774 276.5,-1780 276.5,-1780 276.5,-1822 276.5,-1822 276.5,-1828 270.5,-1834 264.5,-1834"/>
<text text-anchor="start" x="115" y="-1808.8" font-family="Arial" font-weight="bold" font-size="24.00" fill="white">features.5.0</text>
<text text-anchor="start" x="103.5" y="-1778.8" font-family="Arial" font-weight="bold" font-size="14.00" fill="white">params</text>
<text text-anchor="start" x="152.5" y="-1778.8" font-family="Arial" font-size="14.00" fill="white">: 126.00K (2.38%)</text>
</g>
<!-- features_5_1 -->
<g id="node10" class="node">
<title>features_5_1</title>
<path fill="#7a1d4b" stroke="#7a1d4b" d="M264.5,-1732C264.5,-1732 101.5,-1732 101.5,-1732 95.5,-1732 89.5,-1726 89.5,-1720 89.5,-1720 89.5,-1678 89.5,-1678 89.5,-1672 95.5,-1666 101.5,-1666 101.5,-1666 264.5,-1666 264.5,-1666 270.5,-1666 276.5,-1672 276.5,-1678 276.5,-1678 276.5,-1720 276.5,-1720 276.5,-1726 270.5,-1732 264.5,-1732"/>
<text text-anchor="start" x="115" y="-1706.8" font-family="Arial" font-weight="bold" font-size="24.00" fill="white">features.5.1</text>
<text text-anchor="start" x="103.5" y="-1676.8" font-family="Arial" font-weight="bold" font-size="14.00" fill="white">params</text>
<text text-anchor="start" x="152.5" y="-1676.8" font-family="Arial" font-size="14.00" fill="white">: 208.57K (3.94%)</text>
</g>
<!-- features_5_0&#45;&gt;features_5_1 -->
<g id="edge16" class="edge">
<title>features_5_0&#45;&gt;features_5_1</title>
<path fill="none" stroke="black" stroke-width="2" d="M183,-1767.81C183,-1759.69 183,-1750.85 183,-1742.32"/>
<polygon fill="black" stroke="black" stroke-width="2" points="186.5,-1742.13 183,-1732.13 179.5,-1742.13 186.5,-1742.13"/>
</g>
<!-- features_5_2 -->
<g id="node11" class="node">
<title>features_5_2</title>
<path fill="#7a1d4b" stroke="#7a1d4b" d="M264.5,-1630C264.5,-1630 101.5,-1630 101.5,-1630 95.5,-1630 89.5,-1624 89.5,-1618 89.5,-1618 89.5,-1576 89.5,-1576 89.5,-1570 95.5,-1564 101.5,-1564 101.5,-1564 264.5,-1564 264.5,-1564 270.5,-1564 276.5,-1570 276.5,-1576 276.5,-1576 276.5,-1618 276.5,-1618 276.5,-1624 270.5,-1630 264.5,-1630"/>
<text text-anchor="start" x="115" y="-1604.8" font-family="Arial" font-weight="bold" font-size="24.00" fill="white">features.5.2</text>
<text text-anchor="start" x="103.5" y="-1574.8" font-family="Arial" font-weight="bold" font-size="14.00" fill="white">params</text>
<text text-anchor="start" x="152.5" y="-1574.8" font-family="Arial" font-size="14.00" fill="white">: 208.57K (3.94%)</text>
</g>
<!-- features_5_1&#45;&gt;features_5_2 -->
<g id="edge18" class="edge">
<title>features_5_1&#45;&gt;features_5_2</title>
<path fill="none" stroke="black" stroke-width="2" d="M183,-1665.81C183,-1657.69 183,-1648.85 183,-1640.32"/>
<polygon fill="black" stroke="black" stroke-width="2" points="186.5,-1640.13 183,-1630.13 179.5,-1640.13 186.5,-1640.13"/>
</g>
<!-- features_6_0 -->
<g id="node19" class="node">
<title>features_6_0</title>
<path fill="#7a1869" stroke="#7a1869" d="M264.5,-1512C264.5,-1512 101.5,-1512 101.5,-1512 95.5,-1512 89.5,-1506 89.5,-1500 89.5,-1500 89.5,-1458 89.5,-1458 89.5,-1452 95.5,-1446 101.5,-1446 101.5,-1446 264.5,-1446 264.5,-1446 270.5,-1446 276.5,-1452 276.5,-1458 276.5,-1458 276.5,-1500 276.5,-1500 276.5,-1506 270.5,-1512 264.5,-1512"/>
<text text-anchor="start" x="115" y="-1486.8" font-family="Arial" font-weight="bold" font-size="24.00" fill="white">features.6.0</text>
<text text-anchor="start" x="103.5" y="-1456.8" font-family="Arial" font-weight="bold" font-size="14.00" fill="white">params</text>
<text text-anchor="start" x="152.5" y="-1456.8" font-family="Arial" font-size="14.00" fill="white">: 262.49K (4.96%)</text>
</g>
<!-- features_5_2&#45;&gt;features_6_0 -->
<g id="edge25" class="edge">
<title>features_5_2&#45;&gt;features_6_0</title>
<path fill="none" stroke="black" stroke-width="2" d="M183,-1564C183,-1551.17 183,-1536.21 183,-1522.49"/>
<polygon fill="black" stroke="black" stroke-width="2" points="186.5,-1522.3 183,-1512.3 179.5,-1522.3 186.5,-1522.3"/>
</g>
<!-- features_2_0 -->
<g id="node17" class="node">
<title>features_2_0</title>
<path fill="#6c1769" stroke="#6c1769" d="M256.5,-2596C256.5,-2596 109.5,-2596 109.5,-2596 103.5,-2596 97.5,-2590 97.5,-2584 97.5,-2584 97.5,-2542 97.5,-2542 97.5,-2536 103.5,-2530 109.5,-2530 109.5,-2530 256.5,-2530 256.5,-2530 262.5,-2530 268.5,-2536 268.5,-2542 268.5,-2542 268.5,-2584 268.5,-2584 268.5,-2590 262.5,-2596 256.5,-2596"/>
<text text-anchor="start" x="115" y="-2570.8" font-family="Arial" font-weight="bold" font-size="24.00" fill="white">features.2.0</text>
<text text-anchor="start" x="111.5" y="-2540.8" font-family="Arial" font-weight="bold" font-size="14.00" fill="white">params</text>
<text text-anchor="start" x="160.5" y="-2540.8" font-family="Arial" font-size="14.00" fill="white">: 6.00K (0.11%)</text>
</g>
<!-- features_1_0&#45;&gt;features_2_0 -->
<g id="edge26" class="edge">
<title>features_1_0&#45;&gt;features_2_0</title>
<path fill="none" stroke="black" stroke-width="2" d="M183,-2648C183,-2635.17 183,-2620.21 183,-2606.49"/>
<polygon fill="black" stroke="black" stroke-width="2" points="186.5,-2606.3 183,-2596.3 179.5,-2606.3 186.5,-2606.3"/>
</g>
<!-- features_7_0 -->
<g id="node13" class="node">
<title>features_7_0</title>
<path fill="#6f3250" stroke="#6f3250" d="M268.5,-1088C268.5,-1088 97.5,-1088 97.5,-1088 91.5,-1088 85.5,-1082 85.5,-1076 85.5,-1076 85.5,-1034 85.5,-1034 85.5,-1028 91.5,-1022 97.5,-1022 97.5,-1022 268.5,-1022 268.5,-1022 274.5,-1022 280.5,-1028 280.5,-1034 280.5,-1034 280.5,-1076 280.5,-1076 280.5,-1082 274.5,-1088 268.5,-1088"/>
<text text-anchor="start" x="115" y="-1062.8" font-family="Arial" font-weight="bold" font-size="24.00" fill="white">features.7.0</text>
<text text-anchor="start" x="99.5" y="-1032.8" font-family="Arial" font-weight="bold" font-size="14.00" fill="white">params</text>
<text text-anchor="start" x="148.5" y="-1032.8" font-family="Arial" font-size="14.00" fill="white">: 717.23K (13.56%)</text>
</g>
<!-- features_7_0&#45;&gt;features_8_0 -->
<g id="edge15" class="edge">
<title>features_7_0&#45;&gt;features_8_0</title>
<path fill="none" stroke="black" stroke-width="2" d="M183,-1021.88C183,-1009.47 183,-994.82 183,-980.46"/>
<polygon fill="black" stroke="black" stroke-width="2" points="186.5,-980.09 183,-970.09 179.5,-980.09 186.5,-980.09"/>
</g>
<!-- features_4_0 -->
<g id="node14" class="node">
<title>features_4_0</title>
<path fill="#753e64" stroke="#753e64" d="M261,-2156C261,-2156 105,-2156 105,-2156 99,-2156 93,-2150 93,-2144 93,-2144 93,-2102 93,-2102 93,-2096 99,-2090 105,-2090 105,-2090 261,-2090 261,-2090 267,-2090 273,-2096 273,-2102 273,-2102 273,-2144 273,-2144 273,-2150 267,-2156 261,-2156"/>
<text text-anchor="start" x="115" y="-2130.8" font-family="Arial" font-weight="bold" font-size="24.00" fill="white">features.4.0</text>
<text text-anchor="start" x="107" y="-2100.8" font-family="Arial" font-weight="bold" font-size="14.00" fill="white">params</text>
<text text-anchor="start" x="156" y="-2100.8" font-family="Arial" font-size="14.00" fill="white">: 37.13K (0.70%)</text>
</g>
<!-- features_4_1 -->
<g id="node15" class="node">
<title>features_4_1</title>
<path fill="#753e64" stroke="#753e64" d="M264.5,-2054C264.5,-2054 101.5,-2054 101.5,-2054 95.5,-2054 89.5,-2048 89.5,-2042 89.5,-2042 89.5,-2000 89.5,-2000 89.5,-1994 95.5,-1988 101.5,-1988 101.5,-1988 264.5,-1988 264.5,-1988 270.5,-1988 276.5,-1994 276.5,-2000 276.5,-2000 276.5,-2042 276.5,-2042 276.5,-2048 270.5,-2054 264.5,-2054"/>
<text text-anchor="start" x="115" y="-2028.8" font-family="Arial" font-weight="bold" font-size="24.00" fill="white">features.4.1</text>
<text text-anchor="start" x="103.5" y="-1998.8" font-family="Arial" font-weight="bold" font-size="14.00" fill="white">params</text>
<text text-anchor="start" x="152.5" y="-1998.8" font-family="Arial" font-size="14.00" fill="white">: 102.90K (1.95%)</text>
</g>
<!-- features_4_0&#45;&gt;features_4_1 -->
<g id="edge17" class="edge">
<title>features_4_0&#45;&gt;features_4_1</title>
<path fill="none" stroke="black" stroke-width="2" d="M183,-2089.81C183,-2081.69 183,-2072.85 183,-2064.32"/>
<polygon fill="black" stroke="black" stroke-width="2" points="186.5,-2064.13 183,-2054.13 179.5,-2064.13 186.5,-2064.13"/>
</g>
<!-- features_4_2 -->
<g id="node16" class="node">
<title>features_4_2</title>
<path fill="#753e64" stroke="#753e64" d="M264.5,-1952C264.5,-1952 101.5,-1952 101.5,-1952 95.5,-1952 89.5,-1946 89.5,-1940 89.5,-1940 89.5,-1898 89.5,-1898 89.5,-1892 95.5,-1886 101.5,-1886 101.5,-1886 264.5,-1886 264.5,-1886 270.5,-1886 276.5,-1892 276.5,-1898 276.5,-1898 276.5,-1940 276.5,-1940 276.5,-1946 270.5,-1952 264.5,-1952"/>
<text text-anchor="start" x="115" y="-1926.8" font-family="Arial" font-weight="bold" font-size="24.00" fill="white">features.4.2</text>
<text text-anchor="start" x="103.5" y="-1896.8" font-family="Arial" font-weight="bold" font-size="14.00" fill="white">params</text>
<text text-anchor="start" x="152.5" y="-1896.8" font-family="Arial" font-size="14.00" fill="white">: 102.90K (1.95%)</text>
</g>
<!-- features_4_1&#45;&gt;features_4_2 -->
<g id="edge19" class="edge">
<title>features_4_1&#45;&gt;features_4_2</title>
<path fill="none" stroke="black" stroke-width="2" d="M183,-1987.81C183,-1979.69 183,-1970.85 183,-1962.32"/>
<polygon fill="black" stroke="black" stroke-width="2" points="186.5,-1962.13 183,-1952.13 179.5,-1962.13 186.5,-1962.13"/>
</g>
<!-- features_4_2&#45;&gt;features_5_0 -->
<g id="edge27" class="edge">
<title>features_4_2&#45;&gt;features_5_0</title>
<path fill="none" stroke="black" stroke-width="2" d="M183,-1886C183,-1873.17 183,-1858.21 183,-1844.49"/>
<polygon fill="black" stroke="black" stroke-width="2" points="186.5,-1844.3 183,-1834.3 179.5,-1844.3 186.5,-1844.3"/>
</g>
<!-- features_2_1 -->
<g id="node18" class="node">
<title>features_2_1</title>
<path fill="#6c1769" stroke="#6c1769" d="M261,-2494C261,-2494 105,-2494 105,-2494 99,-2494 93,-2488 93,-2482 93,-2482 93,-2440 93,-2440 93,-2434 99,-2428 105,-2428 105,-2428 261,-2428 261,-2428 267,-2428 273,-2434 273,-2440 273,-2440 273,-2482 273,-2482 273,-2488 267,-2494 261,-2494"/>
<text text-anchor="start" x="115" y="-2468.8" font-family="Arial" font-weight="bold" font-size="24.00" fill="white">features.2.1</text>
<text text-anchor="start" x="107" y="-2438.8" font-family="Arial" font-weight="bold" font-size="14.00" fill="white">params</text>
<text text-anchor="start" x="156" y="-2438.8" font-family="Arial" font-size="14.00" fill="white">: 10.71K (0.20%)</text>
</g>
<!-- features_2_0&#45;&gt;features_2_1 -->
<g id="edge20" class="edge">
<title>features_2_0&#45;&gt;features_2_1</title>
<path fill="none" stroke="black" stroke-width="2" d="M183,-2529.81C183,-2521.69 183,-2512.85 183,-2504.32"/>
<polygon fill="black" stroke="black" stroke-width="2" points="186.5,-2504.13 183,-2494.13 179.5,-2504.13 186.5,-2504.13"/>
</g>
<!-- features_3_0 -->
<g id="node24" class="node">
<title>features_3_0</title>
<path fill="#842c5d" stroke="#842c5d" d="M261,-2376C261,-2376 105,-2376 105,-2376 99,-2376 93,-2370 93,-2364 93,-2364 93,-2322 93,-2322 93,-2316 99,-2310 105,-2310 105,-2310 261,-2310 261,-2310 267,-2310 273,-2316 273,-2322 273,-2322 273,-2364 273,-2364 273,-2370 267,-2376 261,-2376"/>
<text text-anchor="start" x="115" y="-2350.8" font-family="Arial" font-weight="bold" font-size="24.00" fill="white">features.3.0</text>
<text text-anchor="start" x="107" y="-2320.8" font-family="Arial" font-weight="bold" font-size="14.00" fill="white">params</text>
<text text-anchor="start" x="156" y="-2320.8" font-family="Arial" font-size="14.00" fill="white">: 15.35K (0.29%)</text>
</g>
<!-- features_2_1&#45;&gt;features_3_0 -->
<g id="edge21" class="edge">
<title>features_2_1&#45;&gt;features_3_0</title>
<path fill="none" stroke="black" stroke-width="2" d="M183,-2428C183,-2415.17 183,-2400.21 183,-2386.49"/>
<polygon fill="black" stroke="black" stroke-width="2" points="186.5,-2386.3 183,-2376.3 179.5,-2386.3 186.5,-2386.3"/>
</g>
<!-- features_6_1 -->
<g id="node20" class="node">
<title>features_6_1</title>
<path fill="#7a1869" stroke="#7a1869" d="M268,-1410C268,-1410 98,-1410 98,-1410 92,-1410 86,-1404 86,-1398 86,-1398 86,-1356 86,-1356 86,-1350 92,-1344 98,-1344 98,-1344 268,-1344 268,-1344 274,-1344 280,-1350 280,-1356 280,-1356 280,-1398 280,-1398 280,-1404 274,-1410 268,-1410"/>
<text text-anchor="start" x="115" y="-1384.8" font-family="Arial" font-weight="bold" font-size="24.00" fill="white">features.6.1</text>
<text text-anchor="start" x="100" y="-1354.8" font-family="Arial" font-weight="bold" font-size="14.00" fill="white">params</text>
<text text-anchor="start" x="149" y="-1354.8" font-family="Arial" font-size="14.00" fill="white">: 587.95K (11.12%)</text>
</g>
<!-- features_6_0&#45;&gt;features_6_1 -->
<g id="edge13" class="edge">
<title>features_6_0&#45;&gt;features_6_1</title>
<path fill="none" stroke="black" stroke-width="2" d="M183,-1445.81C183,-1437.69 183,-1428.85 183,-1420.32"/>
<polygon fill="black" stroke="black" stroke-width="2" points="186.5,-1420.13 183,-1410.13 179.5,-1420.13 186.5,-1420.13"/>
</g>
<!-- features_6_2 -->
<g id="node21" class="node">
<title>features_6_2</title>
<path fill="#7a1869" stroke="#7a1869" d="M268,-1308C268,-1308 98,-1308 98,-1308 92,-1308 86,-1302 86,-1296 86,-1296 86,-1254 86,-1254 86,-1248 92,-1242 98,-1242 98,-1242 268,-1242 268,-1242 274,-1242 280,-1248 280,-1254 280,-1254 280,-1296 280,-1296 280,-1302 274,-1308 268,-1308"/>
<text text-anchor="start" x="115" y="-1282.8" font-family="Arial" font-weight="bold" font-size="24.00" fill="white">features.6.2</text>
<text text-anchor="start" x="100" y="-1252.8" font-family="Arial" font-weight="bold" font-size="14.00" fill="white">params</text>
<text text-anchor="start" x="149" y="-1252.8" font-family="Arial" font-size="14.00" fill="white">: 587.95K (11.12%)</text>
</g>
<!-- features_6_1&#45;&gt;features_6_2 -->
<g id="edge14" class="edge">
<title>features_6_1&#45;&gt;features_6_2</title>
<path fill="none" stroke="black" stroke-width="2" d="M183,-1343.81C183,-1335.69 183,-1326.85 183,-1318.32"/>
<polygon fill="black" stroke="black" stroke-width="2" points="186.5,-1318.13 183,-1308.13 179.5,-1318.13 186.5,-1318.13"/>
</g>
<!-- features_6_3 -->
<g id="node22" class="node">
<title>features_6_3</title>
<path fill="#7a1869" stroke="#7a1869" d="M268,-1206C268,-1206 98,-1206 98,-1206 92,-1206 86,-1200 86,-1194 86,-1194 86,-1152 86,-1152 86,-1146 92,-1140 98,-1140 98,-1140 268,-1140 268,-1140 274,-1140 280,-1146 280,-1152 280,-1152 280,-1194 280,-1194 280,-1200 274,-1206 268,-1206"/>
<text text-anchor="start" x="115" y="-1180.8" font-family="Arial" font-weight="bold" font-size="24.00" fill="white">features.6.3</text>
<text text-anchor="start" x="100" y="-1150.8" font-family="Arial" font-weight="bold" font-size="14.00" fill="white">params</text>
<text text-anchor="start" x="149" y="-1150.8" font-family="Arial" font-size="14.00" fill="white">: 587.95K (11.12%)</text>
</g>
<!-- features_6_2&#45;&gt;features_6_3 -->
<g id="edge23" class="edge">
<title>features_6_2&#45;&gt;features_6_3</title>
<path fill="none" stroke="black" stroke-width="2" d="M183,-1241.81C183,-1233.69 183,-1224.85 183,-1216.32"/>
<polygon fill="black" stroke="black" stroke-width="2" points="186.5,-1216.13 183,-1206.13 179.5,-1216.13 186.5,-1216.13"/>
</g>
<!-- features_6_3&#45;&gt;features_7_0 -->
<g id="edge24" class="edge">
<title>features_6_3&#45;&gt;features_7_0</title>
<path fill="none" stroke="black" stroke-width="2" d="M183,-1140C183,-1127.17 183,-1112.21 183,-1098.49"/>
<polygon fill="black" stroke="black" stroke-width="2" points="186.5,-1098.3 183,-1088.3 179.5,-1098.3 186.5,-1098.3"/>
</g>
<!-- features_3_1 -->
<g id="node23" class="node">
<title>features_3_1</title>
<path fill="#842c5d" stroke="#842c5d" d="M261,-2274C261,-2274 105,-2274 105,-2274 99,-2274 93,-2268 93,-2262 93,-2262 93,-2220 93,-2220 93,-2214 99,-2208 105,-2208 105,-2208 261,-2208 261,-2208 267,-2208 273,-2214 273,-2220 273,-2220 273,-2262 273,-2262 273,-2268 267,-2274 261,-2274"/>
<text text-anchor="start" x="115" y="-2248.8" font-family="Arial" font-weight="bold" font-size="24.00" fill="white">features.3.1</text>
<text text-anchor="start" x="107" y="-2218.8" font-family="Arial" font-weight="bold" font-size="14.00" fill="white">params</text>
<text text-anchor="start" x="156" y="-2218.8" font-family="Arial" font-size="14.00" fill="white">: 31.29K (0.59%)</text>
</g>
<!-- features_3_1&#45;&gt;features_4_0 -->
<g id="edge12" class="edge">
<title>features_3_1&#45;&gt;features_4_0</title>
<path fill="none" stroke="black" stroke-width="2" d="M183,-2208C183,-2195.17 183,-2180.21 183,-2166.49"/>
<polygon fill="black" stroke="black" stroke-width="2" points="186.5,-2166.3 183,-2156.3 179.5,-2166.3 186.5,-2166.3"/>
</g>
<!-- features_3_0&#45;&gt;features_3_1 -->
<g id="edge22" class="edge">
<title>features_3_0&#45;&gt;features_3_1</title>
<path fill="none" stroke="black" stroke-width="2" d="M183,-2309.81C183,-2301.69 183,-2292.85 183,-2284.32"/>
<polygon fill="black" stroke="black" stroke-width="2" points="186.5,-2284.13 183,-2274.13 179.5,-2284.13 186.5,-2284.13"/>
</g>
<!-- x -->
<g id="node25" class="node">
<title>x</title>
<path fill="#000000" stroke="#000000" d="M215.5,-3266C215.5,-3266 150.5,-3266 150.5,-3266 144.5,-3266 138.5,-3260 138.5,-3254 138.5,-3254 138.5,-3226 138.5,-3226 138.5,-3220 144.5,-3214 150.5,-3214 150.5,-3214 215.5,-3214 215.5,-3214 221.5,-3214 227.5,-3220 227.5,-3226 227.5,-3226 227.5,-3254 227.5,-3254 227.5,-3260 221.5,-3266 215.5,-3266"/>
<text text-anchor="start" x="152.5" y="-3240.8" font-family="Arial" font-weight="bold" font-size="24.00" fill="white">Input</text>
<text text-anchor="start" x="179.5" y="-3224.8" font-family="Arial" font-style="italic" font-size="14.00" fill="white">x</text>
</g>
<!-- x&#45;&gt;features_0_0 -->
<g id="edge1" class="edge">
<title>x&#45;&gt;features_0_0</title>
<path fill="none" stroke="black" stroke-width="2" d="M183,-3213.96C183,-3195.23 183,-3168.75 183,-3144.35"/>
<polygon fill="black" stroke="black" stroke-width="2" points="186.5,-3144.04 183,-3134.04 179.5,-3144.04 186.5,-3144.04"/>
</g>
<!-- flatten -->
<g id="node27" class="node">
<title>flatten</title>
<path fill="#b16342" stroke="#b16342" d="M235,-450C235,-450 131,-450 131,-450 125,-450 119,-444 119,-438 119,-438 119,-368 119,-368 119,-362 125,-356 131,-356 131,-356 235,-356 235,-356 241,-356 247,-362 247,-368 247,-368 247,-438 247,-438 247,-444 241,-450 235,-450"/>
<text text-anchor="start" x="146" y="-424.8" font-family="Arial" font-weight="bold" font-size="24.00" fill="white">flatten</text>
<text text-anchor="start" x="164.5" y="-408.8" font-family="Arial" font-style="italic" font-size="14.00" fill="white">flatten</text>
<text text-anchor="start" x="160.5" y="-394.8" font-family="Arial" font-weight="bold" font-size="14.00" fill="white">args</text>
<text text-anchor="start" x="189.5" y="-394.8" font-family="Arial" font-size="14.00" fill="white">: 1</text>
<text text-anchor="start" x="133" y="-366.8" font-family="Arial" font-weight="bold" font-size="14.00" fill="white">src</text>
<text text-anchor="start" x="154" y="-366.8" font-family="Arial" font-size="14.00" fill="white">: torch.flatten</text>
</g>
<!-- avgpool&#45;&gt;flatten -->
<g id="edge8" class="edge">
<title>avgpool&#45;&gt;flatten</title>
<path fill="none" stroke="black" stroke-width="2" d="M183,-485.71C183,-477.58 183,-468.86 183,-460.26"/>
<polygon fill="black" stroke="black" stroke-width="2" points="186.5,-460.25 183,-450.25 179.5,-460.25 186.5,-460.25"/>
</g>
<!-- flatten&#45;&gt;classifier_0 -->
<g id="edge9" class="edge">
<title>flatten&#45;&gt;classifier_0</title>
<path fill="none" stroke="black" stroke-width="2" d="M183,-355.79C183,-344.94 183,-333.34 183,-322.36"/>
<polygon fill="black" stroke="black" stroke-width="2" points="186.5,-322.07 183,-312.07 179.5,-322.07 186.5,-322.07"/>
</g>
</g>
</svg>
