<?xml version="1.0" encoding="UTF-8" standalone="no"?>
<!DOCTYPE svg PUBLIC "-//W3C//DTD SVG 1.1//EN"
 "http://www.w3.org/Graphics/SVG/1.1/DTD/svg11.dtd">
<!-- Generated by graphviz version 2.50.0 (0)
 -->
<!-- Pages: 1 -->
<svg width="338pt" height="696pt"
 viewBox="0.00 0.00 338.00 696.00" xmlns="http://www.w3.org/2000/svg" xmlns:xlink="http://www.w3.org/1999/xlink">
<g id="graph0" class="graph" transform="scale(1 1) rotate(0) translate(4 692)">
<polygon fill="white" stroke="transparent" points="-4,4 -4,-692 334,-692 334,4 -4,4"/>
<text text-anchor="start" x="31" y="-646.6" font-family="Arial" font-weight="bold" font-size="48.00">EfficientNet</text>
<text text-anchor="start" x="20.5" y="-625.8" font-family="Arial" font-weight="bold" font-size="14.00">Source: </text>
<text text-anchor="start" x="75.5" y="-625.8" font-family="Arial" font-size="14.00"> torchvision.models.efficientnet v0.13.1</text>
<text text-anchor="start" x="125" y="-611.8" font-family="Arial" font-weight="bold" font-size="14.00">NNViz </text>
<text text-anchor="start" x="168" y="-611.8" font-family="Arial" font-size="14.00">v0.5.0</text>
<text text-anchor="start" x="163" y="-597.8" font-family="Arial" font-size="14.00"> </text>
<!-- x -->
<g id="node1" class="node">
<title>x</title>
<path fill="#000000" stroke="#000000" d="M197.5,-590C197.5,-590 132.5,-590 132.5,-590 126.5,-590 120.5,-584 120.5,-578 120.5,-578 120.5,-550 120.5,-550 120.5,-544 126.5,-538 132.5,-538 132.5,-538 197.5,-538 197.5,-538 203.5,-538 209.5,-544 209.5,-550 209.5,-550 209.5,-578 209.5,-578 209.5,-584 203.5,-590 197.5,-590"/>
<text text-anchor="start" x="134.5" y="-564.8" font-family="Arial" font-weight="bold" font-size="24.00" fill="white">Input</text>
<text text-anchor="start" x="161.5" y="-548.8" font-family="Arial" font-style="italic" font-size="14.00" fill="white">x</text>
</g>
<!-- features -->
<g id="node2" class="node">
<title>features</title>
<path fill="#7f7f7f" stroke="#7f7f7f" d="M244.5,-502C244.5,-502 85.5,-502 85.5,-502 79.5,-502 73.5,-496 73.5,-490 73.5,-490 73.5,-448 73.5,-448 73.5,-442 79.5,-436 85.5,-436 85.5,-436 244.5,-436 244.5,-436 250.5,-436 256.5,-442 256.5,-448 256.5,-448 256.5,-490 256.5,-490 256.5,-496 250.5,-502 244.5,-502"/>
<text text-anchor="start" x="117.5" y="-476.8" font-family="Arial" font-weight="bold" font-size="24.00" fill="white">features</text>
<text text-anchor="start" x="87.5" y="-446.8" font-family="Arial" font-weight="bold" font-size="14.00" fill="white">params</text>
<text text-anchor="start" x="136.5" y="-446.8" font-family="Arial" font-size="14.00" fill="white">: 4.01M (75.78%)</text>
</g>
<!-- x&#45;&gt;features -->
<g id="edge1" class="edge">
<title>x&#45;&gt;features</title>
<path fill="none" stroke="black" stroke-width="2" d="M165,-537.59C165,-529.7 165,-520.79 165,-512.09"/>
<polygon fill="black" stroke="black" stroke-width="2" points="168.5,-512.04 165,-502.04 161.5,-512.04 168.5,-512.04"/>
</g>
<!-- avgpool -->
<g id="node3" class="node">
<title>avgpool</title>
<path fill="#444380" stroke="#444380" d="M318,-400C318,-400 12,-400 12,-400 6,-400 0,-394 0,-388 0,-388 0,-332 0,-332 0,-326 6,-320 12,-320 12,-320 318,-320 318,-320 324,-320 330,-326 330,-332 330,-332 330,-388 330,-388 330,-394 324,-400 318,-400"/>
<text text-anchor="start" x="50.5" y="-374.8" font-family="Arial" font-weight="bold" font-size="24.00" fill="white">AdaptiveAvgPool2d</text>
<text text-anchor="start" x="141" y="-358.8" font-family="Arial" font-style="italic" font-size="14.00" fill="white">avgpool</text>
<text text-anchor="start" x="14" y="-330.8" font-family="Arial" font-weight="bold" font-size="14.00" fill="white">src</text>
<text text-anchor="start" x="35" y="-330.8" font-family="Arial" font-size="14.00" fill="white">: torch.nn.modules.pooling.AdaptiveAvgPool2d</text>
</g>
<!-- features&#45;&gt;avgpool -->
<g id="edge4" class="edge">
<title>features&#45;&gt;avgpool</title>
<path fill="none" stroke="black" stroke-width="2" d="M165,-435.9C165,-427.84 165,-419.02 165,-410.34"/>
<polygon fill="black" stroke="black" stroke-width="2" points="168.5,-410.27 165,-400.27 161.5,-410.27 168.5,-410.27"/>
</g>
<!-- flatten -->
<g id="node4" class="node">
<title>flatten</title>
<path fill="#b16342" stroke="#b16342" d="M217,-284C217,-284 113,-284 113,-284 107,-284 101,-278 101,-272 101,-272 101,-202 101,-202 101,-196 107,-190 113,-190 113,-190 217,-190 217,-190 223,-190 229,-196 229,-202 229,-202 229,-272 229,-272 229,-278 223,-284 217,-284"/>
<text text-anchor="start" x="128" y="-258.8" font-family="Arial" font-weight="bold" font-size="24.00" fill="white">flatten</text>
<text text-anchor="start" x="146.5" y="-242.8" font-family="Arial" font-style="italic" font-size="14.00" fill="white">flatten</text>
<text text-anchor="start" x="142.5" y="-228.8" font-family="Arial" font-weight="bold" font-size="14.00" fill="white">args</text>
<text text-anchor="start" x="171.5" y="-228.8" font-family="Arial" font-size="14.00" fill="white">: 1</text>
<text text-anchor="start" x="115" y="-200.8" font-family="Arial" font-weight="bold" font-size="14.00" fill="white">src</text>
<text text-anchor="start" x="136" y="-200.8" font-family="Arial" font-size="14.00" fill="white">: torch.flatten</text>
</g>
<!-- avgpool&#45;&gt;flatten -->
<g id="edge2" class="edge">
<title>avgpool&#45;&gt;flatten</title>
<path fill="none" stroke="black" stroke-width="2" d="M165,-319.71C165,-311.58 165,-302.86 165,-294.26"/>
<polygon fill="black" stroke="black" stroke-width="2" points="168.5,-294.25 165,-284.25 161.5,-294.25 168.5,-294.25"/>
</g>
<!-- classifier -->
<g id="node5" class="node">
<title>classifier</title>
<path fill="#7f7f7f" stroke="#7f7f7f" d="M244.5,-154C244.5,-154 85.5,-154 85.5,-154 79.5,-154 73.5,-148 73.5,-142 73.5,-142 73.5,-100 73.5,-100 73.5,-94 79.5,-88 85.5,-88 85.5,-88 244.5,-88 244.5,-88 250.5,-88 256.5,-94 256.5,-100 256.5,-100 256.5,-142 256.5,-142 256.5,-148 250.5,-154 244.5,-154"/>
<text text-anchor="start" x="112" y="-128.8" font-family="Arial" font-weight="bold" font-size="24.00" fill="white">classifier</text>
<text text-anchor="start" x="87.5" y="-98.8" font-family="Arial" font-weight="bold" font-size="14.00" fill="white">params</text>
<text text-anchor="start" x="136.5" y="-98.8" font-family="Arial" font-size="14.00" fill="white">: 1.28M (24.22%)</text>
</g>
<!-- flatten&#45;&gt;classifier -->
<g id="edge3" class="edge">
<title>flatten&#45;&gt;classifier</title>
<path fill="none" stroke="black" stroke-width="2" d="M165,-189.96C165,-181.53 165,-172.77 165,-164.45"/>
<polygon fill="black" stroke="black" stroke-width="2" points="168.5,-164.21 165,-154.21 161.5,-164.21 168.5,-164.21"/>
</g>
<!-- output -->
<g id="node6" class="node">
<title>output</title>
<path fill="#000000" stroke="#000000" d="M207.5,-52C207.5,-52 122.5,-52 122.5,-52 116.5,-52 110.5,-46 110.5,-40 110.5,-40 110.5,-12 110.5,-12 110.5,-6 116.5,0 122.5,0 122.5,0 207.5,0 207.5,0 213.5,0 219.5,-6 219.5,-12 219.5,-12 219.5,-40 219.5,-40 219.5,-46 213.5,-52 207.5,-52"/>
<text text-anchor="start" x="124.5" y="-26.8" font-family="Arial" font-weight="bold" font-size="24.00" fill="white">Output</text>
<text text-anchor="start" x="146" y="-10.8" font-family="Arial" font-style="italic" font-size="14.00" fill="white">output</text>
</g>
<!-- classifier&#45;&gt;output -->
<g id="edge5" class="edge">
<title>classifier&#45;&gt;output</title>
<path fill="none" stroke="black" stroke-width="2" d="M165,-87.99C165,-79.63 165,-70.56 165,-62.05"/>
<polygon fill="black" stroke="black" stroke-width="2" points="168.5,-62.01 165,-52.01 161.5,-62.01 168.5,-62.01"/>
</g>
</g>
</svg>
