<?xml version="1.0" encoding="UTF-8" standalone="no"?>
<!DOCTYPE svg PUBLIC "-//W3C//DTD SVG 1.1//EN"
 "http://www.w3.org/Graphics/SVG/1.1/DTD/svg11.dtd">
<!-- Generated by graphviz version 2.50.0 (0)
 -->
<!-- Pages: 1 -->
<svg width="338pt" height="862pt"
 viewBox="0.00 0.00 338.00 862.00" xmlns="http://www.w3.org/2000/svg" xmlns:xlink="http://www.w3.org/1999/xlink">
<g id="graph0" class="graph" transform="scale(1 1) rotate(0) translate(4 858)">
<polygon fill="white" stroke="transparent" points="-4,4 -4,-858 334,-858 334,4 -4,4"/>
<text text-anchor="start" x="31" y="-812.6" font-family="Arial" font-weight="bold" font-size="48.00">EfficientNet</text>
<text text-anchor="start" x="20.5" y="-791.8" font-family="Arial" font-weight="bold" font-size="14.00">Source: </text>
<text text-anchor="start" x="75.5" y="-791.8" font-family="Arial" font-size="14.00"> torchvision.models.efficientnet v0.13.1</text>
<text text-anchor="start" x="125" y="-777.8" font-family="Arial" font-weight="bold" font-size="14.00">NNViz </text>
<text text-anchor="start" x="168" y="-777.8" font-family="Arial" font-size="14.00">v0.5.0</text>
<text text-anchor="start" x="163" y="-763.8" font-family="Arial" font-size="14.00"> </text>
<g id="clust1" class="cluster">
<title>cluster_classifier</title>
<path fill="#e7e7e7" stroke="black" d="M37,-80C37,-80 293,-80 293,-80 299,-80 305,-86 305,-92 305,-92 305,-336 305,-336 305,-342 299,-348 293,-348 293,-348 37,-348 37,-348 31,-348 25,-342 25,-336 25,-336 25,-92 25,-92 25,-86 31,-80 37,-80"/>
<text text-anchor="start" x="33" y="-330.6" font-family="Arial" font-weight="bold" font-size="18.00">classifier</text>
</g>
<!-- classifier_0 -->
<g id="node1" class="node">
<title>classifier_0</title>
<path fill="#52406b" stroke="#52406b" d="M284.5,-312C284.5,-312 45.5,-312 45.5,-312 39.5,-312 33.5,-306 33.5,-300 33.5,-300 33.5,-244 33.5,-244 33.5,-238 39.5,-232 45.5,-232 45.5,-232 284.5,-232 284.5,-232 290.5,-232 296.5,-238 296.5,-244 296.5,-244 296.5,-300 296.5,-300 296.5,-306 290.5,-312 284.5,-312"/>
<text text-anchor="start" x="117.5" y="-286.8" font-family="Arial" font-weight="bold" font-size="24.00" fill="white">Dropout</text>
<text text-anchor="start" x="133" y="-270.8" font-family="Arial" font-style="italic" font-size="14.00" fill="white">classifier.0</text>
<text text-anchor="start" x="47.5" y="-242.8" font-family="Arial" font-weight="bold" font-size="14.00" fill="white">src</text>
<text text-anchor="start" x="68.5" y="-242.8" font-family="Arial" font-size="14.00" fill="white">: torch.nn.modules.dropout.Dropout</text>
</g>
<!-- classifier_1 -->
<g id="node2" class="node">
<title>classifier_1</title>
<path fill="#555580" stroke="#555580" d="M272.5,-196C272.5,-196 57.5,-196 57.5,-196 51.5,-196 45.5,-190 45.5,-184 45.5,-184 45.5,-100 45.5,-100 45.5,-94 51.5,-88 57.5,-88 57.5,-88 272.5,-88 272.5,-88 278.5,-88 284.5,-94 284.5,-100 284.5,-100 284.5,-184 284.5,-184 284.5,-190 278.5,-196 272.5,-196"/>
<text text-anchor="start" x="128.5" y="-170.8" font-family="Arial" font-weight="bold" font-size="24.00" fill="white">Linear</text>
<text text-anchor="start" x="133" y="-154.8" font-family="Arial" font-style="italic" font-size="14.00" fill="white">classifier.1</text>
<text text-anchor="start" x="87.5" y="-126.8" font-family="Arial" font-weight="bold" font-size="14.00" fill="white">params</text>
<text text-anchor="start" x="136.5" y="-126.8" font-family="Arial" font-size="14.00" fill="white">: 1.28M (24.22%)</text>
<text text-anchor="start" x="59.5" y="-98.8" font-family="Arial" font-weight="bold" font-size="14.00" fill="white">src</text>
<text text-anchor="start" x="80.5" y="-98.8" font-family="Arial" font-size="14.00" fill="white">: torch.nn.modules.linear.Linear</text>
</g>
<!-- classifier_0&#45;&gt;classifier_1 -->
<g id="edge4" class="edge">
<title>classifier_0&#45;&gt;classifier_1</title>
<path fill="none" stroke="black" stroke-width="2" d="M165,-231.9C165,-223.76 165,-214.99 165,-206.23"/>
<polygon fill="black" stroke="black" stroke-width="2" points="168.5,-206 165,-196 161.5,-206 168.5,-206"/>
</g>
<!-- output -->
<g id="node7" class="node">
<title>output</title>
<path fill="#000000" stroke="#000000" d="M207.5,-52C207.5,-52 122.5,-52 122.5,-52 116.5,-52 110.5,-46 110.5,-40 110.5,-40 110.5,-12 110.5,-12 110.5,-6 116.5,0 122.5,0 122.5,0 207.5,0 207.5,0 213.5,0 219.5,-6 219.5,-12 219.5,-12 219.5,-40 219.5,-40 219.5,-46 213.5,-52 207.5,-52"/>
<text text-anchor="start" x="124.5" y="-26.8" font-family="Arial" font-weight="bold" font-size="24.00" fill="white">Output</text>
<text text-anchor="start" x="146" y="-10.8" font-family="Arial" font-style="italic" font-size="14.00" fill="white">output</text>
</g>
<!-- classifier_1&#45;&gt;output -->
<g id="edge5" class="edge">
<title>classifier_1&#45;&gt;output</title>
<path fill="none" stroke="black" stroke-width="2" d="M165,-87.67C165,-79.05 165,-70.31 165,-62.26"/>
<polygon fill="black" stroke="black" stroke-width="2" points="168.5,-62.13 165,-52.13 161.5,-62.13 168.5,-62.13"/>
</g>
<!-- x -->
<g id="node3" class="node">
<title>x</title>
<path fill="#000000" stroke="#000000" d="M197.5,-756C197.5,-756 132.5,-756 132.5,-756 126.5,-756 120.5,-750 120.5,-744 120.5,-744 120.5,-716 120.5,-716 120.5,-710 126.5,-704 132.5,-704 132.5,-704 197.5,-704 197.5,-704 203.5,-704 209.5,-710 209.5,-716 209.5,-716 209.5,-744 209.5,-744 209.5,-750 203.5,-756 197.5,-756"/>
<text text-anchor="start" x="134.5" y="-730.8" font-family="Arial" font-weight="bold" font-size="24.00" fill="white">Input</text>
<text text-anchor="start" x="161.5" y="-714.8" font-family="Arial" font-style="italic" font-size="14.00" fill="white">x</text>
</g>
<!-- features -->
<g id="node4" class="node">
<title>features</title>
<path fill="#7f7f7f" stroke="#7f7f7f" d="M244.5,-668C244.5,-668 85.5,-668 85.5,-668 79.5,-668 73.5,-662 73.5,-656 73.5,-656 73.5,-614 73.5,-614 73.5,-608 79.5,-602 85.5,-602 85.5,-602 244.5,-602 244.5,-602 250.5,-602 256.5,-608 256.5,-614 256.5,-614 256.5,-656 256.5,-656 256.5,-662 250.5,-668 244.5,-668"/>
<text text-anchor="start" x="117.5" y="-642.8" font-family="Arial" font-weight="bold" font-size="24.00" fill="white">features</text>
<text text-anchor="start" x="87.5" y="-612.8" font-family="Arial" font-weight="bold" font-size="14.00" fill="white">params</text>
<text text-anchor="start" x="136.5" y="-612.8" font-family="Arial" font-size="14.00" fill="white">: 4.01M (75.78%)</text>
</g>
<!-- x&#45;&gt;features -->
<g id="edge1" class="edge">
<title>x&#45;&gt;features</title>
<path fill="none" stroke="black" stroke-width="2" d="M165,-703.59C165,-695.7 165,-686.79 165,-678.09"/>
<polygon fill="black" stroke="black" stroke-width="2" points="168.5,-678.04 165,-668.04 161.5,-678.04 168.5,-678.04"/>
</g>
<!-- avgpool -->
<g id="node5" class="node">
<title>avgpool</title>
<path fill="#444380" stroke="#444380" d="M318,-566C318,-566 12,-566 12,-566 6,-566 0,-560 0,-554 0,-554 0,-498 0,-498 0,-492 6,-486 12,-486 12,-486 318,-486 318,-486 324,-486 330,-492 330,-498 330,-498 330,-554 330,-554 330,-560 324,-566 318,-566"/>
<text text-anchor="start" x="50.5" y="-540.8" font-family="Arial" font-weight="bold" font-size="24.00" fill="white">AdaptiveAvgPool2d</text>
<text text-anchor="start" x="141" y="-524.8" font-family="Arial" font-style="italic" font-size="14.00" fill="white">avgpool</text>
<text text-anchor="start" x="14" y="-496.8" font-family="Arial" font-weight="bold" font-size="14.00" fill="white">src</text>
<text text-anchor="start" x="35" y="-496.8" font-family="Arial" font-size="14.00" fill="white">: torch.nn.modules.pooling.AdaptiveAvgPool2d</text>
</g>
<!-- features&#45;&gt;avgpool -->
<g id="edge6" class="edge">
<title>features&#45;&gt;avgpool</title>
<path fill="none" stroke="black" stroke-width="2" d="M165,-601.9C165,-593.84 165,-585.02 165,-576.34"/>
<polygon fill="black" stroke="black" stroke-width="2" points="168.5,-576.27 165,-566.27 161.5,-576.27 168.5,-576.27"/>
</g>
<!-- flatten -->
<g id="node6" class="node">
<title>flatten</title>
<path fill="#b16342" stroke="#b16342" d="M217,-450C217,-450 113,-450 113,-450 107,-450 101,-444 101,-438 101,-438 101,-368 101,-368 101,-362 107,-356 113,-356 113,-356 217,-356 217,-356 223,-356 229,-362 229,-368 229,-368 229,-438 229,-438 229,-444 223,-450 217,-450"/>
<text text-anchor="start" x="128" y="-424.8" font-family="Arial" font-weight="bold" font-size="24.00" fill="white">flatten</text>
<text text-anchor="start" x="146.5" y="-408.8" font-family="Arial" font-style="italic" font-size="14.00" fill="white">flatten</text>
<text text-anchor="start" x="142.5" y="-394.8" font-family="Arial" font-weight="bold" font-size="14.00" fill="white">args</text>
<text text-anchor="start" x="171.5" y="-394.8" font-family="Arial" font-size="14.00" fill="white">: 1</text>
<text text-anchor="start" x="115" y="-366.8" font-family="Arial" font-weight="bold" font-size="14.00" fill="white">src</text>
<text text-anchor="start" x="136" y="-366.8" font-family="Arial" font-size="14.00" fill="white">: torch.flatten</text>
</g>
<!-- avgpool&#45;&gt;flatten -->
<g id="edge2" class="edge">
<title>avgpool&#45;&gt;flatten</title>
<path fill="none" stroke="black" stroke-width="2" d="M165,-485.71C165,-477.58 165,-468.86 165,-460.26"/>
<polygon fill="black" stroke="black" stroke-width="2" points="168.5,-460.25 165,-450.25 161.5,-460.25 168.5,-460.25"/>
</g>
<!-- flatten&#45;&gt;classifier_0 -->
<g id="edge3" class="edge">
<title>flatten&#45;&gt;classifier_0</title>
<path fill="none" stroke="black" stroke-width="2" d="M165,-355.79C165,-344.94 165,-333.34 165,-322.36"/>
<polygon fill="black" stroke="black" stroke-width="2" points="168.5,-322.07 165,-312.07 161.5,-322.07 168.5,-322.07"/>
</g>
</g>
</svg>
