<?xml version="1.0" encoding="UTF-8" standalone="no"?>
<!DOCTYPE svg PUBLIC "-//W3C//DTD SVG 1.1//EN"
 "http://www.w3.org/Graphics/SVG/1.1/DTD/svg11.dtd">
<!-- Generated by graphviz version 2.50.0 (0)
 -->
<!-- Pages: 1 -->
<svg width="338pt" height="1686pt"
 viewBox="0.00 0.00 338.00 1686.00" xmlns="http://www.w3.org/2000/svg" xmlns:xlink="http://www.w3.org/1999/xlink">
<g id="graph0" class="graph" transform="scale(1 1) rotate(0) translate(4 1682)">
<polygon fill="white" stroke="transparent" points="-4,4 -4,-1682 334,-1682 334,4 -4,4"/>
<text text-anchor="start" x="31" y="-1636.6" font-family="Arial" font-weight="bold" font-size="48.00">EfficientNet</text>
<text text-anchor="start" x="20.5" y="-1615.8" font-family="Arial" font-weight="bold" font-size="14.00">Source: </text>
<text text-anchor="start" x="75.5" y="-1615.8" font-family="Arial" font-size="14.00"> torchvision.models.efficientnet v0.13.1</text>
<text text-anchor="start" x="125" y="-1601.8" font-family="Arial" font-weight="bold" font-size="14.00">NNViz </text>
<text text-anchor="start" x="168" y="-1601.8" font-family="Arial" font-size="14.00">v0.5.0</text>
<text text-anchor="start" x="163" y="-1587.8" font-family="Arial" font-size="14.00"> </text>
<g id="clust2" class="cluster">
<title>cluster_features</title>
<path fill="#e7e7e7" stroke="black" d="M71,-594C71,-594 259,-594 259,-594 265,-594 271,-600 271,-606 271,-606 271,-1508 271,-1508 271,-1514 265,-1520 259,-1520 259,-1520 71,-1520 71,-1520 65,-1520 59,-1514 59,-1508 59,-1508 59,-606 59,-606 59,-600 65,-594 71,-594"/>
<text text-anchor="start" x="67" y="-1502.6" font-family="Arial" font-weight="bold" font-size="18.00">features</text>
</g>
<g id="clust1" class="cluster">
<title>cluster_classifier</title>
<path fill="#e7e7e7" stroke="black" d="M37,-80C37,-80 293,-80 293,-80 299,-80 305,-86 305,-92 305,-92 305,-336 305,-336 305,-342 299,-348 293,-348 293,-348 37,-348 37,-348 31,-348 25,-342 25,-336 25,-336 25,-92 25,-92 25,-86 31,-80 37,-80"/>
<text text-anchor="start" x="33" y="-330.6" font-family="Arial" font-weight="bold" font-size="18.00">classifier</text>
</g>
<!-- classifier_0 -->
<g id="node1" class="node">
<title>classifier_0</title>
<path fill="#52406b" stroke="#52406b" d="M284.5,-312C284.5,-312 45.5,-312 45.5,-312 39.5,-312 33.5,-306 33.5,-300 33.5,-300 33.5,-244 33.5,-244 33.5,-238 39.5,-232 45.5,-232 45.5,-232 284.5,-232 284.5,-232 290.5,-232 296.5,-238 296.5,-244 296.5,-244 296.5,-300 296.5,-300 296.5,-306 290.5,-312 284.5,-312"/>
<text text-anchor="start" x="117.5" y="-286.8" font-family="Arial" font-weight="bold" font-size="24.00" fill="white">Dropout</text>
<text text-anchor="start" x="133" y="-270.8" font-family="Arial" font-style="italic" font-size="14.00" fill="white">classifier.0</text>
<text text-anchor="start" x="47.5" y="-242.8" font-family="Arial" font-weight="bold" font-size="14.00" fill="white">src</text>
<text text-anchor="start" x="68.5" y="-242.8" font-family="Arial" font-size="14.00" fill="white">: torch.nn.modules.dropout.Dropout</text>
</g>
<!-- classifier_1 -->
<g id="node2" class="node">
<title>classifier_1</title>
<path fill="#555580" stroke="#555580" d="M272.5,-196C272.5,-196 57.5,-196 57.5,-196 51.5,-196 45.5,-190 45.5,-184 45.5,-184 45.5,-100 45.5,-100 45.5,-94 51.5,-88 57.5,-88 57.5,-88 272.5,-88 272.5,-88 278.5,-88 284.5,-94 284.5,-100 284.5,-100 284.5,-184 284.5,-184 284.5,-190 278.5,-196 272.5,-196"/>
<text text-anchor="start" x="128.5" y="-170.8" font-family="Arial" font-weight="bold" font-size="24.00" fill="white">Linear</text>
<text text-anchor="start" x="133" y="-154.8" font-family="Arial" font-style="italic" font-size="14.00" fill="white">classifier.1</text>
<text text-anchor="start" x="87.5" y="-126.8" font-family="Arial" font-weight="bold" font-size="14.00" fill="white">params</text>
<text text-anchor="start" x="136.5" y="-126.8" font-family="Arial" font-size="14.00" fill="white">: 1.28M (24.22%)</text>
<text text-anchor="start" x="59.5" y="-98.8" font-family="Arial" font-weight="bold" font-size="14.00" fill="white">src</text>
<text text-anchor="start" x="80.5" y="-98.8" font-family="Arial" font-size="14.00" fill="white">: torch.nn.modules.linear.Linear</text>
</g>
<!-- classifier_0&#45;&gt;classifier_1 -->
<g id="edge4" class="edge">
<title>classifier_0&#45;&gt;classifier_1</title>
<path fill="none" stroke="black" stroke-width="2" d="M165,-231.9C165,-223.76 165,-214.99 165,-206.23"/>
<polygon fill="black" stroke="black" stroke-width="2" points="168.5,-206 165,-196 161.5,-206 168.5,-206"/>
</g>
<!-- output -->
<g id="node15" class="node">
<title>output</title>
<path fill="#000000" stroke="#000000" d="M207.5,-52C207.5,-52 122.5,-52 122.5,-52 116.5,-52 110.5,-46 110.5,-40 110.5,-40 110.5,-12 110.5,-12 110.5,-6 116.5,0 122.5,0 122.5,0 207.5,0 207.5,0 213.5,0 219.5,-6 219.5,-12 219.5,-12 219.5,-40 219.5,-40 219.5,-46 213.5,-52 207.5,-52"/>
<text text-anchor="start" x="124.5" y="-26.8" font-family="Arial" font-weight="bold" font-size="24.00" fill="white">Output</text>
<text text-anchor="start" x="146" y="-10.8" font-family="Arial" font-style="italic" font-size="14.00" fill="white">output</text>
</g>
<!-- classifier_1&#45;&gt;output -->
<g id="edge5" class="edge">
<title>classifier_1&#45;&gt;output</title>
<path fill="none" stroke="black" stroke-width="2" d="M165,-87.67C165,-79.05 165,-70.31 165,-62.26"/>
<polygon fill="black" stroke="black" stroke-width="2" points="168.5,-62.13 165,-52.13 161.5,-62.13 168.5,-62.13"/>
</g>
<!-- features_7 -->
<g id="node3" class="node">
<title>features_7</title>
<path fill="#842c5d" stroke="#842c5d" d="M250.5,-770C250.5,-770 79.5,-770 79.5,-770 73.5,-770 67.5,-764 67.5,-758 67.5,-758 67.5,-716 67.5,-716 67.5,-710 73.5,-704 79.5,-704 79.5,-704 250.5,-704 250.5,-704 256.5,-704 262.5,-710 262.5,-716 262.5,-716 262.5,-758 262.5,-758 262.5,-764 256.5,-770 250.5,-770"/>
<text text-anchor="start" x="107.5" y="-744.8" font-family="Arial" font-weight="bold" font-size="24.00" fill="white">features.7</text>
<text text-anchor="start" x="81.5" y="-714.8" font-family="Arial" font-weight="bold" font-size="14.00" fill="white">params</text>
<text text-anchor="start" x="130.5" y="-714.8" font-family="Arial" font-size="14.00" fill="white">: 717.23K (13.56%)</text>
</g>
<!-- features_8 -->
<g id="node7" class="node">
<title>features_8</title>
<path fill="#842c5d" stroke="#842c5d" d="M246.5,-668C246.5,-668 83.5,-668 83.5,-668 77.5,-668 71.5,-662 71.5,-656 71.5,-656 71.5,-614 71.5,-614 71.5,-608 77.5,-602 83.5,-602 83.5,-602 246.5,-602 246.5,-602 252.5,-602 258.5,-608 258.5,-614 258.5,-614 258.5,-656 258.5,-656 258.5,-662 252.5,-668 246.5,-668"/>
<text text-anchor="start" x="107.5" y="-642.8" font-family="Arial" font-weight="bold" font-size="24.00" fill="white">features.8</text>
<text text-anchor="start" x="85.5" y="-612.8" font-family="Arial" font-weight="bold" font-size="14.00" fill="white">params</text>
<text text-anchor="start" x="134.5" y="-612.8" font-family="Arial" font-size="14.00" fill="white">: 412.16K (7.79%)</text>
</g>
<!-- features_7&#45;&gt;features_8 -->
<g id="edge6" class="edge">
<title>features_7&#45;&gt;features_8</title>
<path fill="none" stroke="black" stroke-width="2" d="M165,-703.81C165,-695.69 165,-686.85 165,-678.32"/>
<polygon fill="black" stroke="black" stroke-width="2" points="168.5,-678.13 165,-668.13 161.5,-678.13 168.5,-678.13"/>
</g>
<!-- features_4 -->
<g id="node4" class="node">
<title>features_4</title>
<path fill="#842c5d" stroke="#842c5d" d="M246.5,-1076C246.5,-1076 83.5,-1076 83.5,-1076 77.5,-1076 71.5,-1070 71.5,-1064 71.5,-1064 71.5,-1022 71.5,-1022 71.5,-1016 77.5,-1010 83.5,-1010 83.5,-1010 246.5,-1010 246.5,-1010 252.5,-1010 258.5,-1016 258.5,-1022 258.5,-1022 258.5,-1064 258.5,-1064 258.5,-1070 252.5,-1076 246.5,-1076"/>
<text text-anchor="start" x="107.5" y="-1050.8" font-family="Arial" font-weight="bold" font-size="24.00" fill="white">features.4</text>
<text text-anchor="start" x="85.5" y="-1020.8" font-family="Arial" font-weight="bold" font-size="14.00" fill="white">params</text>
<text text-anchor="start" x="134.5" y="-1020.8" font-family="Arial" font-size="14.00" fill="white">: 242.93K (4.59%)</text>
</g>
<!-- features_5 -->
<g id="node11" class="node">
<title>features_5</title>
<path fill="#842c5d" stroke="#842c5d" d="M250.5,-974C250.5,-974 79.5,-974 79.5,-974 73.5,-974 67.5,-968 67.5,-962 67.5,-962 67.5,-920 67.5,-920 67.5,-914 73.5,-908 79.5,-908 79.5,-908 250.5,-908 250.5,-908 256.5,-908 262.5,-914 262.5,-920 262.5,-920 262.5,-962 262.5,-962 262.5,-968 256.5,-974 250.5,-974"/>
<text text-anchor="start" x="107.5" y="-948.8" font-family="Arial" font-weight="bold" font-size="24.00" fill="white">features.5</text>
<text text-anchor="start" x="81.5" y="-918.8" font-family="Arial" font-weight="bold" font-size="14.00" fill="white">params</text>
<text text-anchor="start" x="130.5" y="-918.8" font-family="Arial" font-size="14.00" fill="white">: 543.15K (10.27%)</text>
</g>
<!-- features_4&#45;&gt;features_5 -->
<g id="edge7" class="edge">
<title>features_4&#45;&gt;features_5</title>
<path fill="none" stroke="black" stroke-width="2" d="M165,-1009.81C165,-1001.69 165,-992.85 165,-984.32"/>
<polygon fill="black" stroke="black" stroke-width="2" points="168.5,-984.13 165,-974.13 161.5,-984.13 168.5,-984.13"/>
</g>
<!-- features_2 -->
<g id="node5" class="node">
<title>features_2</title>
<path fill="#842c5d" stroke="#842c5d" d="M243,-1280C243,-1280 87,-1280 87,-1280 81,-1280 75,-1274 75,-1268 75,-1268 75,-1226 75,-1226 75,-1220 81,-1214 87,-1214 87,-1214 243,-1214 243,-1214 249,-1214 255,-1220 255,-1226 255,-1226 255,-1268 255,-1268 255,-1274 249,-1280 243,-1280"/>
<text text-anchor="start" x="107.5" y="-1254.8" font-family="Arial" font-weight="bold" font-size="24.00" fill="white">features.2</text>
<text text-anchor="start" x="89" y="-1224.8" font-family="Arial" font-weight="bold" font-size="14.00" fill="white">params</text>
<text text-anchor="start" x="138" y="-1224.8" font-family="Arial" font-size="14.00" fill="white">: 16.71K (0.32%)</text>
</g>
<!-- features_3 -->
<g id="node6" class="node">
<title>features_3</title>
<path fill="#842c5d" stroke="#842c5d" d="M243,-1178C243,-1178 87,-1178 87,-1178 81,-1178 75,-1172 75,-1166 75,-1166 75,-1124 75,-1124 75,-1118 81,-1112 87,-1112 87,-1112 243,-1112 243,-1112 249,-1112 255,-1118 255,-1124 255,-1124 255,-1166 255,-1166 255,-1172 249,-1178 243,-1178"/>
<text text-anchor="start" x="107.5" y="-1152.8" font-family="Arial" font-weight="bold" font-size="24.00" fill="white">features.3</text>
<text text-anchor="start" x="89" y="-1122.8" font-family="Arial" font-weight="bold" font-size="14.00" fill="white">params</text>
<text text-anchor="start" x="138" y="-1122.8" font-family="Arial" font-size="14.00" fill="white">: 46.64K (0.88%)</text>
</g>
<!-- features_2&#45;&gt;features_3 -->
<g id="edge8" class="edge">
<title>features_2&#45;&gt;features_3</title>
<path fill="none" stroke="black" stroke-width="2" d="M165,-1213.81C165,-1205.69 165,-1196.85 165,-1188.32"/>
<polygon fill="black" stroke="black" stroke-width="2" points="168.5,-1188.13 165,-1178.13 161.5,-1188.13 168.5,-1188.13"/>
</g>
<!-- features_3&#45;&gt;features_4 -->
<g id="edge9" class="edge">
<title>features_3&#45;&gt;features_4</title>
<path fill="none" stroke="black" stroke-width="2" d="M165,-1111.81C165,-1103.69 165,-1094.85 165,-1086.32"/>
<polygon fill="black" stroke="black" stroke-width="2" points="168.5,-1086.13 165,-1076.13 161.5,-1086.13 168.5,-1086.13"/>
</g>
<!-- avgpool -->
<g id="node13" class="node">
<title>avgpool</title>
<path fill="#444380" stroke="#444380" d="M318,-566C318,-566 12,-566 12,-566 6,-566 0,-560 0,-554 0,-554 0,-498 0,-498 0,-492 6,-486 12,-486 12,-486 318,-486 318,-486 324,-486 330,-492 330,-498 330,-498 330,-554 330,-554 330,-560 324,-566 318,-566"/>
<text text-anchor="start" x="50.5" y="-540.8" font-family="Arial" font-weight="bold" font-size="24.00" fill="white">AdaptiveAvgPool2d</text>
<text text-anchor="start" x="141" y="-524.8" font-family="Arial" font-style="italic" font-size="14.00" fill="white">avgpool</text>
<text text-anchor="start" x="14" y="-496.8" font-family="Arial" font-weight="bold" font-size="14.00" fill="white">src</text>
<text text-anchor="start" x="35" y="-496.8" font-family="Arial" font-size="14.00" fill="white">: torch.nn.modules.pooling.AdaptiveAvgPool2d</text>
</g>
<!-- features_8&#45;&gt;avgpool -->
<g id="edge10" class="edge">
<title>features_8&#45;&gt;avgpool</title>
<path fill="none" stroke="black" stroke-width="2" d="M165,-601.9C165,-593.84 165,-585.02 165,-576.34"/>
<polygon fill="black" stroke="black" stroke-width="2" points="168.5,-576.27 165,-566.27 161.5,-576.27 168.5,-576.27"/>
</g>
<!-- features_0 -->
<g id="node8" class="node">
<title>features_0</title>
<path fill="#842c5d" stroke="#842c5d" d="M232.5,-1484C232.5,-1484 97.5,-1484 97.5,-1484 91.5,-1484 85.5,-1478 85.5,-1472 85.5,-1472 85.5,-1430 85.5,-1430 85.5,-1424 91.5,-1418 97.5,-1418 97.5,-1418 232.5,-1418 232.5,-1418 238.5,-1418 244.5,-1424 244.5,-1430 244.5,-1430 244.5,-1472 244.5,-1472 244.5,-1478 238.5,-1484 232.5,-1484"/>
<text text-anchor="start" x="107.5" y="-1458.8" font-family="Arial" font-weight="bold" font-size="24.00" fill="white">features.0</text>
<text text-anchor="start" x="99.5" y="-1428.8" font-family="Arial" font-weight="bold" font-size="14.00" fill="white">params</text>
<text text-anchor="start" x="148.5" y="-1428.8" font-family="Arial" font-size="14.00" fill="white">: 928 (0.02%)</text>
</g>
<!-- features_1 -->
<g id="node10" class="node">
<title>features_1</title>
<path fill="#842c5d" stroke="#842c5d" d="M239,-1382C239,-1382 91,-1382 91,-1382 85,-1382 79,-1376 79,-1370 79,-1370 79,-1328 79,-1328 79,-1322 85,-1316 91,-1316 91,-1316 239,-1316 239,-1316 245,-1316 251,-1322 251,-1328 251,-1328 251,-1370 251,-1370 251,-1376 245,-1382 239,-1382"/>
<text text-anchor="start" x="107.5" y="-1356.8" font-family="Arial" font-weight="bold" font-size="24.00" fill="white">features.1</text>
<text text-anchor="start" x="93" y="-1326.8" font-family="Arial" font-weight="bold" font-size="14.00" fill="white">params</text>
<text text-anchor="start" x="142" y="-1326.8" font-family="Arial" font-size="14.00" fill="white">: 1.45K (0.03%)</text>
</g>
<!-- features_0&#45;&gt;features_1 -->
<g id="edge11" class="edge">
<title>features_0&#45;&gt;features_1</title>
<path fill="none" stroke="black" stroke-width="2" d="M165,-1417.81C165,-1409.69 165,-1400.85 165,-1392.32"/>
<polygon fill="black" stroke="black" stroke-width="2" points="168.5,-1392.13 165,-1382.13 161.5,-1392.13 168.5,-1392.13"/>
</g>
<!-- features_6 -->
<g id="node9" class="node">
<title>features_6</title>
<path fill="#842c5d" stroke="#842c5d" d="M244.5,-872C244.5,-872 85.5,-872 85.5,-872 79.5,-872 73.5,-866 73.5,-860 73.5,-860 73.5,-818 73.5,-818 73.5,-812 79.5,-806 85.5,-806 85.5,-806 244.5,-806 244.5,-806 250.5,-806 256.5,-812 256.5,-818 256.5,-818 256.5,-860 256.5,-860 256.5,-866 250.5,-872 244.5,-872"/>
<text text-anchor="start" x="107.5" y="-846.8" font-family="Arial" font-weight="bold" font-size="24.00" fill="white">features.6</text>
<text text-anchor="start" x="87.5" y="-816.8" font-family="Arial" font-weight="bold" font-size="14.00" fill="white">params</text>
<text text-anchor="start" x="136.5" y="-816.8" font-family="Arial" font-size="14.00" fill="white">: 2.03M (38.32%)</text>
</g>
<!-- features_6&#45;&gt;features_7 -->
<g id="edge12" class="edge">
<title>features_6&#45;&gt;features_7</title>
<path fill="none" stroke="black" stroke-width="2" d="M165,-805.81C165,-797.69 165,-788.85 165,-780.32"/>
<polygon fill="black" stroke="black" stroke-width="2" points="168.5,-780.13 165,-770.13 161.5,-780.13 168.5,-780.13"/>
</g>
<!-- features_1&#45;&gt;features_2 -->
<g id="edge13" class="edge">
<title>features_1&#45;&gt;features_2</title>
<path fill="none" stroke="black" stroke-width="2" d="M165,-1315.81C165,-1307.69 165,-1298.85 165,-1290.32"/>
<polygon fill="black" stroke="black" stroke-width="2" points="168.5,-1290.13 165,-1280.13 161.5,-1290.13 168.5,-1290.13"/>
</g>
<!-- features_5&#45;&gt;features_6 -->
<g id="edge14" class="edge">
<title>features_5&#45;&gt;features_6</title>
<path fill="none" stroke="black" stroke-width="2" d="M165,-907.81C165,-899.69 165,-890.85 165,-882.32"/>
<polygon fill="black" stroke="black" stroke-width="2" points="168.5,-882.13 165,-872.13 161.5,-882.13 168.5,-882.13"/>
</g>
<!-- x -->
<g id="node12" class="node">
<title>x</title>
<path fill="#000000" stroke="#000000" d="M197.5,-1580C197.5,-1580 132.5,-1580 132.5,-1580 126.5,-1580 120.5,-1574 120.5,-1568 120.5,-1568 120.5,-1540 120.5,-1540 120.5,-1534 126.5,-1528 132.5,-1528 132.5,-1528 197.5,-1528 197.5,-1528 203.5,-1528 209.5,-1534 209.5,-1540 209.5,-1540 209.5,-1568 209.5,-1568 209.5,-1574 203.5,-1580 197.5,-1580"/>
<text text-anchor="start" x="134.5" y="-1554.8" font-family="Arial" font-weight="bold" font-size="24.00" fill="white">Input</text>
<text text-anchor="start" x="161.5" y="-1538.8" font-family="Arial" font-style="italic" font-size="14.00" fill="white">x</text>
</g>
<!-- x&#45;&gt;features_0 -->
<g id="edge1" class="edge">
<title>x&#45;&gt;features_0</title>
<path fill="none" stroke="black" stroke-width="2" d="M165,-1527.77C165,-1517.66 165,-1505.73 165,-1494.37"/>
<polygon fill="black" stroke="black" stroke-width="2" points="168.5,-1494.16 165,-1484.16 161.5,-1494.16 168.5,-1494.16"/>
</g>
<!-- flatten -->
<g id="node14" class="node">
<title>flatten</title>
<path fill="#b16342" stroke="#b16342" d="M217,-450C217,-450 113,-450 113,-450 107,-450 101,-444 101,-438 101,-438 101,-368 101,-368 101,-362 107,-356 113,-356 113,-356 217,-356 217,-356 223,-356 229,-362 229,-368 229,-368 229,-438 229,-438 229,-444 223,-450 217,-450"/>
<text text-anchor="start" x="128" y="-424.8" font-family="Arial" font-weight="bold" font-size="24.00" fill="white">flatten</text>
<text text-anchor="start" x="146.5" y="-408.8" font-family="Arial" font-style="italic" font-size="14.00" fill="white">flatten</text>
<text text-anchor="start" x="142.5" y="-394.8" font-family="Arial" font-weight="bold" font-size="14.00" fill="white">args</text>
<text text-anchor="start" x="171.5" y="-394.8" font-family="Arial" font-size="14.00" fill="white">: 1</text>
<text text-anchor="start" x="115" y="-366.8" font-family="Arial" font-weight="bold" font-size="14.00" fill="white">src</text>
<text text-anchor="start" x="136" y="-366.8" font-family="Arial" font-size="14.00" fill="white">: torch.flatten</text>
</g>
<!-- avgpool&#45;&gt;flatten -->
<g id="edge2" class="edge">
<title>avgpool&#45;&gt;flatten</title>
<path fill="none" stroke="black" stroke-width="2" d="M165,-485.71C165,-477.58 165,-468.86 165,-460.26"/>
<polygon fill="black" stroke="black" stroke-width="2" points="168.5,-460.25 165,-450.25 161.5,-460.25 168.5,-460.25"/>
</g>
<!-- flatten&#45;&gt;classifier_0 -->
<g id="edge3" class="edge">
<title>flatten&#45;&gt;classifier_0</title>
<path fill="none" stroke="black" stroke-width="2" d="M165,-355.79C165,-344.94 165,-333.34 165,-322.36"/>
<polygon fill="black" stroke="black" stroke-width="2" points="168.5,-322.07 165,-312.07 161.5,-322.07 168.5,-322.07"/>
</g>
</g>
</svg>
