<?xml version="1.0" encoding="UTF-8" standalone="no"?>
<!DOCTYPE svg PUBLIC "-//W3C//DTD SVG 1.1//EN"
 "http://www.w3.org/Graphics/SVG/1.1/DTD/svg11.dtd">
<!-- Generated by graphviz version 2.50.0 (0)
 -->
<!-- Pages: 1 -->
<svg width="677pt" height="1178pt"
 viewBox="0.00 0.00 676.50 1178.00" xmlns="http://www.w3.org/2000/svg" xmlns:xlink="http://www.w3.org/1999/xlink">
<g id="graph0" class="graph" transform="scale(1 1) rotate(0) translate(4 1174)">
<polygon fill="white" stroke="transparent" points="-4,4 -4,-1174 672.5,-1174 672.5,4 -4,4"/>
<text text-anchor="start" x="203.75" y="-1128.6" font-family="Arial" font-weight="bold" font-size="48.00">BasicBlock</text>
<text text-anchor="start" x="203.75" y="-1107.8" font-family="Arial" font-weight="bold" font-size="14.00">Source: </text>
<text text-anchor="start" x="258.75" y="-1107.8" font-family="Arial" font-size="14.00"> torchvision.models.resnet v0.13.1</text>
<text text-anchor="start" x="294.25" y="-1093.8" font-family="Arial" font-weight="bold" font-size="14.00">NNViz </text>
<text text-anchor="start" x="337.25" y="-1093.8" font-family="Arial" font-size="14.00">v0.5.0</text>
<text text-anchor="start" x="332.25" y="-1079.8" font-family="Arial" font-size="14.00"> </text>
<g id="clust1" class="cluster">
<title>cluster_downsample</title>
<path fill="#e7e7e7" stroke="black" d="M20,-716C20,-716 330,-716 330,-716 336,-716 342,-722 342,-728 342,-728 342,-1000 342,-1000 342,-1006 336,-1012 330,-1012 330,-1012 20,-1012 20,-1012 14,-1012 8,-1006 8,-1000 8,-1000 8,-728 8,-728 8,-722 14,-716 20,-716"/>
<text text-anchor="start" x="16" y="-994.6" font-family="Arial" font-weight="bold" font-size="18.00">downsample</text>
</g>
<!-- downsample_0 -->
<g id="node1" class="node">
<title>downsample_0</title>
<path fill="#444380" stroke="#444380" d="M302.5,-976C302.5,-976 83.5,-976 83.5,-976 77.5,-976 71.5,-970 71.5,-964 71.5,-964 71.5,-880 71.5,-880 71.5,-874 77.5,-868 83.5,-868 83.5,-868 302.5,-868 302.5,-868 308.5,-868 314.5,-874 314.5,-880 314.5,-880 314.5,-964 314.5,-964 314.5,-970 308.5,-976 302.5,-976"/>
<text text-anchor="start" x="148" y="-950.8" font-family="Arial" font-weight="bold" font-size="24.00" fill="white">Conv2d</text>
<text text-anchor="start" x="149" y="-934.8" font-family="Arial" font-style="italic" font-size="14.00" fill="white">downsample.0</text>
<text text-anchor="start" x="121" y="-906.8" font-family="Arial" font-weight="bold" font-size="14.00" fill="white">params</text>
<text text-anchor="start" x="170" y="-906.8" font-family="Arial" font-size="14.00" fill="white">: 8.19K (3.56%)</text>
<text text-anchor="start" x="85.5" y="-878.8" font-family="Arial" font-weight="bold" font-size="14.00" fill="white">src</text>
<text text-anchor="start" x="106.5" y="-878.8" font-family="Arial" font-size="14.00" fill="white">: torch.nn.modules.conv.Conv2d</text>
</g>
<!-- downsample_1 -->
<g id="node2" class="node">
<title>downsample_1</title>
<path fill="#52406b" stroke="#52406b" d="M321.5,-832C321.5,-832 28.5,-832 28.5,-832 22.5,-832 16.5,-826 16.5,-820 16.5,-820 16.5,-736 16.5,-736 16.5,-730 22.5,-724 28.5,-724 28.5,-724 321.5,-724 321.5,-724 327.5,-724 333.5,-730 333.5,-736 333.5,-736 333.5,-820 333.5,-820 333.5,-826 327.5,-832 321.5,-832"/>
<text text-anchor="start" x="95.5" y="-806.8" font-family="Arial" font-weight="bold" font-size="24.00" fill="white">BatchNorm2d</text>
<text text-anchor="start" x="131" y="-790.8" font-family="Arial" font-style="italic" font-size="14.00" fill="white">downsample.1</text>
<text text-anchor="start" x="109.5" y="-762.8" font-family="Arial" font-weight="bold" font-size="14.00" fill="white">params</text>
<text text-anchor="start" x="158.5" y="-762.8" font-family="Arial" font-size="14.00" fill="white">: 256 (0.11%)</text>
<text text-anchor="start" x="30.5" y="-734.8" font-family="Arial" font-weight="bold" font-size="14.00" fill="white">src</text>
<text text-anchor="start" x="51.5" y="-734.8" font-family="Arial" font-size="14.00" fill="white">: torch.nn.modules.batchnorm.BatchNorm2d</text>
</g>
<!-- downsample_0&#45;&gt;downsample_1 -->
<g id="edge8" class="edge">
<title>downsample_0&#45;&gt;downsample_1</title>
<path fill="none" stroke="black" stroke-width="2" d="M186.25,-867.72C185.19,-859.35 184.08,-850.63 182.99,-842.06"/>
<polygon fill="black" stroke="black" stroke-width="2" points="186.46,-841.59 181.73,-832.11 179.52,-842.47 186.46,-841.59"/>
</g>
<!-- add -->
<g id="node9" class="node">
<title>add</title>
<path fill="#b16342" stroke="#b16342" d="M400,-284C400,-284 284,-284 284,-284 278,-284 272,-278 272,-272 272,-272 272,-216 272,-216 272,-210 278,-204 284,-204 284,-204 400,-204 400,-204 406,-204 412,-210 412,-216 412,-216 412,-272 412,-272 412,-278 406,-284 400,-284"/>
<text text-anchor="start" x="320" y="-258.8" font-family="Arial" font-weight="bold" font-size="24.00" fill="white">add</text>
<text text-anchor="start" x="330.5" y="-242.8" font-family="Arial" font-style="italic" font-size="14.00" fill="white">add</text>
<text text-anchor="start" x="286" y="-214.8" font-family="Arial" font-weight="bold" font-size="14.00" fill="white">src</text>
<text text-anchor="start" x="307" y="-214.8" font-family="Arial" font-size="14.00" fill="white">: _operator.add</text>
</g>
<!-- downsample_1&#45;&gt;add -->
<g id="edge9" class="edge">
<title>downsample_1&#45;&gt;add</title>
<path fill="none" stroke="black" stroke-width="2" d="M181.18,-723.71C192.82,-636.07 222.84,-457.51 287,-320 291.4,-310.57 297.06,-301.14 303.08,-292.31"/>
<polygon fill="black" stroke="black" stroke-width="2" points="306.02,-294.22 308.93,-284.04 300.3,-290.18 306.02,-294.22"/>
</g>
<!-- x -->
<g id="node3" class="node">
<title>x</title>
<path fill="#000000" stroke="#000000" d="M383.5,-1072C383.5,-1072 318.5,-1072 318.5,-1072 312.5,-1072 306.5,-1066 306.5,-1060 306.5,-1060 306.5,-1032 306.5,-1032 306.5,-1026 312.5,-1020 318.5,-1020 318.5,-1020 383.5,-1020 383.5,-1020 389.5,-1020 395.5,-1026 395.5,-1032 395.5,-1032 395.5,-1060 395.5,-1060 395.5,-1066 389.5,-1072 383.5,-1072"/>
<text text-anchor="start" x="320.5" y="-1046.8" font-family="Arial" font-weight="bold" font-size="24.00" fill="white">Input</text>
<text text-anchor="start" x="347.5" y="-1030.8" font-family="Arial" font-style="italic" font-size="14.00" fill="white">x</text>
</g>
<!-- x&#45;&gt;downsample_0 -->
<g id="edge2" class="edge">
<title>x&#45;&gt;downsample_0</title>
<path fill="none" stroke="black" stroke-width="2" d="M318.26,-1019.72C304.2,-1008.87 287.12,-995.68 270.16,-982.58"/>
<polygon fill="black" stroke="black" stroke-width="2" points="271.91,-979.51 261.85,-976.17 267.63,-985.05 271.91,-979.51"/>
</g>
<!-- conv1 -->
<g id="node4" class="node">
<title>conv1</title>
<path fill="#444380" stroke="#444380" d="M600.5,-976C600.5,-976 381.5,-976 381.5,-976 375.5,-976 369.5,-970 369.5,-964 369.5,-964 369.5,-880 369.5,-880 369.5,-874 375.5,-868 381.5,-868 381.5,-868 600.5,-868 600.5,-868 606.5,-868 612.5,-874 612.5,-880 612.5,-880 612.5,-964 612.5,-964 612.5,-970 606.5,-976 600.5,-976"/>
<text text-anchor="start" x="446" y="-950.8" font-family="Arial" font-weight="bold" font-size="24.00" fill="white">Conv2d</text>
<text text-anchor="start" x="472.5" y="-934.8" font-family="Arial" font-style="italic" font-size="14.00" fill="white">conv1</text>
<text text-anchor="start" x="411.5" y="-906.8" font-family="Arial" font-weight="bold" font-size="14.00" fill="white">params</text>
<text text-anchor="start" x="460.5" y="-906.8" font-family="Arial" font-size="14.00" fill="white">: 73.73K (32.04%)</text>
<text text-anchor="start" x="383.5" y="-878.8" font-family="Arial" font-weight="bold" font-size="14.00" fill="white">src</text>
<text text-anchor="start" x="404.5" y="-878.8" font-family="Arial" font-size="14.00" fill="white">: torch.nn.modules.conv.Conv2d</text>
</g>
<!-- x&#45;&gt;conv1 -->
<g id="edge1" class="edge">
<title>x&#45;&gt;conv1</title>
<path fill="none" stroke="black" stroke-width="2" d="M380.01,-1019.72C392.35,-1008.96 407.32,-995.92 422.22,-982.94"/>
<polygon fill="black" stroke="black" stroke-width="2" points="424.75,-985.37 429.99,-976.17 420.15,-980.1 424.75,-985.37"/>
</g>
<!-- bn1 -->
<g id="node5" class="node">
<title>bn1</title>
<path fill="#52406b" stroke="#52406b" d="M656.5,-832C656.5,-832 363.5,-832 363.5,-832 357.5,-832 351.5,-826 351.5,-820 351.5,-820 351.5,-736 351.5,-736 351.5,-730 357.5,-724 363.5,-724 363.5,-724 656.5,-724 656.5,-724 662.5,-724 668.5,-730 668.5,-736 668.5,-736 668.5,-820 668.5,-820 668.5,-826 662.5,-832 656.5,-832"/>
<text text-anchor="start" x="430.5" y="-806.8" font-family="Arial" font-weight="bold" font-size="24.00" fill="white">BatchNorm2d</text>
<text text-anchor="start" x="498.5" y="-790.8" font-family="Arial" font-style="italic" font-size="14.00" fill="white">bn1</text>
<text text-anchor="start" x="444.5" y="-762.8" font-family="Arial" font-weight="bold" font-size="14.00" fill="white">params</text>
<text text-anchor="start" x="493.5" y="-762.8" font-family="Arial" font-size="14.00" fill="white">: 256 (0.11%)</text>
<text text-anchor="start" x="365.5" y="-734.8" font-family="Arial" font-weight="bold" font-size="14.00" fill="white">src</text>
<text text-anchor="start" x="386.5" y="-734.8" font-family="Arial" font-size="14.00" fill="white">: torch.nn.modules.batchnorm.BatchNorm2d</text>
</g>
<!-- conv1&#45;&gt;bn1 -->
<g id="edge3" class="edge">
<title>conv1&#45;&gt;bn1</title>
<path fill="none" stroke="black" stroke-width="2" d="M498.13,-867.72C499.25,-859.35 500.42,-850.63 501.56,-842.06"/>
<polygon fill="black" stroke="black" stroke-width="2" points="505.04,-842.48 502.89,-832.11 498.1,-841.55 505.04,-842.48"/>
</g>
<!-- relu -->
<g id="node6" class="node">
<title>relu</title>
<path fill="#555580" stroke="#555580" d="M618,-688C618,-688 382,-688 382,-688 376,-688 370,-682 370,-676 370,-676 370,-620 370,-620 370,-614 376,-608 382,-608 382,-608 618,-608 618,-608 624,-608 630,-614 630,-620 630,-620 630,-676 630,-676 630,-682 624,-688 618,-688"/>
<text text-anchor="start" x="468" y="-662.8" font-family="Arial" font-weight="bold" font-size="24.00" fill="white">ReLU</text>
<text text-anchor="start" x="488.5" y="-646.8" font-family="Arial" font-style="italic" font-size="14.00" fill="white">relu</text>
<text text-anchor="start" x="384" y="-618.8" font-family="Arial" font-weight="bold" font-size="14.00" fill="white">src</text>
<text text-anchor="start" x="405" y="-618.8" font-family="Arial" font-size="14.00" fill="white">: torch.nn.modules.activation.ReLU</text>
</g>
<!-- bn1&#45;&gt;relu -->
<g id="edge4" class="edge">
<title>bn1&#45;&gt;relu</title>
<path fill="none" stroke="black" stroke-width="2" d="M505.85,-723.83C505.18,-715.33 504.5,-706.57 503.84,-698.17"/>
<polygon fill="black" stroke="black" stroke-width="2" points="507.33,-697.85 503.06,-688.15 500.35,-698.39 507.33,-697.85"/>
</g>
<!-- conv2 -->
<g id="node7" class="node">
<title>conv2</title>
<path fill="#444380" stroke="#444380" d="M572.5,-572C572.5,-572 353.5,-572 353.5,-572 347.5,-572 341.5,-566 341.5,-560 341.5,-560 341.5,-476 341.5,-476 341.5,-470 347.5,-464 353.5,-464 353.5,-464 572.5,-464 572.5,-464 578.5,-464 584.5,-470 584.5,-476 584.5,-476 584.5,-560 584.5,-560 584.5,-566 578.5,-572 572.5,-572"/>
<text text-anchor="start" x="418" y="-546.8" font-family="Arial" font-weight="bold" font-size="24.00" fill="white">Conv2d</text>
<text text-anchor="start" x="444.5" y="-530.8" font-family="Arial" font-style="italic" font-size="14.00" fill="white">conv2</text>
<text text-anchor="start" x="379.5" y="-502.8" font-family="Arial" font-weight="bold" font-size="14.00" fill="white">params</text>
<text text-anchor="start" x="428.5" y="-502.8" font-family="Arial" font-size="14.00" fill="white">: 147.46K (64.07%)</text>
<text text-anchor="start" x="355.5" y="-474.8" font-family="Arial" font-weight="bold" font-size="14.00" fill="white">src</text>
<text text-anchor="start" x="376.5" y="-474.8" font-family="Arial" font-size="14.00" fill="white">: torch.nn.modules.conv.Conv2d</text>
</g>
<!-- relu&#45;&gt;conv2 -->
<g id="edge5" class="edge">
<title>relu&#45;&gt;conv2</title>
<path fill="none" stroke="black" stroke-width="2" d="M488.7,-607.9C486.29,-599.59 483.7,-590.61 481.11,-581.66"/>
<polygon fill="black" stroke="black" stroke-width="2" points="484.46,-580.64 478.32,-572 477.74,-582.58 484.46,-580.64"/>
</g>
<!-- bn2 -->
<g id="node8" class="node">
<title>bn2</title>
<path fill="#52406b" stroke="#52406b" d="M600.5,-428C600.5,-428 307.5,-428 307.5,-428 301.5,-428 295.5,-422 295.5,-416 295.5,-416 295.5,-332 295.5,-332 295.5,-326 301.5,-320 307.5,-320 307.5,-320 600.5,-320 600.5,-320 606.5,-320 612.5,-326 612.5,-332 612.5,-332 612.5,-416 612.5,-416 612.5,-422 606.5,-428 600.5,-428"/>
<text text-anchor="start" x="374.5" y="-402.8" font-family="Arial" font-weight="bold" font-size="24.00" fill="white">BatchNorm2d</text>
<text text-anchor="start" x="442.5" y="-386.8" font-family="Arial" font-style="italic" font-size="14.00" fill="white">bn2</text>
<text text-anchor="start" x="388.5" y="-358.8" font-family="Arial" font-weight="bold" font-size="14.00" fill="white">params</text>
<text text-anchor="start" x="437.5" y="-358.8" font-family="Arial" font-size="14.00" fill="white">: 256 (0.11%)</text>
<text text-anchor="start" x="309.5" y="-330.8" font-family="Arial" font-weight="bold" font-size="14.00" fill="white">src</text>
<text text-anchor="start" x="330.5" y="-330.8" font-family="Arial" font-size="14.00" fill="white">: torch.nn.modules.batchnorm.BatchNorm2d</text>
</g>
<!-- conv2&#45;&gt;bn2 -->
<g id="edge6" class="edge">
<title>conv2&#45;&gt;bn2</title>
<path fill="none" stroke="black" stroke-width="2" d="M459.62,-463.72C459.1,-455.44 458.55,-446.82 458.01,-438.34"/>
<polygon fill="black" stroke="black" stroke-width="2" points="461.49,-437.86 457.37,-428.11 454.51,-438.31 461.49,-437.86"/>
</g>
<!-- bn2&#45;&gt;add -->
<g id="edge7" class="edge">
<title>bn2&#45;&gt;add</title>
<path fill="none" stroke="black" stroke-width="2" d="M407.47,-319.83C399.3,-310.49 390.86,-300.84 382.86,-291.69"/>
<polygon fill="black" stroke="black" stroke-width="2" points="385.48,-289.37 376.26,-284.15 380.21,-293.98 385.48,-289.37"/>
</g>
<!-- relu_1 -->
<g id="node10" class="node">
<title>relu_1</title>
<path fill="#555580" stroke="#555580" d="M460,-168C460,-168 224,-168 224,-168 218,-168 212,-162 212,-156 212,-156 212,-100 212,-100 212,-94 218,-88 224,-88 224,-88 460,-88 460,-88 466,-88 472,-94 472,-100 472,-100 472,-156 472,-156 472,-162 466,-168 460,-168"/>
<text text-anchor="start" x="310" y="-142.8" font-family="Arial" font-weight="bold" font-size="24.00" fill="white">ReLU</text>
<text text-anchor="start" x="323" y="-126.8" font-family="Arial" font-style="italic" font-size="14.00" fill="white">relu_1</text>
<text text-anchor="start" x="226" y="-98.8" font-family="Arial" font-weight="bold" font-size="14.00" fill="white">src</text>
<text text-anchor="start" x="247" y="-98.8" font-family="Arial" font-size="14.00" fill="white">: torch.nn.modules.activation.ReLU</text>
</g>
<!-- add&#45;&gt;relu_1 -->
<g id="edge10" class="edge">
<title>add&#45;&gt;relu_1</title>
<path fill="none" stroke="black" stroke-width="2" d="M342,-203.77C342,-195.62 342,-186.93 342,-178.46"/>
<polygon fill="black" stroke="black" stroke-width="2" points="345.5,-178.3 342,-168.3 338.5,-178.3 345.5,-178.3"/>
</g>
<!-- output -->
<g id="node11" class="node">
<title>output</title>
<path fill="#000000" stroke="#000000" d="M384.5,-52C384.5,-52 299.5,-52 299.5,-52 293.5,-52 287.5,-46 287.5,-40 287.5,-40 287.5,-12 287.5,-12 287.5,-6 293.5,0 299.5,0 299.5,0 384.5,0 384.5,0 390.5,0 396.5,-6 396.5,-12 396.5,-12 396.5,-40 396.5,-40 396.5,-46 390.5,-52 384.5,-52"/>
<text text-anchor="start" x="301.5" y="-26.8" font-family="Arial" font-weight="bold" font-size="24.00" fill="white">Output</text>
<text text-anchor="start" x="323" y="-10.8" font-family="Arial" font-style="italic" font-size="14.00" fill="white">output</text>
</g>
<!-- relu_1&#45;&gt;output -->
<g id="edge11" class="edge">
<title>relu_1&#45;&gt;output</title>
<path fill="none" stroke="black" stroke-width="2" d="M342,-87.76C342,-79.3 342,-70.4 342,-62.11"/>
<polygon fill="black" stroke="black" stroke-width="2" points="345.5,-62 342,-52 338.5,-62 345.5,-62"/>
</g>
</g>
</svg>
