<?xml version="1.0" encoding="UTF-8" standalone="no"?>
<!DOCTYPE svg PUBLIC "-//W3C//DTD SVG 1.1//EN"
 "http://www.w3.org/Graphics/SVG/1.1/DTD/svg11.dtd">
<!-- Generated by graphviz version 2.50.0 (0)
 -->
<!-- Pages: 1 -->
<svg width="395pt" height="2254pt"
 viewBox="0.00 0.00 395.00 2254.00" xmlns="http://www.w3.org/2000/svg" xmlns:xlink="http://www.w3.org/1999/xlink">
<g id="graph0" class="graph" transform="scale(1 1) rotate(0) translate(4 2250)">
<polygon fill="white" stroke="transparent" points="-4,4 -4,-2250 391,-2250 391,4 -4,4"/>
<text text-anchor="start" x="59.5" y="-2204.6" font-family="Arial" font-weight="bold" font-size="48.00">EfficientNet</text>
<text text-anchor="start" x="49" y="-2183.8" font-family="Arial" font-weight="bold" font-size="14.00">Source: </text>
<text text-anchor="start" x="104" y="-2183.8" font-family="Arial" font-size="14.00"> torchvision.models.efficientnet v0.13.1</text>
<text text-anchor="start" x="153.5" y="-2169.8" font-family="Arial" font-weight="bold" font-size="14.00">NNViz </text>
<text text-anchor="start" x="196.5" y="-2169.8" font-family="Arial" font-size="14.00">v0.5.0</text>
<text text-anchor="start" x="191.5" y="-2155.8" font-family="Arial" font-size="14.00"> </text>
<g id="clust1" class="cluster">
<title>cluster_features</title>
<path fill="#e7e7e7" stroke="black" d="M75,-802C75,-802 305,-802 305,-802 311,-802 317,-808 317,-814 317,-814 317,-2020 317,-2020 317,-2026 311,-2032 305,-2032 305,-2032 75,-2032 75,-2032 69,-2032 63,-2026 63,-2020 63,-2020 63,-814 63,-814 63,-808 69,-802 75,-802"/>
<text text-anchor="start" x="71" y="-2014.6" font-family="Arial" font-weight="bold" font-size="18.00">features</text>
</g>
<g id="clust2" class="cluster">
<title>cluster_classifier</title>
<path fill="#e7e7e7" stroke="black" d="M37,-118C37,-118 293,-118 293,-118 299,-118 305,-124 305,-130 305,-130 305,-412 305,-412 305,-418 299,-424 293,-424 293,-424 37,-424 37,-424 31,-424 25,-418 25,-412 25,-412 25,-130 25,-130 25,-124 31,-118 37,-118"/>
<text text-anchor="start" x="33" y="-406.6" font-family="Arial" font-weight="bold" font-size="18.00">classifier</text>
</g>
<!-- features_5 -->
<g id="node1" class="node">
<title>features_5</title>
<path fill="#842c5d" stroke="#842c5d" d="M254.5,-1296C254.5,-1296 83.5,-1296 83.5,-1296 77.5,-1296 71.5,-1290 71.5,-1284 71.5,-1284 71.5,-1242 71.5,-1242 71.5,-1236 77.5,-1230 83.5,-1230 83.5,-1230 254.5,-1230 254.5,-1230 260.5,-1230 266.5,-1236 266.5,-1242 266.5,-1242 266.5,-1284 266.5,-1284 266.5,-1290 260.5,-1296 254.5,-1296"/>
<text text-anchor="start" x="111.5" y="-1270.8" font-family="Arial" font-weight="bold" font-size="24.00" fill="white">features.5</text>
<text text-anchor="start" x="85.5" y="-1240.8" font-family="Arial" font-weight="bold" font-size="14.00" fill="white">params</text>
<text text-anchor="start" x="134.5" y="-1240.8" font-family="Arial" font-size="14.00" fill="white">: 543.15K (10.27%)</text>
</g>
<!-- features_6 -->
<g id="node3" class="node">
<title>features_6</title>
<path fill="#842c5d" stroke="#842c5d" d="M242.5,-1156C242.5,-1156 83.5,-1156 83.5,-1156 77.5,-1156 71.5,-1150 71.5,-1144 71.5,-1144 71.5,-1102 71.5,-1102 71.5,-1096 77.5,-1090 83.5,-1090 83.5,-1090 242.5,-1090 242.5,-1090 248.5,-1090 254.5,-1096 254.5,-1102 254.5,-1102 254.5,-1144 254.5,-1144 254.5,-1150 248.5,-1156 242.5,-1156"/>
<text text-anchor="start" x="105.5" y="-1130.8" font-family="Arial" font-weight="bold" font-size="24.00" fill="white">features.6</text>
<text text-anchor="start" x="85.5" y="-1100.8" font-family="Arial" font-weight="bold" font-size="14.00" fill="white">params</text>
<text text-anchor="start" x="134.5" y="-1100.8" font-family="Arial" font-size="14.00" fill="white">: 2.03M (38.32%)</text>
</g>
<!-- features_5&#45;&gt;features_6 -->
<g id="edge6" class="edge">
<title>features_5&#45;&gt;features_6</title>
<path fill="none" stroke="black" stroke-width="2" d="M167.61,-1229.99C166.79,-1211.06 165.73,-1186.84 164.84,-1166.34"/>
<polygon fill="black" stroke="black" stroke-width="2" points="168.34,-1166.15 164.4,-1156.31 161.34,-1166.45 168.34,-1166.15"/>
<text text-anchor="start" x="168" y="-1199.8" font-family="Arial" font-weight="bold" font-size="14.00">shape:</text>
<text text-anchor="start" x="216" y="-1198.8" font-family="Arial" font-size="14.00">(1, 112, 14, 14)</text>
<text text-anchor="start" x="168" y="-1180.8" font-family="Arial" font-weight="bold" font-size="14.00">dtype:</text>
<text text-anchor="start" x="216" y="-1179.8" font-family="Arial" font-size="14.00">torch.float32</text>
</g>
<!-- features_1 -->
<g id="node2" class="node">
<title>features_1</title>
<path fill="#842c5d" stroke="#842c5d" d="M231,-1856C231,-1856 83,-1856 83,-1856 77,-1856 71,-1850 71,-1844 71,-1844 71,-1802 71,-1802 71,-1796 77,-1790 83,-1790 83,-1790 231,-1790 231,-1790 237,-1790 243,-1796 243,-1802 243,-1802 243,-1844 243,-1844 243,-1850 237,-1856 231,-1856"/>
<text text-anchor="start" x="99.5" y="-1830.8" font-family="Arial" font-weight="bold" font-size="24.00" fill="white">features.1</text>
<text text-anchor="start" x="85" y="-1800.8" font-family="Arial" font-weight="bold" font-size="14.00" fill="white">params</text>
<text text-anchor="start" x="134" y="-1800.8" font-family="Arial" font-size="14.00" fill="white">: 1.45K (0.03%)</text>
</g>
<!-- features_2 -->
<g id="node5" class="node">
<title>features_2</title>
<path fill="#842c5d" stroke="#842c5d" d="M239,-1716C239,-1716 83,-1716 83,-1716 77,-1716 71,-1710 71,-1704 71,-1704 71,-1662 71,-1662 71,-1656 77,-1650 83,-1650 83,-1650 239,-1650 239,-1650 245,-1650 251,-1656 251,-1662 251,-1662 251,-1704 251,-1704 251,-1710 245,-1716 239,-1716"/>
<text text-anchor="start" x="103.5" y="-1690.8" font-family="Arial" font-weight="bold" font-size="24.00" fill="white">features.2</text>
<text text-anchor="start" x="85" y="-1660.8" font-family="Arial" font-weight="bold" font-size="14.00" fill="white">params</text>
<text text-anchor="start" x="134" y="-1660.8" font-family="Arial" font-size="14.00" fill="white">: 16.71K (0.32%)</text>
</g>
<!-- features_1&#45;&gt;features_2 -->
<g id="edge7" class="edge">
<title>features_1&#45;&gt;features_2</title>
<path fill="none" stroke="black" stroke-width="2" d="M157.93,-1789.99C158.48,-1771.06 159.18,-1746.84 159.77,-1726.34"/>
<polygon fill="black" stroke="black" stroke-width="2" points="163.27,-1726.41 160.06,-1716.31 156.28,-1726.21 163.27,-1726.41"/>
<text text-anchor="start" x="161" y="-1759.8" font-family="Arial" font-weight="bold" font-size="14.00">shape:</text>
<text text-anchor="start" x="209" y="-1758.8" font-family="Arial" font-size="14.00">(1, 16, 112, 112)</text>
<text text-anchor="start" x="161" y="-1740.8" font-family="Arial" font-weight="bold" font-size="14.00">dtype:</text>
<text text-anchor="start" x="209" y="-1739.8" font-family="Arial" font-size="14.00">torch.float32</text>
</g>
<!-- features_7 -->
<g id="node4" class="node">
<title>features_7</title>
<path fill="#842c5d" stroke="#842c5d" d="M254.5,-1016C254.5,-1016 83.5,-1016 83.5,-1016 77.5,-1016 71.5,-1010 71.5,-1004 71.5,-1004 71.5,-962 71.5,-962 71.5,-956 77.5,-950 83.5,-950 83.5,-950 254.5,-950 254.5,-950 260.5,-950 266.5,-956 266.5,-962 266.5,-962 266.5,-1004 266.5,-1004 266.5,-1010 260.5,-1016 254.5,-1016"/>
<text text-anchor="start" x="111.5" y="-990.8" font-family="Arial" font-weight="bold" font-size="24.00" fill="white">features.7</text>
<text text-anchor="start" x="85.5" y="-960.8" font-family="Arial" font-weight="bold" font-size="14.00" fill="white">params</text>
<text text-anchor="start" x="134.5" y="-960.8" font-family="Arial" font-size="14.00" fill="white">: 717.23K (13.56%)</text>
</g>
<!-- features_6&#45;&gt;features_7 -->
<g id="edge8" class="edge">
<title>features_6&#45;&gt;features_7</title>
<path fill="none" stroke="black" stroke-width="2" d="M164.39,-1089.99C165.21,-1071.06 166.27,-1046.84 167.16,-1026.34"/>
<polygon fill="black" stroke="black" stroke-width="2" points="170.66,-1026.45 167.6,-1016.31 163.66,-1026.15 170.66,-1026.45"/>
<text text-anchor="start" x="168" y="-1059.8" font-family="Arial" font-weight="bold" font-size="14.00">shape:</text>
<text text-anchor="start" x="216" y="-1058.8" font-family="Arial" font-size="14.00">(1, 192, 7, 7)</text>
<text text-anchor="start" x="168" y="-1040.8" font-family="Arial" font-weight="bold" font-size="14.00">dtype:</text>
<text text-anchor="start" x="216" y="-1039.8" font-family="Arial" font-size="14.00">torch.float32</text>
</g>
<!-- features_8 -->
<g id="node8" class="node">
<title>features_8</title>
<path fill="#842c5d" stroke="#842c5d" d="M246.5,-876C246.5,-876 83.5,-876 83.5,-876 77.5,-876 71.5,-870 71.5,-864 71.5,-864 71.5,-822 71.5,-822 71.5,-816 77.5,-810 83.5,-810 83.5,-810 246.5,-810 246.5,-810 252.5,-810 258.5,-816 258.5,-822 258.5,-822 258.5,-864 258.5,-864 258.5,-870 252.5,-876 246.5,-876"/>
<text text-anchor="start" x="107.5" y="-850.8" font-family="Arial" font-weight="bold" font-size="24.00" fill="white">features.8</text>
<text text-anchor="start" x="85.5" y="-820.8" font-family="Arial" font-weight="bold" font-size="14.00" fill="white">params</text>
<text text-anchor="start" x="134.5" y="-820.8" font-family="Arial" font-size="14.00" fill="white">: 412.16K (7.79%)</text>
</g>
<!-- features_7&#45;&gt;features_8 -->
<g id="edge9" class="edge">
<title>features_7&#45;&gt;features_8</title>
<path fill="none" stroke="black" stroke-width="2" d="M168.07,-949.99C167.52,-931.06 166.82,-906.84 166.23,-886.34"/>
<polygon fill="black" stroke="black" stroke-width="2" points="169.72,-886.21 165.94,-876.31 162.73,-886.41 169.72,-886.21"/>
<text text-anchor="start" x="169" y="-919.8" font-family="Arial" font-weight="bold" font-size="14.00">shape:</text>
<text text-anchor="start" x="217" y="-918.8" font-family="Arial" font-size="14.00">(1, 320, 7, 7)</text>
<text text-anchor="start" x="169" y="-900.8" font-family="Arial" font-weight="bold" font-size="14.00">dtype:</text>
<text text-anchor="start" x="217" y="-899.8" font-family="Arial" font-size="14.00">torch.float32</text>
</g>
<!-- features_3 -->
<g id="node9" class="node">
<title>features_3</title>
<path fill="#842c5d" stroke="#842c5d" d="M239,-1576C239,-1576 83,-1576 83,-1576 77,-1576 71,-1570 71,-1564 71,-1564 71,-1522 71,-1522 71,-1516 77,-1510 83,-1510 83,-1510 239,-1510 239,-1510 245,-1510 251,-1516 251,-1522 251,-1522 251,-1564 251,-1564 251,-1570 245,-1576 239,-1576"/>
<text text-anchor="start" x="103.5" y="-1550.8" font-family="Arial" font-weight="bold" font-size="24.00" fill="white">features.3</text>
<text text-anchor="start" x="85" y="-1520.8" font-family="Arial" font-weight="bold" font-size="14.00" fill="white">params</text>
<text text-anchor="start" x="134" y="-1520.8" font-family="Arial" font-size="14.00" fill="white">: 46.64K (0.88%)</text>
</g>
<!-- features_2&#45;&gt;features_3 -->
<g id="edge10" class="edge">
<title>features_2&#45;&gt;features_3</title>
<path fill="none" stroke="black" stroke-width="2" d="M161,-1649.99C161,-1631.06 161,-1606.84 161,-1586.34"/>
<polygon fill="black" stroke="black" stroke-width="2" points="164.5,-1586.31 161,-1576.31 157.5,-1586.31 164.5,-1586.31"/>
<text text-anchor="start" x="163" y="-1619.8" font-family="Arial" font-weight="bold" font-size="14.00">shape:</text>
<text text-anchor="start" x="211" y="-1618.8" font-family="Arial" font-size="14.00">(1, 24, 56, 56)</text>
<text text-anchor="start" x="163" y="-1600.8" font-family="Arial" font-weight="bold" font-size="14.00">dtype:</text>
<text text-anchor="start" x="211" y="-1599.8" font-family="Arial" font-size="14.00">torch.float32</text>
</g>
<!-- features_4 -->
<g id="node6" class="node">
<title>features_4</title>
<path fill="#842c5d" stroke="#842c5d" d="M246.5,-1436C246.5,-1436 83.5,-1436 83.5,-1436 77.5,-1436 71.5,-1430 71.5,-1424 71.5,-1424 71.5,-1382 71.5,-1382 71.5,-1376 77.5,-1370 83.5,-1370 83.5,-1370 246.5,-1370 246.5,-1370 252.5,-1370 258.5,-1376 258.5,-1382 258.5,-1382 258.5,-1424 258.5,-1424 258.5,-1430 252.5,-1436 246.5,-1436"/>
<text text-anchor="start" x="107.5" y="-1410.8" font-family="Arial" font-weight="bold" font-size="24.00" fill="white">features.4</text>
<text text-anchor="start" x="85.5" y="-1380.8" font-family="Arial" font-weight="bold" font-size="14.00" fill="white">params</text>
<text text-anchor="start" x="134.5" y="-1380.8" font-family="Arial" font-size="14.00" fill="white">: 242.93K (4.59%)</text>
</g>
<!-- features_4&#45;&gt;features_5 -->
<g id="edge11" class="edge">
<title>features_4&#45;&gt;features_5</title>
<path fill="none" stroke="black" stroke-width="2" d="M165.93,-1369.99C166.48,-1351.06 167.18,-1326.84 167.77,-1306.34"/>
<polygon fill="black" stroke="black" stroke-width="2" points="171.27,-1306.41 168.06,-1296.31 164.28,-1306.21 171.27,-1306.41"/>
<text text-anchor="start" x="169" y="-1339.8" font-family="Arial" font-weight="bold" font-size="14.00">shape:</text>
<text text-anchor="start" x="217" y="-1338.8" font-family="Arial" font-size="14.00">(1, 80, 14, 14)</text>
<text text-anchor="start" x="169" y="-1320.8" font-family="Arial" font-weight="bold" font-size="14.00">dtype:</text>
<text text-anchor="start" x="217" y="-1319.8" font-family="Arial" font-size="14.00">torch.float32</text>
</g>
<!-- features_0 -->
<g id="node7" class="node">
<title>features_0</title>
<path fill="#842c5d" stroke="#842c5d" d="M218.5,-1996C218.5,-1996 83.5,-1996 83.5,-1996 77.5,-1996 71.5,-1990 71.5,-1984 71.5,-1984 71.5,-1942 71.5,-1942 71.5,-1936 77.5,-1930 83.5,-1930 83.5,-1930 218.5,-1930 218.5,-1930 224.5,-1930 230.5,-1936 230.5,-1942 230.5,-1942 230.5,-1984 230.5,-1984 230.5,-1990 224.5,-1996 218.5,-1996"/>
<text text-anchor="start" x="93.5" y="-1970.8" font-family="Arial" font-weight="bold" font-size="24.00" fill="white">features.0</text>
<text text-anchor="start" x="85.5" y="-1940.8" font-family="Arial" font-weight="bold" font-size="14.00" fill="white">params</text>
<text text-anchor="start" x="134.5" y="-1940.8" font-family="Arial" font-size="14.00" fill="white">: 928 (0.02%)</text>
</g>
<!-- features_0&#45;&gt;features_1 -->
<g id="edge12" class="edge">
<title>features_0&#45;&gt;features_1</title>
<path fill="none" stroke="black" stroke-width="2" d="M152.39,-1929.99C153.21,-1911.06 154.27,-1886.84 155.16,-1866.34"/>
<polygon fill="black" stroke="black" stroke-width="2" points="158.66,-1866.45 155.6,-1856.31 151.66,-1866.15 158.66,-1866.45"/>
<text text-anchor="start" x="156" y="-1899.8" font-family="Arial" font-weight="bold" font-size="14.00">shape:</text>
<text text-anchor="start" x="204" y="-1898.8" font-family="Arial" font-size="14.00">(1, 32, 112, 112)</text>
<text text-anchor="start" x="156" y="-1880.8" font-family="Arial" font-weight="bold" font-size="14.00">dtype:</text>
<text text-anchor="start" x="204" y="-1879.8" font-family="Arial" font-size="14.00">torch.float32</text>
</g>
<!-- avgpool -->
<g id="node13" class="node">
<title>avgpool</title>
<path fill="#444380" stroke="#444380" d="M318,-736C318,-736 12,-736 12,-736 6,-736 0,-730 0,-724 0,-724 0,-668 0,-668 0,-662 6,-656 12,-656 12,-656 318,-656 318,-656 324,-656 330,-662 330,-668 330,-668 330,-724 330,-724 330,-730 324,-736 318,-736"/>
<text text-anchor="start" x="50.5" y="-710.8" font-family="Arial" font-weight="bold" font-size="24.00" fill="white">AdaptiveAvgPool2d</text>
<text text-anchor="start" x="141" y="-694.8" font-family="Arial" font-style="italic" font-size="14.00" fill="white">avgpool</text>
<text text-anchor="start" x="14" y="-666.8" font-family="Arial" font-weight="bold" font-size="14.00" fill="white">src</text>
<text text-anchor="start" x="35" y="-666.8" font-family="Arial" font-size="14.00" fill="white">: torch.nn.modules.pooling.AdaptiveAvgPool2d</text>
</g>
<!-- features_8&#45;&gt;avgpool -->
<g id="edge13" class="edge">
<title>features_8&#45;&gt;avgpool</title>
<path fill="none" stroke="black" stroke-width="2" d="M165,-809.82C165,-791.11 165,-767.14 165,-746.11"/>
<polygon fill="black" stroke="black" stroke-width="2" points="168.5,-746.06 165,-736.06 161.5,-746.06 168.5,-746.06"/>
<text text-anchor="start" x="167" y="-779.8" font-family="Arial" font-weight="bold" font-size="14.00">shape:</text>
<text text-anchor="start" x="215" y="-778.8" font-family="Arial" font-size="14.00">(1, 1280, 7, 7)</text>
<text text-anchor="start" x="167" y="-760.8" font-family="Arial" font-weight="bold" font-size="14.00">dtype:</text>
<text text-anchor="start" x="215" y="-759.8" font-family="Arial" font-size="14.00">torch.float32</text>
</g>
<!-- features_3&#45;&gt;features_4 -->
<g id="edge14" class="edge">
<title>features_3&#45;&gt;features_4</title>
<path fill="none" stroke="black" stroke-width="2" d="M161.93,-1509.99C162.48,-1491.06 163.18,-1466.84 163.77,-1446.34"/>
<polygon fill="black" stroke="black" stroke-width="2" points="167.27,-1446.41 164.06,-1436.31 160.28,-1446.21 167.27,-1446.41"/>
<text text-anchor="start" x="165" y="-1479.8" font-family="Arial" font-weight="bold" font-size="14.00">shape:</text>
<text text-anchor="start" x="213" y="-1478.8" font-family="Arial" font-size="14.00">(1, 40, 28, 28)</text>
<text text-anchor="start" x="165" y="-1460.8" font-family="Arial" font-weight="bold" font-size="14.00">dtype:</text>
<text text-anchor="start" x="213" y="-1459.8" font-family="Arial" font-size="14.00">torch.float32</text>
</g>
<!-- classifier_0 -->
<g id="node10" class="node">
<title>classifier_0</title>
<path fill="#52406b" stroke="#52406b" d="M284.5,-388C284.5,-388 45.5,-388 45.5,-388 39.5,-388 33.5,-382 33.5,-376 33.5,-376 33.5,-320 33.5,-320 33.5,-314 39.5,-308 45.5,-308 45.5,-308 284.5,-308 284.5,-308 290.5,-308 296.5,-314 296.5,-320 296.5,-320 296.5,-376 296.5,-376 296.5,-382 290.5,-388 284.5,-388"/>
<text text-anchor="start" x="117.5" y="-362.8" font-family="Arial" font-weight="bold" font-size="24.00" fill="white">Dropout</text>
<text text-anchor="start" x="133" y="-346.8" font-family="Arial" font-style="italic" font-size="14.00" fill="white">classifier.0</text>
<text text-anchor="start" x="47.5" y="-318.8" font-family="Arial" font-weight="bold" font-size="14.00" fill="white">src</text>
<text text-anchor="start" x="68.5" y="-318.8" font-family="Arial" font-size="14.00" fill="white">: torch.nn.modules.dropout.Dropout</text>
</g>
<!-- classifier_1 -->
<g id="node11" class="node">
<title>classifier_1</title>
<path fill="#555580" stroke="#555580" d="M260.5,-234C260.5,-234 45.5,-234 45.5,-234 39.5,-234 33.5,-228 33.5,-222 33.5,-222 33.5,-138 33.5,-138 33.5,-132 39.5,-126 45.5,-126 45.5,-126 260.5,-126 260.5,-126 266.5,-126 272.5,-132 272.5,-138 272.5,-138 272.5,-222 272.5,-222 272.5,-228 266.5,-234 260.5,-234"/>
<text text-anchor="start" x="116.5" y="-208.8" font-family="Arial" font-weight="bold" font-size="24.00" fill="white">Linear</text>
<text text-anchor="start" x="121" y="-192.8" font-family="Arial" font-style="italic" font-size="14.00" fill="white">classifier.1</text>
<text text-anchor="start" x="75.5" y="-164.8" font-family="Arial" font-weight="bold" font-size="14.00" fill="white">params</text>
<text text-anchor="start" x="124.5" y="-164.8" font-family="Arial" font-size="14.00" fill="white">: 1.28M (24.22%)</text>
<text text-anchor="start" x="47.5" y="-136.8" font-family="Arial" font-weight="bold" font-size="14.00" fill="white">src</text>
<text text-anchor="start" x="68.5" y="-136.8" font-family="Arial" font-size="14.00" fill="white">: torch.nn.modules.linear.Linear</text>
</g>
<!-- classifier_0&#45;&gt;classifier_1 -->
<g id="edge4" class="edge">
<title>classifier_0&#45;&gt;classifier_1</title>
<path fill="none" stroke="black" stroke-width="2" d="M162.16,-307.66C160.79,-288.71 159.11,-265.51 157.57,-244.16"/>
<polygon fill="black" stroke="black" stroke-width="2" points="161.06,-243.91 156.84,-234.19 154.08,-244.42 161.06,-243.91"/>
<text text-anchor="start" x="162" y="-277.8" font-family="Arial" font-weight="bold" font-size="14.00">shape:</text>
<text text-anchor="start" x="210" y="-276.8" font-family="Arial" font-size="14.00">(1, 1280)</text>
<text text-anchor="start" x="162" y="-258.8" font-family="Arial" font-weight="bold" font-size="14.00">dtype:</text>
<text text-anchor="start" x="210" y="-257.8" font-family="Arial" font-size="14.00">torch.float32</text>
</g>
<!-- output -->
<g id="node15" class="node">
<title>output</title>
<path fill="#000000" stroke="#000000" d="M195.5,-52C195.5,-52 110.5,-52 110.5,-52 104.5,-52 98.5,-46 98.5,-40 98.5,-40 98.5,-12 98.5,-12 98.5,-6 104.5,0 110.5,0 110.5,0 195.5,0 195.5,0 201.5,0 207.5,-6 207.5,-12 207.5,-12 207.5,-40 207.5,-40 207.5,-46 201.5,-52 195.5,-52"/>
<text text-anchor="start" x="112.5" y="-26.8" font-family="Arial" font-weight="bold" font-size="24.00" fill="white">Output</text>
<text text-anchor="start" x="134" y="-10.8" font-family="Arial" font-style="italic" font-size="14.00" fill="white">output</text>
</g>
<!-- classifier_1&#45;&gt;output -->
<g id="edge5" class="edge">
<title>classifier_1&#45;&gt;output</title>
<path fill="none" stroke="black" stroke-width="2" d="M153,-125.84C153,-104.84 153,-81.29 153,-62.44"/>
<polygon fill="black" stroke="black" stroke-width="2" points="156.5,-62.22 153,-52.22 149.5,-62.22 156.5,-62.22"/>
<text text-anchor="start" x="155" y="-95.8" font-family="Arial" font-weight="bold" font-size="14.00">shape:</text>
<text text-anchor="start" x="203" y="-94.8" font-family="Arial" font-size="14.00">(1, 1000)</text>
<text text-anchor="start" x="155" y="-76.8" font-family="Arial" font-weight="bold" font-size="14.00">dtype:</text>
<text text-anchor="start" x="203" y="-75.8" font-family="Arial" font-size="14.00">torch.float32</text>
</g>
<!-- x -->
<g id="node12" class="node">
<title>x</title>
<path fill="#000000" stroke="#000000" d="M183.5,-2148C183.5,-2148 118.5,-2148 118.5,-2148 112.5,-2148 106.5,-2142 106.5,-2136 106.5,-2136 106.5,-2108 106.5,-2108 106.5,-2102 112.5,-2096 118.5,-2096 118.5,-2096 183.5,-2096 183.5,-2096 189.5,-2096 195.5,-2102 195.5,-2108 195.5,-2108 195.5,-2136 195.5,-2136 195.5,-2142 189.5,-2148 183.5,-2148"/>
<text text-anchor="start" x="120.5" y="-2122.8" font-family="Arial" font-weight="bold" font-size="24.00" fill="white">Input</text>
<text text-anchor="start" x="147.5" y="-2106.8" font-family="Arial" font-style="italic" font-size="14.00" fill="white">x</text>
</g>
<!-- x&#45;&gt;features_0 -->
<g id="edge1" class="edge">
<title>x&#45;&gt;features_0</title>
<path fill="none" stroke="black" stroke-width="2" d="M151,-2095.78C151,-2071.69 151,-2034.93 151,-2006.35"/>
<polygon fill="black" stroke="black" stroke-width="2" points="154.5,-2006.23 151,-1996.23 147.5,-2006.23 154.5,-2006.23"/>
<text text-anchor="start" x="153" y="-2065.8" font-family="Arial" font-weight="bold" font-size="14.00">shape:</text>
<text text-anchor="start" x="201" y="-2064.8" font-family="Arial" font-size="14.00">(1, 3, 224, 224)</text>
<text text-anchor="start" x="153" y="-2046.8" font-family="Arial" font-weight="bold" font-size="14.00">dtype:</text>
<text text-anchor="start" x="201" y="-2045.8" font-family="Arial" font-size="14.00">torch.float32</text>
</g>
<!-- flatten -->
<g id="node14" class="node">
<title>flatten</title>
<path fill="#b16342" stroke="#b16342" d="M217,-582C217,-582 113,-582 113,-582 107,-582 101,-576 101,-570 101,-570 101,-500 101,-500 101,-494 107,-488 113,-488 113,-488 217,-488 217,-488 223,-488 229,-494 229,-500 229,-500 229,-570 229,-570 229,-576 223,-582 217,-582"/>
<text text-anchor="start" x="128" y="-556.8" font-family="Arial" font-weight="bold" font-size="24.00" fill="white">flatten</text>
<text text-anchor="start" x="146.5" y="-540.8" font-family="Arial" font-style="italic" font-size="14.00" fill="white">flatten</text>
<text text-anchor="start" x="142.5" y="-526.8" font-family="Arial" font-weight="bold" font-size="14.00" fill="white">args</text>
<text text-anchor="start" x="171.5" y="-526.8" font-family="Arial" font-size="14.00" fill="white">: 1</text>
<text text-anchor="start" x="115" y="-498.8" font-family="Arial" font-weight="bold" font-size="14.00" fill="white">src</text>
<text text-anchor="start" x="136" y="-498.8" font-family="Arial" font-size="14.00" fill="white">: torch.flatten</text>
</g>
<!-- avgpool&#45;&gt;flatten -->
<g id="edge2" class="edge">
<title>avgpool&#45;&gt;flatten</title>
<path fill="none" stroke="black" stroke-width="2" d="M165,-655.7C165,-636.57 165,-613.23 165,-592.26"/>
<polygon fill="black" stroke="black" stroke-width="2" points="168.5,-592.19 165,-582.19 161.5,-592.19 168.5,-592.19"/>
<text text-anchor="start" x="167" y="-625.8" font-family="Arial" font-weight="bold" font-size="14.00">shape:</text>
<text text-anchor="start" x="215" y="-624.8" font-family="Arial" font-size="14.00">(1, 1280, 1, 1)</text>
<text text-anchor="start" x="167" y="-606.8" font-family="Arial" font-weight="bold" font-size="14.00">dtype:</text>
<text text-anchor="start" x="215" y="-605.8" font-family="Arial" font-size="14.00">torch.float32</text>
</g>
<!-- flatten&#45;&gt;classifier_0 -->
<g id="edge3" class="edge">
<title>flatten&#45;&gt;classifier_0</title>
<path fill="none" stroke="black" stroke-width="2" d="M165,-487.79C165,-460.56 165,-426.11 165,-398.34"/>
<polygon fill="black" stroke="black" stroke-width="2" points="168.5,-398.06 165,-388.06 161.5,-398.06 168.5,-398.06"/>
<text text-anchor="start" x="167" y="-457.8" font-family="Arial" font-weight="bold" font-size="14.00">shape:</text>
<text text-anchor="start" x="215" y="-456.8" font-family="Arial" font-size="14.00">(1, 1280)</text>
<text text-anchor="start" x="167" y="-438.8" font-family="Arial" font-weight="bold" font-size="14.00">dtype:</text>
<text text-anchor="start" x="215" y="-437.8" font-family="Arial" font-size="14.00">torch.float32</text>
</g>
</g>
</svg>
