<?xml version="1.0" encoding="UTF-8" standalone="no"?>
<!DOCTYPE svg PUBLIC "-//W3C//DTD SVG 1.1//EN"
 "http://www.w3.org/Graphics/SVG/1.1/DTD/svg11.dtd">
<!-- Generated by graphviz version 2.50.0 (0)
 -->
<!-- Pages: 1 -->
<svg width="338pt" height="2028pt"
 viewBox="0.00 0.00 338.00 2028.00" xmlns="http://www.w3.org/2000/svg" xmlns:xlink="http://www.w3.org/1999/xlink">
<g id="graph0" class="graph" transform="scale(1 1) rotate(0) translate(4 2024)">
<polygon fill="white" stroke="transparent" points="-4,4 -4,-2024 334,-2024 334,4 -4,4"/>
<text text-anchor="start" x="82" y="-1978.6" font-family="Arial" font-weight="bold" font-size="48.00">ResNet</text>
<text text-anchor="start" x="34.5" y="-1957.8" font-family="Arial" font-weight="bold" font-size="14.00">Source: </text>
<text text-anchor="start" x="89.5" y="-1957.8" font-family="Arial" font-size="14.00"> torchvision.models.resnet v0.13.1</text>
<text text-anchor="start" x="125" y="-1943.8" font-family="Arial" font-weight="bold" font-size="14.00">NNViz </text>
<text text-anchor="start" x="168" y="-1943.8" font-family="Arial" font-size="14.00">v0.5.0</text>
<text text-anchor="start" x="163" y="-1929.8" font-family="Arial" font-size="14.00"> </text>
<g id="clust2" class="cluster">
<title>cluster_layer1</title>
<path fill="#e7e7e7" stroke="black" d="M79,-1130C79,-1130 251,-1130 251,-1130 257,-1130 263,-1136 263,-1142 263,-1142 263,-1330 263,-1330 263,-1336 257,-1342 251,-1342 251,-1342 79,-1342 79,-1342 73,-1342 67,-1336 67,-1330 67,-1330 67,-1142 67,-1142 67,-1136 73,-1130 79,-1130"/>
<text text-anchor="start" x="75" y="-1324.6" font-family="Arial" font-weight="bold" font-size="18.00">layer1</text>
</g>
<g id="clust1" class="cluster">
<title>cluster_layer2</title>
<path fill="#e7e7e7" stroke="black" d="M75,-910C75,-910 255,-910 255,-910 261,-910 267,-916 267,-922 267,-922 267,-1110 267,-1110 267,-1116 261,-1122 255,-1122 255,-1122 75,-1122 75,-1122 69,-1122 63,-1116 63,-1110 63,-1110 63,-922 63,-922 63,-916 69,-910 75,-910"/>
<text text-anchor="start" x="71" y="-1104.6" font-family="Arial" font-weight="bold" font-size="18.00">layer2</text>
</g>
<g id="clust3" class="cluster">
<title>cluster_layer3</title>
<path fill="#e7e7e7" stroke="black" d="M75,-690C75,-690 255,-690 255,-690 261,-690 267,-696 267,-702 267,-702 267,-890 267,-890 267,-896 261,-902 255,-902 255,-902 75,-902 75,-902 69,-902 63,-896 63,-890 63,-890 63,-702 63,-702 63,-696 69,-690 75,-690"/>
<text text-anchor="start" x="71" y="-884.6" font-family="Arial" font-weight="bold" font-size="18.00">layer3</text>
</g>
<g id="clust4" class="cluster">
<title>cluster_layer4</title>
<path fill="#e7e7e7" stroke="black" d="M77,-470C77,-470 253,-470 253,-470 259,-470 265,-476 265,-482 265,-482 265,-670 265,-670 265,-676 259,-682 253,-682 253,-682 77,-682 77,-682 71,-682 65,-676 65,-670 65,-670 65,-482 65,-482 65,-476 71,-470 77,-470"/>
<text text-anchor="start" x="73" y="-664.6" font-family="Arial" font-weight="bold" font-size="18.00">layer4</text>
</g>
<!-- layer2_1 -->
<g id="node1" class="node">
<title>layer2_1</title>
<path fill="#842c5d" stroke="#842c5d" d="M246.5,-984C246.5,-984 83.5,-984 83.5,-984 77.5,-984 71.5,-978 71.5,-972 71.5,-972 71.5,-930 71.5,-930 71.5,-924 77.5,-918 83.5,-918 83.5,-918 246.5,-918 246.5,-918 252.5,-918 258.5,-924 258.5,-930 258.5,-930 258.5,-972 258.5,-972 258.5,-978 252.5,-984 246.5,-984"/>
<text text-anchor="start" x="119.5" y="-958.8" font-family="Arial" font-weight="bold" font-size="24.00" fill="white">layer2.1</text>
<text text-anchor="start" x="85.5" y="-928.8" font-family="Arial" font-weight="bold" font-size="14.00" fill="white">params</text>
<text text-anchor="start" x="134.5" y="-928.8" font-family="Arial" font-size="14.00" fill="white">: 295.42K (2.53%)</text>
</g>
<!-- layer3_0 -->
<g id="node5" class="node">
<title>layer3_0</title>
<path fill="#447eba" stroke="#447eba" d="M246.5,-866C246.5,-866 83.5,-866 83.5,-866 77.5,-866 71.5,-860 71.5,-854 71.5,-854 71.5,-812 71.5,-812 71.5,-806 77.5,-800 83.5,-800 83.5,-800 246.5,-800 246.5,-800 252.5,-800 258.5,-806 258.5,-812 258.5,-812 258.5,-854 258.5,-854 258.5,-860 252.5,-866 246.5,-866"/>
<text text-anchor="start" x="119.5" y="-840.8" font-family="Arial" font-weight="bold" font-size="24.00" fill="white">layer3.0</text>
<text text-anchor="start" x="85.5" y="-810.8" font-family="Arial" font-weight="bold" font-size="14.00" fill="white">params</text>
<text text-anchor="start" x="134.5" y="-810.8" font-family="Arial" font-size="14.00" fill="white">: 919.04K (7.86%)</text>
</g>
<!-- layer2_1&#45;&gt;layer3_0 -->
<g id="edge9" class="edge">
<title>layer2_1&#45;&gt;layer3_0</title>
<path fill="none" stroke="black" stroke-width="2" d="M165,-918C165,-905.17 165,-890.21 165,-876.49"/>
<polygon fill="black" stroke="black" stroke-width="2" points="168.5,-876.3 165,-866.3 161.5,-876.3 168.5,-876.3"/>
</g>
<!-- layer2_0 -->
<g id="node2" class="node">
<title>layer2_0</title>
<path fill="#842c5d" stroke="#842c5d" d="M246.5,-1086C246.5,-1086 83.5,-1086 83.5,-1086 77.5,-1086 71.5,-1080 71.5,-1074 71.5,-1074 71.5,-1032 71.5,-1032 71.5,-1026 77.5,-1020 83.5,-1020 83.5,-1020 246.5,-1020 246.5,-1020 252.5,-1020 258.5,-1026 258.5,-1032 258.5,-1032 258.5,-1074 258.5,-1074 258.5,-1080 252.5,-1086 246.5,-1086"/>
<text text-anchor="start" x="119.5" y="-1060.8" font-family="Arial" font-weight="bold" font-size="24.00" fill="white">layer2.0</text>
<text text-anchor="start" x="85.5" y="-1030.8" font-family="Arial" font-weight="bold" font-size="14.00" fill="white">params</text>
<text text-anchor="start" x="134.5" y="-1030.8" font-family="Arial" font-size="14.00" fill="white">: 230.14K (1.97%)</text>
</g>
<!-- layer2_0&#45;&gt;layer2_1 -->
<g id="edge14" class="edge">
<title>layer2_0&#45;&gt;layer2_1</title>
<path fill="none" stroke="black" stroke-width="2" d="M165,-1019.81C165,-1011.69 165,-1002.85 165,-994.32"/>
<polygon fill="black" stroke="black" stroke-width="2" points="168.5,-994.13 165,-984.13 161.5,-994.13 168.5,-994.13"/>
</g>
<!-- layer1_0 -->
<g id="node3" class="node">
<title>layer1_0</title>
<path fill="#764bc9" stroke="#764bc9" d="M243,-1306C243,-1306 87,-1306 87,-1306 81,-1306 75,-1300 75,-1294 75,-1294 75,-1252 75,-1252 75,-1246 81,-1240 87,-1240 87,-1240 243,-1240 243,-1240 249,-1240 255,-1246 255,-1252 255,-1252 255,-1294 255,-1294 255,-1300 249,-1306 243,-1306"/>
<text text-anchor="start" x="119.5" y="-1280.8" font-family="Arial" font-weight="bold" font-size="24.00" fill="white">layer1.0</text>
<text text-anchor="start" x="89" y="-1250.8" font-family="Arial" font-weight="bold" font-size="14.00" fill="white">params</text>
<text text-anchor="start" x="138" y="-1250.8" font-family="Arial" font-size="14.00" fill="white">: 73.98K (0.63%)</text>
</g>
<!-- layer1_1 -->
<g id="node4" class="node">
<title>layer1_1</title>
<path fill="#764bc9" stroke="#764bc9" d="M243,-1204C243,-1204 87,-1204 87,-1204 81,-1204 75,-1198 75,-1192 75,-1192 75,-1150 75,-1150 75,-1144 81,-1138 87,-1138 87,-1138 243,-1138 243,-1138 249,-1138 255,-1144 255,-1150 255,-1150 255,-1192 255,-1192 255,-1198 249,-1204 243,-1204"/>
<text text-anchor="start" x="119.5" y="-1178.8" font-family="Arial" font-weight="bold" font-size="24.00" fill="white">layer1.1</text>
<text text-anchor="start" x="89" y="-1148.8" font-family="Arial" font-weight="bold" font-size="14.00" fill="white">params</text>
<text text-anchor="start" x="138" y="-1148.8" font-family="Arial" font-size="14.00" fill="white">: 73.98K (0.63%)</text>
</g>
<!-- layer1_0&#45;&gt;layer1_1 -->
<g id="edge13" class="edge">
<title>layer1_0&#45;&gt;layer1_1</title>
<path fill="none" stroke="black" stroke-width="2" d="M165,-1239.81C165,-1231.69 165,-1222.85 165,-1214.32"/>
<polygon fill="black" stroke="black" stroke-width="2" points="168.5,-1214.13 165,-1204.13 161.5,-1214.13 168.5,-1214.13"/>
</g>
<!-- layer1_1&#45;&gt;layer2_0 -->
<g id="edge16" class="edge">
<title>layer1_1&#45;&gt;layer2_0</title>
<path fill="none" stroke="black" stroke-width="2" d="M165,-1138C165,-1125.17 165,-1110.21 165,-1096.49"/>
<polygon fill="black" stroke="black" stroke-width="2" points="168.5,-1096.3 165,-1086.3 161.5,-1096.3 168.5,-1096.3"/>
</g>
<!-- layer3_1 -->
<g id="node6" class="node">
<title>layer3_1</title>
<path fill="#447eba" stroke="#447eba" d="M244.5,-764C244.5,-764 85.5,-764 85.5,-764 79.5,-764 73.5,-758 73.5,-752 73.5,-752 73.5,-710 73.5,-710 73.5,-704 79.5,-698 85.5,-698 85.5,-698 244.5,-698 244.5,-698 250.5,-698 256.5,-704 256.5,-710 256.5,-710 256.5,-752 256.5,-752 256.5,-758 250.5,-764 244.5,-764"/>
<text text-anchor="start" x="119.5" y="-738.8" font-family="Arial" font-weight="bold" font-size="24.00" fill="white">layer3.1</text>
<text text-anchor="start" x="87.5" y="-708.8" font-family="Arial" font-weight="bold" font-size="14.00" fill="white">params</text>
<text text-anchor="start" x="136.5" y="-708.8" font-family="Arial" font-size="14.00" fill="white">: 1.18M (10.10%)</text>
</g>
<!-- layer3_0&#45;&gt;layer3_1 -->
<g id="edge10" class="edge">
<title>layer3_0&#45;&gt;layer3_1</title>
<path fill="none" stroke="black" stroke-width="2" d="M165,-799.81C165,-791.69 165,-782.85 165,-774.32"/>
<polygon fill="black" stroke="black" stroke-width="2" points="168.5,-774.13 165,-764.13 161.5,-774.13 168.5,-774.13"/>
</g>
<!-- layer4_0 -->
<g id="node7" class="node">
<title>layer4_0</title>
<path fill="#58c494" stroke="#58c494" d="M244.5,-646C244.5,-646 85.5,-646 85.5,-646 79.5,-646 73.5,-640 73.5,-634 73.5,-634 73.5,-592 73.5,-592 73.5,-586 79.5,-580 85.5,-580 85.5,-580 244.5,-580 244.5,-580 250.5,-580 256.5,-586 256.5,-592 256.5,-592 256.5,-634 256.5,-634 256.5,-640 250.5,-646 244.5,-646"/>
<text text-anchor="start" x="119.5" y="-620.8" font-family="Arial" font-weight="bold" font-size="24.00">layer4.0</text>
<text text-anchor="start" x="87.5" y="-590.8" font-family="Arial" font-weight="bold" font-size="14.00">params</text>
<text text-anchor="start" x="136.5" y="-590.8" font-family="Arial" font-size="14.00">: 3.67M (31.42%)</text>
</g>
<!-- layer3_1&#45;&gt;layer4_0 -->
<g id="edge11" class="edge">
<title>layer3_1&#45;&gt;layer4_0</title>
<path fill="none" stroke="black" stroke-width="2" d="M165,-698C165,-685.17 165,-670.21 165,-656.49"/>
<polygon fill="black" stroke="black" stroke-width="2" points="168.5,-656.3 165,-646.3 161.5,-656.3 168.5,-656.3"/>
</g>
<!-- layer4_1 -->
<g id="node8" class="node">
<title>layer4_1</title>
<path fill="#58c494" stroke="#58c494" d="M244.5,-544C244.5,-544 85.5,-544 85.5,-544 79.5,-544 73.5,-538 73.5,-532 73.5,-532 73.5,-490 73.5,-490 73.5,-484 79.5,-478 85.5,-478 85.5,-478 244.5,-478 244.5,-478 250.5,-478 256.5,-484 256.5,-490 256.5,-490 256.5,-532 256.5,-532 256.5,-538 250.5,-544 244.5,-544"/>
<text text-anchor="start" x="119.5" y="-518.8" font-family="Arial" font-weight="bold" font-size="24.00">layer4.1</text>
<text text-anchor="start" x="87.5" y="-488.8" font-family="Arial" font-weight="bold" font-size="14.00">params</text>
<text text-anchor="start" x="136.5" y="-488.8" font-family="Arial" font-size="14.00">: 4.72M (40.38%)</text>
</g>
<!-- layer4_0&#45;&gt;layer4_1 -->
<g id="edge12" class="edge">
<title>layer4_0&#45;&gt;layer4_1</title>
<path fill="none" stroke="black" stroke-width="2" d="M165,-579.81C165,-571.69 165,-562.85 165,-554.32"/>
<polygon fill="black" stroke="black" stroke-width="2" points="168.5,-554.13 165,-544.13 161.5,-554.13 168.5,-554.13"/>
</g>
<!-- avgpool -->
<g id="node14" class="node">
<title>avgpool</title>
<path fill="#4a4e8f" stroke="#4a4e8f" d="M318,-442C318,-442 12,-442 12,-442 6,-442 0,-436 0,-430 0,-430 0,-374 0,-374 0,-368 6,-362 12,-362 12,-362 318,-362 318,-362 324,-362 330,-368 330,-374 330,-374 330,-430 330,-430 330,-436 324,-442 318,-442"/>
<text text-anchor="start" x="50.5" y="-416.8" font-family="Arial" font-weight="bold" font-size="24.00" fill="white">AdaptiveAvgPool2d</text>
<text text-anchor="start" x="141" y="-400.8" font-family="Arial" font-style="italic" font-size="14.00" fill="white">avgpool</text>
<text text-anchor="start" x="14" y="-372.8" font-family="Arial" font-weight="bold" font-size="14.00" fill="white">src</text>
<text text-anchor="start" x="35" y="-372.8" font-family="Arial" font-size="14.00" fill="white">: torch.nn.modules.pooling.AdaptiveAvgPool2d</text>
</g>
<!-- layer4_1&#45;&gt;avgpool -->
<g id="edge15" class="edge">
<title>layer4_1&#45;&gt;avgpool</title>
<path fill="none" stroke="black" stroke-width="2" d="M165,-477.9C165,-469.84 165,-461.02 165,-452.34"/>
<polygon fill="black" stroke="black" stroke-width="2" points="168.5,-452.27 165,-442.27 161.5,-452.27 168.5,-452.27"/>
</g>
<!-- x -->
<g id="node9" class="node">
<title>x</title>
<path fill="#000000" stroke="#000000" d="M197.5,-1922C197.5,-1922 132.5,-1922 132.5,-1922 126.5,-1922 120.5,-1916 120.5,-1910 120.5,-1910 120.5,-1882 120.5,-1882 120.5,-1876 126.5,-1870 132.5,-1870 132.5,-1870 197.5,-1870 197.5,-1870 203.5,-1870 209.5,-1876 209.5,-1882 209.5,-1882 209.5,-1910 209.5,-1910 209.5,-1916 203.5,-1922 197.5,-1922"/>
<text text-anchor="start" x="134.5" y="-1896.8" font-family="Arial" font-weight="bold" font-size="24.00" fill="white">Input</text>
<text text-anchor="start" x="161.5" y="-1880.8" font-family="Arial" font-style="italic" font-size="14.00" fill="white">x</text>
</g>
<!-- conv1 -->
<g id="node10" class="node">
<title>conv1</title>
<path fill="#444380" stroke="#444380" d="M274.5,-1834C274.5,-1834 55.5,-1834 55.5,-1834 49.5,-1834 43.5,-1828 43.5,-1822 43.5,-1822 43.5,-1738 43.5,-1738 43.5,-1732 49.5,-1726 55.5,-1726 55.5,-1726 274.5,-1726 274.5,-1726 280.5,-1726 286.5,-1732 286.5,-1738 286.5,-1738 286.5,-1822 286.5,-1822 286.5,-1828 280.5,-1834 274.5,-1834"/>
<text text-anchor="start" x="120" y="-1808.8" font-family="Arial" font-weight="bold" font-size="24.00" fill="white">Conv2d</text>
<text text-anchor="start" x="146.5" y="-1792.8" font-family="Arial" font-style="italic" font-size="14.00" fill="white">conv1</text>
<text text-anchor="start" x="93" y="-1764.8" font-family="Arial" font-weight="bold" font-size="14.00" fill="white">params</text>
<text text-anchor="start" x="142" y="-1764.8" font-family="Arial" font-size="14.00" fill="white">: 9.41K (0.08%)</text>
<text text-anchor="start" x="57.5" y="-1736.8" font-family="Arial" font-weight="bold" font-size="14.00" fill="white">src</text>
<text text-anchor="start" x="78.5" y="-1736.8" font-family="Arial" font-size="14.00" fill="white">: torch.nn.modules.conv.Conv2d</text>
</g>
<!-- x&#45;&gt;conv1 -->
<g id="edge1" class="edge">
<title>x&#45;&gt;conv1</title>
<path fill="none" stroke="black" stroke-width="2" d="M165,-1869.98C165,-1862.18 165,-1853.21 165,-1844.02"/>
<polygon fill="black" stroke="black" stroke-width="2" points="168.5,-1844.01 165,-1834.01 161.5,-1844.01 168.5,-1844.01"/>
</g>
<!-- bn1 -->
<g id="node11" class="node">
<title>bn1</title>
<path fill="#52406b" stroke="#52406b" d="M311.5,-1690C311.5,-1690 18.5,-1690 18.5,-1690 12.5,-1690 6.5,-1684 6.5,-1678 6.5,-1678 6.5,-1594 6.5,-1594 6.5,-1588 12.5,-1582 18.5,-1582 18.5,-1582 311.5,-1582 311.5,-1582 317.5,-1582 323.5,-1588 323.5,-1594 323.5,-1594 323.5,-1678 323.5,-1678 323.5,-1684 317.5,-1690 311.5,-1690"/>
<text text-anchor="start" x="85.5" y="-1664.8" font-family="Arial" font-weight="bold" font-size="24.00" fill="white">BatchNorm2d</text>
<text text-anchor="start" x="153.5" y="-1648.8" font-family="Arial" font-style="italic" font-size="14.00" fill="white">bn1</text>
<text text-anchor="start" x="99.5" y="-1620.8" font-family="Arial" font-weight="bold" font-size="14.00" fill="white">params</text>
<text text-anchor="start" x="148.5" y="-1620.8" font-family="Arial" font-size="14.00" fill="white">: 128 (0.00%)</text>
<text text-anchor="start" x="20.5" y="-1592.8" font-family="Arial" font-weight="bold" font-size="14.00" fill="white">src</text>
<text text-anchor="start" x="41.5" y="-1592.8" font-family="Arial" font-size="14.00" fill="white">: torch.nn.modules.batchnorm.BatchNorm2d</text>
</g>
<!-- conv1&#45;&gt;bn1 -->
<g id="edge2" class="edge">
<title>conv1&#45;&gt;bn1</title>
<path fill="none" stroke="black" stroke-width="2" d="M165,-1725.72C165,-1717.44 165,-1708.82 165,-1700.34"/>
<polygon fill="black" stroke="black" stroke-width="2" points="168.5,-1700.11 165,-1690.11 161.5,-1700.11 168.5,-1700.11"/>
</g>
<!-- relu -->
<g id="node12" class="node">
<title>relu</title>
<path fill="#555580" stroke="#555580" d="M283,-1546C283,-1546 47,-1546 47,-1546 41,-1546 35,-1540 35,-1534 35,-1534 35,-1478 35,-1478 35,-1472 41,-1466 47,-1466 47,-1466 283,-1466 283,-1466 289,-1466 295,-1472 295,-1478 295,-1478 295,-1534 295,-1534 295,-1540 289,-1546 283,-1546"/>
<text text-anchor="start" x="133" y="-1520.8" font-family="Arial" font-weight="bold" font-size="24.00" fill="white">ReLU</text>
<text text-anchor="start" x="153.5" y="-1504.8" font-family="Arial" font-style="italic" font-size="14.00" fill="white">relu</text>
<text text-anchor="start" x="49" y="-1476.8" font-family="Arial" font-weight="bold" font-size="14.00" fill="white">src</text>
<text text-anchor="start" x="70" y="-1476.8" font-family="Arial" font-size="14.00" fill="white">: torch.nn.modules.activation.ReLU</text>
</g>
<!-- bn1&#45;&gt;relu -->
<g id="edge3" class="edge">
<title>bn1&#45;&gt;relu</title>
<path fill="none" stroke="black" stroke-width="2" d="M165,-1581.83C165,-1573.33 165,-1564.57 165,-1556.17"/>
<polygon fill="black" stroke="black" stroke-width="2" points="168.5,-1556.15 165,-1546.15 161.5,-1556.15 168.5,-1556.15"/>
</g>
<!-- maxpool -->
<g id="node13" class="node">
<title>maxpool</title>
<path fill="#455392" stroke="#455392" d="M293.5,-1430C293.5,-1430 36.5,-1430 36.5,-1430 30.5,-1430 24.5,-1424 24.5,-1418 24.5,-1418 24.5,-1362 24.5,-1362 24.5,-1356 30.5,-1350 36.5,-1350 36.5,-1350 293.5,-1350 293.5,-1350 299.5,-1350 305.5,-1356 305.5,-1362 305.5,-1362 305.5,-1418 305.5,-1418 305.5,-1424 299.5,-1430 293.5,-1430"/>
<text text-anchor="start" x="100.5" y="-1404.8" font-family="Arial" font-weight="bold" font-size="24.00" fill="white">MaxPool2d</text>
<text text-anchor="start" x="139" y="-1388.8" font-family="Arial" font-style="italic" font-size="14.00" fill="white">maxpool</text>
<text text-anchor="start" x="38.5" y="-1360.8" font-family="Arial" font-weight="bold" font-size="14.00" fill="white">src</text>
<text text-anchor="start" x="59.5" y="-1360.8" font-family="Arial" font-size="14.00" fill="white">: torch.nn.modules.pooling.MaxPool2d</text>
</g>
<!-- relu&#45;&gt;maxpool -->
<g id="edge4" class="edge">
<title>relu&#45;&gt;maxpool</title>
<path fill="none" stroke="black" stroke-width="2" d="M165,-1465.77C165,-1457.62 165,-1448.93 165,-1440.46"/>
<polygon fill="black" stroke="black" stroke-width="2" points="168.5,-1440.3 165,-1430.3 161.5,-1440.3 168.5,-1440.3"/>
</g>
<!-- maxpool&#45;&gt;layer1_0 -->
<g id="edge5" class="edge">
<title>maxpool&#45;&gt;layer1_0</title>
<path fill="none" stroke="black" stroke-width="2" d="M165,-1349.75C165,-1339 165,-1327.3 165,-1316.38"/>
<polygon fill="black" stroke="black" stroke-width="2" points="168.5,-1316.21 165,-1306.21 161.5,-1316.21 168.5,-1316.21"/>
</g>
<!-- flatten -->
<g id="node15" class="node">
<title>flatten</title>
<path fill="#b16342" stroke="#b16342" d="M217,-326C217,-326 113,-326 113,-326 107,-326 101,-320 101,-314 101,-314 101,-244 101,-244 101,-238 107,-232 113,-232 113,-232 217,-232 217,-232 223,-232 229,-238 229,-244 229,-244 229,-314 229,-314 229,-320 223,-326 217,-326"/>
<text text-anchor="start" x="128" y="-300.8" font-family="Arial" font-weight="bold" font-size="24.00" fill="white">flatten</text>
<text text-anchor="start" x="146.5" y="-284.8" font-family="Arial" font-style="italic" font-size="14.00" fill="white">flatten</text>
<text text-anchor="start" x="142.5" y="-270.8" font-family="Arial" font-weight="bold" font-size="14.00" fill="white">args</text>
<text text-anchor="start" x="171.5" y="-270.8" font-family="Arial" font-size="14.00" fill="white">: 1</text>
<text text-anchor="start" x="115" y="-242.8" font-family="Arial" font-weight="bold" font-size="14.00" fill="white">src</text>
<text text-anchor="start" x="136" y="-242.8" font-family="Arial" font-size="14.00" fill="white">: torch.flatten</text>
</g>
<!-- avgpool&#45;&gt;flatten -->
<g id="edge6" class="edge">
<title>avgpool&#45;&gt;flatten</title>
<path fill="none" stroke="black" stroke-width="2" d="M165,-361.71C165,-353.58 165,-344.86 165,-336.26"/>
<polygon fill="black" stroke="black" stroke-width="2" points="168.5,-336.25 165,-326.25 161.5,-336.25 168.5,-336.25"/>
</g>
<!-- fc -->
<g id="node16" class="node">
<title>fc</title>
<path fill="#3a376c" stroke="#3a376c" d="M272.5,-196C272.5,-196 57.5,-196 57.5,-196 51.5,-196 45.5,-190 45.5,-184 45.5,-184 45.5,-100 45.5,-100 45.5,-94 51.5,-88 57.5,-88 57.5,-88 272.5,-88 272.5,-88 278.5,-88 284.5,-94 284.5,-100 284.5,-100 284.5,-184 284.5,-184 284.5,-190 278.5,-196 272.5,-196"/>
<text text-anchor="start" x="128.5" y="-170.8" font-family="Arial" font-weight="bold" font-size="24.00" fill="white">Linear</text>
<text text-anchor="start" x="159.5" y="-154.8" font-family="Arial" font-style="italic" font-size="14.00" fill="white">fc</text>
<text text-anchor="start" x="85.5" y="-126.8" font-family="Arial" font-weight="bold" font-size="14.00" fill="white">params</text>
<text text-anchor="start" x="134.5" y="-126.8" font-family="Arial" font-size="14.00" fill="white">: 513.00K (4.39%)</text>
<text text-anchor="start" x="59.5" y="-98.8" font-family="Arial" font-weight="bold" font-size="14.00" fill="white">src</text>
<text text-anchor="start" x="80.5" y="-98.8" font-family="Arial" font-size="14.00" fill="white">: torch.nn.modules.linear.Linear</text>
</g>
<!-- flatten&#45;&gt;fc -->
<g id="edge7" class="edge">
<title>flatten&#45;&gt;fc</title>
<path fill="none" stroke="black" stroke-width="2" d="M165,-231.92C165,-223.68 165,-214.97 165,-206.35"/>
<polygon fill="black" stroke="black" stroke-width="2" points="168.5,-206.31 165,-196.31 161.5,-206.31 168.5,-206.31"/>
</g>
<!-- output -->
<g id="node17" class="node">
<title>output</title>
<path fill="#000000" stroke="#000000" d="M207.5,-52C207.5,-52 122.5,-52 122.5,-52 116.5,-52 110.5,-46 110.5,-40 110.5,-40 110.5,-12 110.5,-12 110.5,-6 116.5,0 122.5,0 122.5,0 207.5,0 207.5,0 213.5,0 219.5,-6 219.5,-12 219.5,-12 219.5,-40 219.5,-40 219.5,-46 213.5,-52 207.5,-52"/>
<text text-anchor="start" x="124.5" y="-26.8" font-family="Arial" font-weight="bold" font-size="24.00" fill="white">Output</text>
<text text-anchor="start" x="146" y="-10.8" font-family="Arial" font-style="italic" font-size="14.00" fill="white">output</text>
</g>
<!-- fc&#45;&gt;output -->
<g id="edge8" class="edge">
<title>fc&#45;&gt;output</title>
<path fill="none" stroke="black" stroke-width="2" d="M165,-87.67C165,-79.05 165,-70.31 165,-62.26"/>
<polygon fill="black" stroke="black" stroke-width="2" points="168.5,-62.13 165,-52.13 161.5,-62.13 168.5,-62.13"/>
</g>
</g>
</svg>
