<?xml version="1.0" encoding="UTF-8" standalone="no"?>
<!DOCTYPE svg PUBLIC "-//W3C//DTD SVG 1.1//EN"
 "http://www.w3.org/Graphics/SVG/1.1/DTD/svg11.dtd">
<!-- Generated by graphviz version 2.50.0 (0)
 -->
<!-- Pages: 1 -->
<svg width="395pt" height="2684pt"
 viewBox="0.00 0.00 395.00 2684.00" xmlns="http://www.w3.org/2000/svg" xmlns:xlink="http://www.w3.org/1999/xlink">
<g id="graph0" class="graph" transform="scale(1 1) rotate(0) translate(4 2680)">
<polygon fill="white" stroke="transparent" points="-4,4 -4,-2680 391,-2680 391,4 -4,4"/>
<text text-anchor="start" x="110.5" y="-2634.6" font-family="Arial" font-weight="bold" font-size="48.00">ResNet</text>
<text text-anchor="start" x="63" y="-2613.8" font-family="Arial" font-weight="bold" font-size="14.00">Source: </text>
<text text-anchor="start" x="118" y="-2613.8" font-family="Arial" font-size="14.00"> torchvision.models.resnet v0.13.1</text>
<text text-anchor="start" x="153.5" y="-2599.8" font-family="Arial" font-weight="bold" font-size="14.00">NNViz </text>
<text text-anchor="start" x="196.5" y="-2599.8" font-family="Arial" font-size="14.00">v0.5.0</text>
<text text-anchor="start" x="191.5" y="-2585.8" font-family="Arial" font-size="14.00"> </text>
<g id="clust2" class="cluster">
<title>cluster_layer3</title>
<path fill="#e7e7e7" stroke="black" d="M77,-928C77,-928 307,-928 307,-928 313,-928 319,-934 319,-940 319,-940 319,-1166 319,-1166 319,-1172 313,-1178 307,-1178 307,-1178 77,-1178 77,-1178 71,-1178 65,-1172 65,-1166 65,-1166 65,-940 65,-940 65,-934 71,-928 77,-928"/>
<text text-anchor="start" x="73" y="-1160.6" font-family="Arial" font-weight="bold" font-size="18.00">layer3</text>
</g>
<g id="clust1" class="cluster">
<title>cluster_layer1</title>
<path fill="#e7e7e7" stroke="black" d="M81,-1540C81,-1540 311,-1540 311,-1540 317,-1540 323,-1546 323,-1552 323,-1552 323,-1778 323,-1778 323,-1784 317,-1790 311,-1790 311,-1790 81,-1790 81,-1790 75,-1790 69,-1784 69,-1778 69,-1778 69,-1552 69,-1552 69,-1546 75,-1540 81,-1540"/>
<text text-anchor="start" x="77" y="-1772.6" font-family="Arial" font-weight="bold" font-size="18.00">layer1</text>
</g>
<g id="clust4" class="cluster">
<title>cluster_layer2</title>
<path fill="#e7e7e7" stroke="black" d="M77,-1234C77,-1234 307,-1234 307,-1234 313,-1234 319,-1240 319,-1246 319,-1246 319,-1472 319,-1472 319,-1478 313,-1484 307,-1484 307,-1484 77,-1484 77,-1484 71,-1484 65,-1478 65,-1472 65,-1472 65,-1246 65,-1246 65,-1240 71,-1234 77,-1234"/>
<text text-anchor="start" x="73" y="-1466.6" font-family="Arial" font-weight="bold" font-size="18.00">layer2</text>
</g>
<g id="clust3" class="cluster">
<title>cluster_layer4</title>
<path fill="#e7e7e7" stroke="black" d="M77,-622C77,-622 307,-622 307,-622 313,-622 319,-628 319,-634 319,-634 319,-860 319,-860 319,-866 313,-872 307,-872 307,-872 77,-872 77,-872 71,-872 65,-866 65,-860 65,-860 65,-634 65,-634 65,-628 71,-622 77,-622"/>
<text text-anchor="start" x="73" y="-854.6" font-family="Arial" font-weight="bold" font-size="18.00">layer4</text>
</g>
<!-- layer1_0 -->
<g id="node1" class="node">
<title>layer1_0</title>
<path fill="#447eba" stroke="#447eba" d="M245,-1754C245,-1754 89,-1754 89,-1754 83,-1754 77,-1748 77,-1742 77,-1742 77,-1700 77,-1700 77,-1694 83,-1688 89,-1688 89,-1688 245,-1688 245,-1688 251,-1688 257,-1694 257,-1700 257,-1700 257,-1742 257,-1742 257,-1748 251,-1754 245,-1754"/>
<text text-anchor="start" x="121.5" y="-1728.8" font-family="Arial" font-weight="bold" font-size="24.00" fill="white">layer1.0</text>
<text text-anchor="start" x="91" y="-1698.8" font-family="Arial" font-weight="bold" font-size="14.00" fill="white">params</text>
<text text-anchor="start" x="140" y="-1698.8" font-family="Arial" font-size="14.00" fill="white">: 73.98K (0.63%)</text>
</g>
<!-- layer1_1 -->
<g id="node2" class="node">
<title>layer1_1</title>
<path fill="#447eba" stroke="#447eba" d="M245,-1614C245,-1614 89,-1614 89,-1614 83,-1614 77,-1608 77,-1602 77,-1602 77,-1560 77,-1560 77,-1554 83,-1548 89,-1548 89,-1548 245,-1548 245,-1548 251,-1548 257,-1554 257,-1560 257,-1560 257,-1602 257,-1602 257,-1608 251,-1614 245,-1614"/>
<text text-anchor="start" x="121.5" y="-1588.8" font-family="Arial" font-weight="bold" font-size="24.00" fill="white">layer1.1</text>
<text text-anchor="start" x="91" y="-1558.8" font-family="Arial" font-weight="bold" font-size="14.00" fill="white">params</text>
<text text-anchor="start" x="140" y="-1558.8" font-family="Arial" font-size="14.00" fill="white">: 73.98K (0.63%)</text>
</g>
<!-- layer1_0&#45;&gt;layer1_1 -->
<g id="edge11" class="edge">
<title>layer1_0&#45;&gt;layer1_1</title>
<path fill="none" stroke="black" stroke-width="2" d="M167,-1687.99C167,-1669.06 167,-1644.84 167,-1624.34"/>
<polygon fill="black" stroke="black" stroke-width="2" points="170.5,-1624.31 167,-1614.31 163.5,-1624.31 170.5,-1624.31"/>
<text text-anchor="start" x="169" y="-1657.8" font-family="Arial" font-weight="bold" font-size="14.00">shape:</text>
<text text-anchor="start" x="217" y="-1656.8" font-family="Arial" font-size="14.00">(1, 64, 56, 56)</text>
<text text-anchor="start" x="169" y="-1638.8" font-family="Arial" font-weight="bold" font-size="14.00">dtype:</text>
<text text-anchor="start" x="217" y="-1637.8" font-family="Arial" font-size="14.00">torch.float32</text>
</g>
<!-- layer2_0 -->
<g id="node7" class="node">
<title>layer2_0</title>
<path fill="#764bc9" stroke="#764bc9" d="M248.5,-1448C248.5,-1448 85.5,-1448 85.5,-1448 79.5,-1448 73.5,-1442 73.5,-1436 73.5,-1436 73.5,-1394 73.5,-1394 73.5,-1388 79.5,-1382 85.5,-1382 85.5,-1382 248.5,-1382 248.5,-1382 254.5,-1382 260.5,-1388 260.5,-1394 260.5,-1394 260.5,-1436 260.5,-1436 260.5,-1442 254.5,-1448 248.5,-1448"/>
<text text-anchor="start" x="121.5" y="-1422.8" font-family="Arial" font-weight="bold" font-size="24.00" fill="white">layer2.0</text>
<text text-anchor="start" x="87.5" y="-1392.8" font-family="Arial" font-weight="bold" font-size="14.00" fill="white">params</text>
<text text-anchor="start" x="136.5" y="-1392.8" font-family="Arial" font-size="14.00" fill="white">: 230.14K (1.97%)</text>
</g>
<!-- layer1_1&#45;&gt;layer2_0 -->
<g id="edge12" class="edge">
<title>layer1_1&#45;&gt;layer2_0</title>
<path fill="none" stroke="black" stroke-width="2" d="M167,-1547.99C167,-1522.45 167,-1486.44 167,-1458.49"/>
<polygon fill="black" stroke="black" stroke-width="2" points="170.5,-1458.21 167,-1448.21 163.5,-1458.21 170.5,-1458.21"/>
<text text-anchor="start" x="169" y="-1517.8" font-family="Arial" font-weight="bold" font-size="14.00">shape:</text>
<text text-anchor="start" x="217" y="-1516.8" font-family="Arial" font-size="14.00">(1, 64, 56, 56)</text>
<text text-anchor="start" x="169" y="-1498.8" font-family="Arial" font-weight="bold" font-size="14.00">dtype:</text>
<text text-anchor="start" x="217" y="-1497.8" font-family="Arial" font-size="14.00">torch.float32</text>
</g>
<!-- layer3_0 -->
<g id="node3" class="node">
<title>layer3_0</title>
<path fill="#842c5d" stroke="#842c5d" d="M248.5,-1142C248.5,-1142 85.5,-1142 85.5,-1142 79.5,-1142 73.5,-1136 73.5,-1130 73.5,-1130 73.5,-1088 73.5,-1088 73.5,-1082 79.5,-1076 85.5,-1076 85.5,-1076 248.5,-1076 248.5,-1076 254.5,-1076 260.5,-1082 260.5,-1088 260.5,-1088 260.5,-1130 260.5,-1130 260.5,-1136 254.5,-1142 248.5,-1142"/>
<text text-anchor="start" x="121.5" y="-1116.8" font-family="Arial" font-weight="bold" font-size="24.00" fill="white">layer3.0</text>
<text text-anchor="start" x="87.5" y="-1086.8" font-family="Arial" font-weight="bold" font-size="14.00" fill="white">params</text>
<text text-anchor="start" x="136.5" y="-1086.8" font-family="Arial" font-size="14.00" fill="white">: 919.04K (7.86%)</text>
</g>
<!-- layer3_1 -->
<g id="node4" class="node">
<title>layer3_1</title>
<path fill="#842c5d" stroke="#842c5d" d="M244.5,-1002C244.5,-1002 85.5,-1002 85.5,-1002 79.5,-1002 73.5,-996 73.5,-990 73.5,-990 73.5,-948 73.5,-948 73.5,-942 79.5,-936 85.5,-936 85.5,-936 244.5,-936 244.5,-936 250.5,-936 256.5,-942 256.5,-948 256.5,-948 256.5,-990 256.5,-990 256.5,-996 250.5,-1002 244.5,-1002"/>
<text text-anchor="start" x="119.5" y="-976.8" font-family="Arial" font-weight="bold" font-size="24.00" fill="white">layer3.1</text>
<text text-anchor="start" x="87.5" y="-946.8" font-family="Arial" font-weight="bold" font-size="14.00" fill="white">params</text>
<text text-anchor="start" x="136.5" y="-946.8" font-family="Arial" font-size="14.00" fill="white">: 1.18M (10.10%)</text>
</g>
<!-- layer3_0&#45;&gt;layer3_1 -->
<g id="edge9" class="edge">
<title>layer3_0&#45;&gt;layer3_1</title>
<path fill="none" stroke="black" stroke-width="2" d="M166.54,-1075.99C166.26,-1057.06 165.91,-1032.84 165.61,-1012.34"/>
<polygon fill="black" stroke="black" stroke-width="2" points="169.11,-1012.26 165.47,-1002.31 162.11,-1012.36 169.11,-1012.26"/>
<text text-anchor="start" x="168" y="-1045.8" font-family="Arial" font-weight="bold" font-size="14.00">shape:</text>
<text text-anchor="start" x="216" y="-1044.8" font-family="Arial" font-size="14.00">(1, 256, 14, 14)</text>
<text text-anchor="start" x="168" y="-1026.8" font-family="Arial" font-weight="bold" font-size="14.00">dtype:</text>
<text text-anchor="start" x="216" y="-1025.8" font-family="Arial" font-size="14.00">torch.float32</text>
</g>
<!-- layer4_0 -->
<g id="node5" class="node">
<title>layer4_0</title>
<path fill="#58c494" stroke="#58c494" d="M244.5,-836C244.5,-836 85.5,-836 85.5,-836 79.5,-836 73.5,-830 73.5,-824 73.5,-824 73.5,-782 73.5,-782 73.5,-776 79.5,-770 85.5,-770 85.5,-770 244.5,-770 244.5,-770 250.5,-770 256.5,-776 256.5,-782 256.5,-782 256.5,-824 256.5,-824 256.5,-830 250.5,-836 244.5,-836"/>
<text text-anchor="start" x="119.5" y="-810.8" font-family="Arial" font-weight="bold" font-size="24.00">layer4.0</text>
<text text-anchor="start" x="87.5" y="-780.8" font-family="Arial" font-weight="bold" font-size="14.00">params</text>
<text text-anchor="start" x="136.5" y="-780.8" font-family="Arial" font-size="14.00">: 3.67M (31.42%)</text>
</g>
<!-- layer3_1&#45;&gt;layer4_0 -->
<g id="edge10" class="edge">
<title>layer3_1&#45;&gt;layer4_0</title>
<path fill="none" stroke="black" stroke-width="2" d="M165,-935.99C165,-910.45 165,-874.44 165,-846.49"/>
<polygon fill="black" stroke="black" stroke-width="2" points="168.5,-846.21 165,-836.21 161.5,-846.21 168.5,-846.21"/>
<text text-anchor="start" x="167" y="-905.8" font-family="Arial" font-weight="bold" font-size="14.00">shape:</text>
<text text-anchor="start" x="215" y="-904.8" font-family="Arial" font-size="14.00">(1, 256, 14, 14)</text>
<text text-anchor="start" x="167" y="-886.8" font-family="Arial" font-weight="bold" font-size="14.00">dtype:</text>
<text text-anchor="start" x="215" y="-885.8" font-family="Arial" font-size="14.00">torch.float32</text>
</g>
<!-- layer4_1 -->
<g id="node6" class="node">
<title>layer4_1</title>
<path fill="#58c494" stroke="#58c494" d="M244.5,-696C244.5,-696 85.5,-696 85.5,-696 79.5,-696 73.5,-690 73.5,-684 73.5,-684 73.5,-642 73.5,-642 73.5,-636 79.5,-630 85.5,-630 85.5,-630 244.5,-630 244.5,-630 250.5,-630 256.5,-636 256.5,-642 256.5,-642 256.5,-684 256.5,-684 256.5,-690 250.5,-696 244.5,-696"/>
<text text-anchor="start" x="119.5" y="-670.8" font-family="Arial" font-weight="bold" font-size="24.00">layer4.1</text>
<text text-anchor="start" x="87.5" y="-640.8" font-family="Arial" font-weight="bold" font-size="14.00">params</text>
<text text-anchor="start" x="136.5" y="-640.8" font-family="Arial" font-size="14.00">: 4.72M (40.38%)</text>
</g>
<!-- layer4_0&#45;&gt;layer4_1 -->
<g id="edge13" class="edge">
<title>layer4_0&#45;&gt;layer4_1</title>
<path fill="none" stroke="black" stroke-width="2" d="M165,-769.99C165,-751.06 165,-726.84 165,-706.34"/>
<polygon fill="black" stroke="black" stroke-width="2" points="168.5,-706.31 165,-696.31 161.5,-706.31 168.5,-706.31"/>
<text text-anchor="start" x="167" y="-739.8" font-family="Arial" font-weight="bold" font-size="14.00">shape:</text>
<text text-anchor="start" x="215" y="-738.8" font-family="Arial" font-size="14.00">(1, 512, 7, 7)</text>
<text text-anchor="start" x="167" y="-720.8" font-family="Arial" font-weight="bold" font-size="14.00">dtype:</text>
<text text-anchor="start" x="215" y="-719.8" font-family="Arial" font-size="14.00">torch.float32</text>
</g>
<!-- avgpool -->
<g id="node14" class="node">
<title>avgpool</title>
<path fill="#4a4e8f" stroke="#4a4e8f" d="M318,-556C318,-556 12,-556 12,-556 6,-556 0,-550 0,-544 0,-544 0,-488 0,-488 0,-482 6,-476 12,-476 12,-476 318,-476 318,-476 324,-476 330,-482 330,-488 330,-488 330,-544 330,-544 330,-550 324,-556 318,-556"/>
<text text-anchor="start" x="50.5" y="-530.8" font-family="Arial" font-weight="bold" font-size="24.00" fill="white">AdaptiveAvgPool2d</text>
<text text-anchor="start" x="141" y="-514.8" font-family="Arial" font-style="italic" font-size="14.00" fill="white">avgpool</text>
<text text-anchor="start" x="14" y="-486.8" font-family="Arial" font-weight="bold" font-size="14.00" fill="white">src</text>
<text text-anchor="start" x="35" y="-486.8" font-family="Arial" font-size="14.00" fill="white">: torch.nn.modules.pooling.AdaptiveAvgPool2d</text>
</g>
<!-- layer4_1&#45;&gt;avgpool -->
<g id="edge14" class="edge">
<title>layer4_1&#45;&gt;avgpool</title>
<path fill="none" stroke="black" stroke-width="2" d="M165,-629.82C165,-611.11 165,-587.14 165,-566.11"/>
<polygon fill="black" stroke="black" stroke-width="2" points="168.5,-566.06 165,-556.06 161.5,-566.06 168.5,-566.06"/>
<text text-anchor="start" x="167" y="-599.8" font-family="Arial" font-weight="bold" font-size="14.00">shape:</text>
<text text-anchor="start" x="215" y="-598.8" font-family="Arial" font-size="14.00">(1, 512, 7, 7)</text>
<text text-anchor="start" x="167" y="-580.8" font-family="Arial" font-weight="bold" font-size="14.00">dtype:</text>
<text text-anchor="start" x="215" y="-579.8" font-family="Arial" font-size="14.00">torch.float32</text>
</g>
<!-- layer2_1 -->
<g id="node8" class="node">
<title>layer2_1</title>
<path fill="#764bc9" stroke="#764bc9" d="M248.5,-1308C248.5,-1308 85.5,-1308 85.5,-1308 79.5,-1308 73.5,-1302 73.5,-1296 73.5,-1296 73.5,-1254 73.5,-1254 73.5,-1248 79.5,-1242 85.5,-1242 85.5,-1242 248.5,-1242 248.5,-1242 254.5,-1242 260.5,-1248 260.5,-1254 260.5,-1254 260.5,-1296 260.5,-1296 260.5,-1302 254.5,-1308 248.5,-1308"/>
<text text-anchor="start" x="121.5" y="-1282.8" font-family="Arial" font-weight="bold" font-size="24.00" fill="white">layer2.1</text>
<text text-anchor="start" x="87.5" y="-1252.8" font-family="Arial" font-weight="bold" font-size="14.00" fill="white">params</text>
<text text-anchor="start" x="136.5" y="-1252.8" font-family="Arial" font-size="14.00" fill="white">: 295.42K (2.53%)</text>
</g>
<!-- layer2_0&#45;&gt;layer2_1 -->
<g id="edge15" class="edge">
<title>layer2_0&#45;&gt;layer2_1</title>
<path fill="none" stroke="black" stroke-width="2" d="M167,-1381.99C167,-1363.06 167,-1338.84 167,-1318.34"/>
<polygon fill="black" stroke="black" stroke-width="2" points="170.5,-1318.31 167,-1308.31 163.5,-1318.31 170.5,-1318.31"/>
<text text-anchor="start" x="169" y="-1351.8" font-family="Arial" font-weight="bold" font-size="14.00">shape:</text>
<text text-anchor="start" x="217" y="-1350.8" font-family="Arial" font-size="14.00">(1, 128, 28, 28)</text>
<text text-anchor="start" x="169" y="-1332.8" font-family="Arial" font-weight="bold" font-size="14.00">dtype:</text>
<text text-anchor="start" x="217" y="-1331.8" font-family="Arial" font-size="14.00">torch.float32</text>
</g>
<!-- layer2_1&#45;&gt;layer3_0 -->
<g id="edge16" class="edge">
<title>layer2_1&#45;&gt;layer3_0</title>
<path fill="none" stroke="black" stroke-width="2" d="M167,-1241.99C167,-1216.45 167,-1180.44 167,-1152.49"/>
<polygon fill="black" stroke="black" stroke-width="2" points="170.5,-1152.21 167,-1142.21 163.5,-1152.21 170.5,-1152.21"/>
<text text-anchor="start" x="169" y="-1211.8" font-family="Arial" font-weight="bold" font-size="14.00">shape:</text>
<text text-anchor="start" x="217" y="-1210.8" font-family="Arial" font-size="14.00">(1, 128, 28, 28)</text>
<text text-anchor="start" x="169" y="-1192.8" font-family="Arial" font-weight="bold" font-size="14.00">dtype:</text>
<text text-anchor="start" x="217" y="-1191.8" font-family="Arial" font-size="14.00">torch.float32</text>
</g>
<!-- x -->
<g id="node9" class="node">
<title>x</title>
<path fill="#000000" stroke="#000000" d="M199.5,-2578C199.5,-2578 134.5,-2578 134.5,-2578 128.5,-2578 122.5,-2572 122.5,-2566 122.5,-2566 122.5,-2538 122.5,-2538 122.5,-2532 128.5,-2526 134.5,-2526 134.5,-2526 199.5,-2526 199.5,-2526 205.5,-2526 211.5,-2532 211.5,-2538 211.5,-2538 211.5,-2566 211.5,-2566 211.5,-2572 205.5,-2578 199.5,-2578"/>
<text text-anchor="start" x="136.5" y="-2552.8" font-family="Arial" font-weight="bold" font-size="24.00" fill="white">Input</text>
<text text-anchor="start" x="163.5" y="-2536.8" font-family="Arial" font-style="italic" font-size="14.00" fill="white">x</text>
</g>
<!-- conv1 -->
<g id="node10" class="node">
<title>conv1</title>
<path fill="#444380" stroke="#444380" d="M276.5,-2452C276.5,-2452 57.5,-2452 57.5,-2452 51.5,-2452 45.5,-2446 45.5,-2440 45.5,-2440 45.5,-2356 45.5,-2356 45.5,-2350 51.5,-2344 57.5,-2344 57.5,-2344 276.5,-2344 276.5,-2344 282.5,-2344 288.5,-2350 288.5,-2356 288.5,-2356 288.5,-2440 288.5,-2440 288.5,-2446 282.5,-2452 276.5,-2452"/>
<text text-anchor="start" x="122" y="-2426.8" font-family="Arial" font-weight="bold" font-size="24.00" fill="white">Conv2d</text>
<text text-anchor="start" x="148.5" y="-2410.8" font-family="Arial" font-style="italic" font-size="14.00" fill="white">conv1</text>
<text text-anchor="start" x="95" y="-2382.8" font-family="Arial" font-weight="bold" font-size="14.00" fill="white">params</text>
<text text-anchor="start" x="144" y="-2382.8" font-family="Arial" font-size="14.00" fill="white">: 9.41K (0.08%)</text>
<text text-anchor="start" x="59.5" y="-2354.8" font-family="Arial" font-weight="bold" font-size="14.00" fill="white">src</text>
<text text-anchor="start" x="80.5" y="-2354.8" font-family="Arial" font-size="14.00" fill="white">: torch.nn.modules.conv.Conv2d</text>
</g>
<!-- x&#45;&gt;conv1 -->
<g id="edge1" class="edge">
<title>x&#45;&gt;conv1</title>
<path fill="none" stroke="black" stroke-width="2" d="M167,-2525.9C167,-2508.57 167,-2484.71 167,-2462.34"/>
<polygon fill="black" stroke="black" stroke-width="2" points="170.5,-2462.21 167,-2452.21 163.5,-2462.21 170.5,-2462.21"/>
<text text-anchor="start" x="169" y="-2495.8" font-family="Arial" font-weight="bold" font-size="14.00">shape:</text>
<text text-anchor="start" x="217" y="-2494.8" font-family="Arial" font-size="14.00">(1, 3, 224, 224)</text>
<text text-anchor="start" x="169" y="-2476.8" font-family="Arial" font-weight="bold" font-size="14.00">dtype:</text>
<text text-anchor="start" x="217" y="-2475.8" font-family="Arial" font-size="14.00">torch.float32</text>
</g>
<!-- bn1 -->
<g id="node11" class="node">
<title>bn1</title>
<path fill="#52406b" stroke="#52406b" d="M313.5,-2270C313.5,-2270 20.5,-2270 20.5,-2270 14.5,-2270 8.5,-2264 8.5,-2258 8.5,-2258 8.5,-2174 8.5,-2174 8.5,-2168 14.5,-2162 20.5,-2162 20.5,-2162 313.5,-2162 313.5,-2162 319.5,-2162 325.5,-2168 325.5,-2174 325.5,-2174 325.5,-2258 325.5,-2258 325.5,-2264 319.5,-2270 313.5,-2270"/>
<text text-anchor="start" x="87.5" y="-2244.8" font-family="Arial" font-weight="bold" font-size="24.00" fill="white">BatchNorm2d</text>
<text text-anchor="start" x="155.5" y="-2228.8" font-family="Arial" font-style="italic" font-size="14.00" fill="white">bn1</text>
<text text-anchor="start" x="101.5" y="-2200.8" font-family="Arial" font-weight="bold" font-size="14.00" fill="white">params</text>
<text text-anchor="start" x="150.5" y="-2200.8" font-family="Arial" font-size="14.00" fill="white">: 128 (0.00%)</text>
<text text-anchor="start" x="22.5" y="-2172.8" font-family="Arial" font-weight="bold" font-size="14.00" fill="white">src</text>
<text text-anchor="start" x="43.5" y="-2172.8" font-family="Arial" font-size="14.00" fill="white">: torch.nn.modules.batchnorm.BatchNorm2d</text>
</g>
<!-- conv1&#45;&gt;bn1 -->
<g id="edge2" class="edge">
<title>conv1&#45;&gt;bn1</title>
<path fill="none" stroke="black" stroke-width="2" d="M167,-2343.97C167,-2324 167,-2301.11 167,-2280.3"/>
<polygon fill="black" stroke="black" stroke-width="2" points="170.5,-2280.28 167,-2270.28 163.5,-2280.28 170.5,-2280.28"/>
<text text-anchor="start" x="169" y="-2313.8" font-family="Arial" font-weight="bold" font-size="14.00">shape:</text>
<text text-anchor="start" x="217" y="-2312.8" font-family="Arial" font-size="14.00">(1, 64, 112, 112)</text>
<text text-anchor="start" x="169" y="-2294.8" font-family="Arial" font-weight="bold" font-size="14.00">dtype:</text>
<text text-anchor="start" x="217" y="-2293.8" font-family="Arial" font-size="14.00">torch.float32</text>
</g>
<!-- relu -->
<g id="node12" class="node">
<title>relu</title>
<path fill="#555580" stroke="#555580" d="M285,-2088C285,-2088 49,-2088 49,-2088 43,-2088 37,-2082 37,-2076 37,-2076 37,-2020 37,-2020 37,-2014 43,-2008 49,-2008 49,-2008 285,-2008 285,-2008 291,-2008 297,-2014 297,-2020 297,-2020 297,-2076 297,-2076 297,-2082 291,-2088 285,-2088"/>
<text text-anchor="start" x="135" y="-2062.8" font-family="Arial" font-weight="bold" font-size="24.00" fill="white">ReLU</text>
<text text-anchor="start" x="155.5" y="-2046.8" font-family="Arial" font-style="italic" font-size="14.00" fill="white">relu</text>
<text text-anchor="start" x="51" y="-2018.8" font-family="Arial" font-weight="bold" font-size="14.00" fill="white">src</text>
<text text-anchor="start" x="72" y="-2018.8" font-family="Arial" font-size="14.00" fill="white">: torch.nn.modules.activation.ReLU</text>
</g>
<!-- bn1&#45;&gt;relu -->
<g id="edge3" class="edge">
<title>bn1&#45;&gt;relu</title>
<path fill="none" stroke="black" stroke-width="2" d="M167,-2161.56C167,-2141.22 167,-2118.16 167,-2098.23"/>
<polygon fill="black" stroke="black" stroke-width="2" points="170.5,-2098.12 167,-2088.12 163.5,-2098.12 170.5,-2098.12"/>
<text text-anchor="start" x="169" y="-2131.8" font-family="Arial" font-weight="bold" font-size="14.00">shape:</text>
<text text-anchor="start" x="217" y="-2130.8" font-family="Arial" font-size="14.00">(1, 64, 112, 112)</text>
<text text-anchor="start" x="169" y="-2112.8" font-family="Arial" font-weight="bold" font-size="14.00">dtype:</text>
<text text-anchor="start" x="217" y="-2111.8" font-family="Arial" font-size="14.00">torch.float32</text>
</g>
<!-- maxpool -->
<g id="node13" class="node">
<title>maxpool</title>
<path fill="#455392" stroke="#455392" d="M295.5,-1934C295.5,-1934 38.5,-1934 38.5,-1934 32.5,-1934 26.5,-1928 26.5,-1922 26.5,-1922 26.5,-1866 26.5,-1866 26.5,-1860 32.5,-1854 38.5,-1854 38.5,-1854 295.5,-1854 295.5,-1854 301.5,-1854 307.5,-1860 307.5,-1866 307.5,-1866 307.5,-1922 307.5,-1922 307.5,-1928 301.5,-1934 295.5,-1934"/>
<text text-anchor="start" x="102.5" y="-1908.8" font-family="Arial" font-weight="bold" font-size="24.00" fill="white">MaxPool2d</text>
<text text-anchor="start" x="141" y="-1892.8" font-family="Arial" font-style="italic" font-size="14.00" fill="white">maxpool</text>
<text text-anchor="start" x="40.5" y="-1864.8" font-family="Arial" font-weight="bold" font-size="14.00" fill="white">src</text>
<text text-anchor="start" x="61.5" y="-1864.8" font-family="Arial" font-size="14.00" fill="white">: torch.nn.modules.pooling.MaxPool2d</text>
</g>
<!-- relu&#45;&gt;maxpool -->
<g id="edge4" class="edge">
<title>relu&#45;&gt;maxpool</title>
<path fill="none" stroke="black" stroke-width="2" d="M167,-2007.86C167,-1988.44 167,-1964.79 167,-1944.17"/>
<polygon fill="black" stroke="black" stroke-width="2" points="170.5,-1944.01 167,-1934.01 163.5,-1944.01 170.5,-1944.01"/>
<text text-anchor="start" x="169" y="-1977.8" font-family="Arial" font-weight="bold" font-size="14.00">shape:</text>
<text text-anchor="start" x="217" y="-1976.8" font-family="Arial" font-size="14.00">(1, 64, 112, 112)</text>
<text text-anchor="start" x="169" y="-1958.8" font-family="Arial" font-weight="bold" font-size="14.00">dtype:</text>
<text text-anchor="start" x="217" y="-1957.8" font-family="Arial" font-size="14.00">torch.float32</text>
</g>
<!-- maxpool&#45;&gt;layer1_0 -->
<g id="edge5" class="edge">
<title>maxpool&#45;&gt;layer1_0</title>
<path fill="none" stroke="black" stroke-width="2" d="M167,-1853.77C167,-1827.01 167,-1791.61 167,-1764.24"/>
<polygon fill="black" stroke="black" stroke-width="2" points="170.5,-1764.17 167,-1754.17 163.5,-1764.17 170.5,-1764.17"/>
<text text-anchor="start" x="169" y="-1823.8" font-family="Arial" font-weight="bold" font-size="14.00">shape:</text>
<text text-anchor="start" x="217" y="-1822.8" font-family="Arial" font-size="14.00">(1, 64, 56, 56)</text>
<text text-anchor="start" x="169" y="-1804.8" font-family="Arial" font-weight="bold" font-size="14.00">dtype:</text>
<text text-anchor="start" x="217" y="-1803.8" font-family="Arial" font-size="14.00">torch.float32</text>
</g>
<!-- flatten -->
<g id="node15" class="node">
<title>flatten</title>
<path fill="#b16342" stroke="#b16342" d="M217,-402C217,-402 113,-402 113,-402 107,-402 101,-396 101,-390 101,-390 101,-320 101,-320 101,-314 107,-308 113,-308 113,-308 217,-308 217,-308 223,-308 229,-314 229,-320 229,-320 229,-390 229,-390 229,-396 223,-402 217,-402"/>
<text text-anchor="start" x="128" y="-376.8" font-family="Arial" font-weight="bold" font-size="24.00" fill="white">flatten</text>
<text text-anchor="start" x="146.5" y="-360.8" font-family="Arial" font-style="italic" font-size="14.00" fill="white">flatten</text>
<text text-anchor="start" x="142.5" y="-346.8" font-family="Arial" font-weight="bold" font-size="14.00" fill="white">args</text>
<text text-anchor="start" x="171.5" y="-346.8" font-family="Arial" font-size="14.00" fill="white">: 1</text>
<text text-anchor="start" x="115" y="-318.8" font-family="Arial" font-weight="bold" font-size="14.00" fill="white">src</text>
<text text-anchor="start" x="136" y="-318.8" font-family="Arial" font-size="14.00" fill="white">: torch.flatten</text>
</g>
<!-- avgpool&#45;&gt;flatten -->
<g id="edge6" class="edge">
<title>avgpool&#45;&gt;flatten</title>
<path fill="none" stroke="black" stroke-width="2" d="M165,-475.7C165,-456.57 165,-433.23 165,-412.26"/>
<polygon fill="black" stroke="black" stroke-width="2" points="168.5,-412.19 165,-402.19 161.5,-412.19 168.5,-412.19"/>
<text text-anchor="start" x="167" y="-445.8" font-family="Arial" font-weight="bold" font-size="14.00">shape:</text>
<text text-anchor="start" x="215" y="-444.8" font-family="Arial" font-size="14.00">(1, 512, 1, 1)</text>
<text text-anchor="start" x="167" y="-426.8" font-family="Arial" font-weight="bold" font-size="14.00">dtype:</text>
<text text-anchor="start" x="215" y="-425.8" font-family="Arial" font-size="14.00">torch.float32</text>
</g>
<!-- fc -->
<g id="node16" class="node">
<title>fc</title>
<path fill="#3a376c" stroke="#3a376c" d="M272.5,-234C272.5,-234 57.5,-234 57.5,-234 51.5,-234 45.5,-228 45.5,-222 45.5,-222 45.5,-138 45.5,-138 45.5,-132 51.5,-126 57.5,-126 57.5,-126 272.5,-126 272.5,-126 278.5,-126 284.5,-132 284.5,-138 284.5,-138 284.5,-222 284.5,-222 284.5,-228 278.5,-234 272.5,-234"/>
<text text-anchor="start" x="128.5" y="-208.8" font-family="Arial" font-weight="bold" font-size="24.00" fill="white">Linear</text>
<text text-anchor="start" x="159.5" y="-192.8" font-family="Arial" font-style="italic" font-size="14.00" fill="white">fc</text>
<text text-anchor="start" x="85.5" y="-164.8" font-family="Arial" font-weight="bold" font-size="14.00" fill="white">params</text>
<text text-anchor="start" x="134.5" y="-164.8" font-family="Arial" font-size="14.00" fill="white">: 513.00K (4.39%)</text>
<text text-anchor="start" x="59.5" y="-136.8" font-family="Arial" font-weight="bold" font-size="14.00" fill="white">src</text>
<text text-anchor="start" x="80.5" y="-136.8" font-family="Arial" font-size="14.00" fill="white">: torch.nn.modules.linear.Linear</text>
</g>
<!-- flatten&#45;&gt;fc -->
<g id="edge7" class="edge">
<title>flatten&#45;&gt;fc</title>
<path fill="none" stroke="black" stroke-width="2" d="M165,-307.64C165,-288.2 165,-265.29 165,-244.33"/>
<polygon fill="black" stroke="black" stroke-width="2" points="168.5,-244.23 165,-234.23 161.5,-244.23 168.5,-244.23"/>
<text text-anchor="start" x="167" y="-277.8" font-family="Arial" font-weight="bold" font-size="14.00">shape:</text>
<text text-anchor="start" x="215" y="-276.8" font-family="Arial" font-size="14.00">(1, 512)</text>
<text text-anchor="start" x="167" y="-258.8" font-family="Arial" font-weight="bold" font-size="14.00">dtype:</text>
<text text-anchor="start" x="215" y="-257.8" font-family="Arial" font-size="14.00">torch.float32</text>
</g>
<!-- output -->
<g id="node17" class="node">
<title>output</title>
<path fill="#000000" stroke="#000000" d="M207.5,-52C207.5,-52 122.5,-52 122.5,-52 116.5,-52 110.5,-46 110.5,-40 110.5,-40 110.5,-12 110.5,-12 110.5,-6 116.5,0 122.5,0 122.5,0 207.5,0 207.5,0 213.5,0 219.5,-6 219.5,-12 219.5,-12 219.5,-40 219.5,-40 219.5,-46 213.5,-52 207.5,-52"/>
<text text-anchor="start" x="124.5" y="-26.8" font-family="Arial" font-weight="bold" font-size="24.00" fill="white">Output</text>
<text text-anchor="start" x="146" y="-10.8" font-family="Arial" font-style="italic" font-size="14.00" fill="white">output</text>
</g>
<!-- fc&#45;&gt;output -->
<g id="edge8" class="edge">
<title>fc&#45;&gt;output</title>
<path fill="none" stroke="black" stroke-width="2" d="M165,-125.84C165,-104.84 165,-81.29 165,-62.44"/>
<polygon fill="black" stroke="black" stroke-width="2" points="168.5,-62.22 165,-52.22 161.5,-62.22 168.5,-62.22"/>
<text text-anchor="start" x="167" y="-95.8" font-family="Arial" font-weight="bold" font-size="14.00">shape:</text>
<text text-anchor="start" x="215" y="-94.8" font-family="Arial" font-size="14.00">(1, 1000)</text>
<text text-anchor="start" x="167" y="-76.8" font-family="Arial" font-weight="bold" font-size="14.00">dtype:</text>
<text text-anchor="start" x="215" y="-75.8" font-family="Arial" font-size="14.00">torch.float32</text>
</g>
</g>
</svg>
