<?xml version="1.0" encoding="UTF-8" standalone="no"?>
<!DOCTYPE svg PUBLIC "-//W3C//DTD SVG 1.1//EN"
 "http://www.w3.org/Graphics/SVG/1.1/DTD/svg11.dtd">
<!-- Generated by graphviz version 2.50.0 (0)
 -->
<!-- Pages: 1 -->
<svg width="265pt" height="1264pt"
 viewBox="0.00 0.00 265.00 1264.00" xmlns="http://www.w3.org/2000/svg" xmlns:xlink="http://www.w3.org/1999/xlink">
<g id="graph0" class="graph" transform="scale(1 1) rotate(0) translate(4 1260)">
<polygon fill="white" stroke="transparent" points="-4,4 -4,-1260 261,-1260 261,4 -4,4"/>
<!-- x -->
<g id="node1" class="node">
<title>x</title>
<path fill="#000000" stroke="#000000" d="M161,-1256C161,-1256 96,-1256 96,-1256 90,-1256 84,-1250 84,-1244 84,-1244 84,-1228 84,-1228 84,-1222 90,-1216 96,-1216 96,-1216 161,-1216 161,-1216 167,-1216 173,-1222 173,-1228 173,-1228 173,-1244 173,-1244 173,-1250 167,-1256 161,-1256"/>
<text text-anchor="start" x="98" y="-1230.8" font-family="Arial" font-weight="bold" font-size="24.00" fill="white">Input</text>
</g>
<!-- conv1 -->
<g id="node2" class="node">
<title>conv1</title>
<path fill="#444380" stroke="#444380" d="M175.5,-1180C175.5,-1180 81.5,-1180 81.5,-1180 75.5,-1180 69.5,-1174 69.5,-1168 69.5,-1168 69.5,-1152 69.5,-1152 69.5,-1146 75.5,-1140 81.5,-1140 81.5,-1140 175.5,-1140 175.5,-1140 181.5,-1140 187.5,-1146 187.5,-1152 187.5,-1152 187.5,-1168 187.5,-1168 187.5,-1174 181.5,-1180 175.5,-1180"/>
<text text-anchor="start" x="83.5" y="-1154.8" font-family="Arial" font-weight="bold" font-size="24.00" fill="white">Conv2d</text>
</g>
<!-- x&#45;&gt;conv1 -->
<g id="edge1" class="edge">
<title>x&#45;&gt;conv1</title>
<path fill="none" stroke="black" stroke-width="2" d="M128.5,-1215.94C128.5,-1208.15 128.5,-1198.95 128.5,-1190.34"/>
<polygon fill="black" stroke="black" stroke-width="2" points="132,-1190.25 128.5,-1180.25 125,-1190.25 132,-1190.25"/>
</g>
<!-- bn1 -->
<g id="node3" class="node">
<title>bn1</title>
<path fill="#52406b" stroke="#52406b" d="M210,-1104C210,-1104 47,-1104 47,-1104 41,-1104 35,-1098 35,-1092 35,-1092 35,-1076 35,-1076 35,-1070 41,-1064 47,-1064 47,-1064 210,-1064 210,-1064 216,-1064 222,-1070 222,-1076 222,-1076 222,-1092 222,-1092 222,-1098 216,-1104 210,-1104"/>
<text text-anchor="start" x="49" y="-1078.8" font-family="Arial" font-weight="bold" font-size="24.00" fill="white">BatchNorm2d</text>
</g>
<!-- conv1&#45;&gt;bn1 -->
<g id="edge2" class="edge">
<title>conv1&#45;&gt;bn1</title>
<path fill="none" stroke="black" stroke-width="2" d="M128.5,-1139.94C128.5,-1132.15 128.5,-1122.95 128.5,-1114.34"/>
<polygon fill="black" stroke="black" stroke-width="2" points="132,-1114.25 128.5,-1104.25 125,-1114.25 132,-1114.25"/>
</g>
<!-- relu -->
<g id="node4" class="node">
<title>relu</title>
<path fill="#555580" stroke="#555580" d="M162.5,-1028C162.5,-1028 94.5,-1028 94.5,-1028 88.5,-1028 82.5,-1022 82.5,-1016 82.5,-1016 82.5,-1000 82.5,-1000 82.5,-994 88.5,-988 94.5,-988 94.5,-988 162.5,-988 162.5,-988 168.5,-988 174.5,-994 174.5,-1000 174.5,-1000 174.5,-1016 174.5,-1016 174.5,-1022 168.5,-1028 162.5,-1028"/>
<text text-anchor="start" x="96.5" y="-1002.8" font-family="Arial" font-weight="bold" font-size="24.00" fill="white">ReLU</text>
</g>
<!-- bn1&#45;&gt;relu -->
<g id="edge3" class="edge">
<title>bn1&#45;&gt;relu</title>
<path fill="none" stroke="black" stroke-width="2" d="M128.5,-1063.94C128.5,-1056.15 128.5,-1046.95 128.5,-1038.34"/>
<polygon fill="black" stroke="black" stroke-width="2" points="132,-1038.25 128.5,-1028.25 125,-1038.25 132,-1038.25"/>
</g>
<!-- maxpool -->
<g id="node5" class="node">
<title>maxpool</title>
<path fill="#455392" stroke="#455392" d="M195,-952C195,-952 62,-952 62,-952 56,-952 50,-946 50,-940 50,-940 50,-924 50,-924 50,-918 56,-912 62,-912 62,-912 195,-912 195,-912 201,-912 207,-918 207,-924 207,-924 207,-940 207,-940 207,-946 201,-952 195,-952"/>
<text text-anchor="start" x="64" y="-926.8" font-family="Arial" font-weight="bold" font-size="24.00" fill="white">MaxPool2d</text>
</g>
<!-- relu&#45;&gt;maxpool -->
<g id="edge4" class="edge">
<title>relu&#45;&gt;maxpool</title>
<path fill="none" stroke="black" stroke-width="2" d="M128.5,-987.94C128.5,-980.15 128.5,-970.95 128.5,-962.34"/>
<polygon fill="black" stroke="black" stroke-width="2" points="132,-962.25 128.5,-952.25 125,-962.25 132,-962.25"/>
</g>
<!-- layer1_0 -->
<g id="node6" class="node">
<title>layer1_0</title>
<path fill="#447eba" stroke="#447eba" d="M176,-876C176,-876 81,-876 81,-876 75,-876 69,-870 69,-864 69,-864 69,-848 69,-848 69,-842 75,-836 81,-836 81,-836 176,-836 176,-836 182,-836 188,-842 188,-848 188,-848 188,-864 188,-864 188,-870 182,-876 176,-876"/>
<text text-anchor="start" x="83" y="-850.8" font-family="Arial" font-weight="bold" font-size="24.00" fill="white">layer1.0</text>
</g>
<!-- maxpool&#45;&gt;layer1_0 -->
<g id="edge5" class="edge">
<title>maxpool&#45;&gt;layer1_0</title>
<path fill="none" stroke="black" stroke-width="2" d="M128.5,-911.94C128.5,-904.15 128.5,-894.95 128.5,-886.34"/>
<polygon fill="black" stroke="black" stroke-width="2" points="132,-886.25 128.5,-876.25 125,-886.25 132,-886.25"/>
</g>
<!-- layer1_1 -->
<g id="node13" class="node">
<title>layer1_1</title>
<path fill="#447eba" stroke="#447eba" d="M176,-800C176,-800 81,-800 81,-800 75,-800 69,-794 69,-788 69,-788 69,-772 69,-772 69,-766 75,-760 81,-760 81,-760 176,-760 176,-760 182,-760 188,-766 188,-772 188,-772 188,-788 188,-788 188,-794 182,-800 176,-800"/>
<text text-anchor="start" x="83" y="-774.8" font-family="Arial" font-weight="bold" font-size="24.00" fill="white">layer1.1</text>
</g>
<!-- layer1_0&#45;&gt;layer1_1 -->
<g id="edge10" class="edge">
<title>layer1_0&#45;&gt;layer1_1</title>
<path fill="none" stroke="black" stroke-width="2" d="M128.5,-835.94C128.5,-828.15 128.5,-818.95 128.5,-810.34"/>
<polygon fill="black" stroke="black" stroke-width="2" points="132,-810.25 128.5,-800.25 125,-810.25 132,-810.25"/>
</g>
<!-- avgpool -->
<g id="node7" class="node">
<title>avgpool</title>
<path fill="#4a4e8f" stroke="#4a4e8f" d="M245,-268C245,-268 12,-268 12,-268 6,-268 0,-262 0,-256 0,-256 0,-240 0,-240 0,-234 6,-228 12,-228 12,-228 245,-228 245,-228 251,-228 257,-234 257,-240 257,-240 257,-256 257,-256 257,-262 251,-268 245,-268"/>
<text text-anchor="start" x="14" y="-242.8" font-family="Arial" font-weight="bold" font-size="24.00" fill="white">AdaptiveAvgPool2d</text>
</g>
<!-- flatten -->
<g id="node8" class="node">
<title>flatten</title>
<path fill="#b16342" stroke="#b16342" d="M167.5,-192C167.5,-192 89.5,-192 89.5,-192 83.5,-192 77.5,-186 77.5,-180 77.5,-180 77.5,-164 77.5,-164 77.5,-158 83.5,-152 89.5,-152 89.5,-152 167.5,-152 167.5,-152 173.5,-152 179.5,-158 179.5,-164 179.5,-164 179.5,-180 179.5,-180 179.5,-186 173.5,-192 167.5,-192"/>
<text text-anchor="start" x="91.5" y="-166.8" font-family="Arial" font-weight="bold" font-size="24.00" fill="white">flatten</text>
</g>
<!-- avgpool&#45;&gt;flatten -->
<g id="edge6" class="edge">
<title>avgpool&#45;&gt;flatten</title>
<path fill="none" stroke="black" stroke-width="2" d="M128.5,-227.94C128.5,-220.15 128.5,-210.95 128.5,-202.34"/>
<polygon fill="black" stroke="black" stroke-width="2" points="132,-202.25 128.5,-192.25 125,-202.25 132,-202.25"/>
</g>
<!-- fc -->
<g id="node9" class="node">
<title>fc</title>
<path fill="#3a376c" stroke="#3a376c" d="M167,-116C167,-116 90,-116 90,-116 84,-116 78,-110 78,-104 78,-104 78,-88 78,-88 78,-82 84,-76 90,-76 90,-76 167,-76 167,-76 173,-76 179,-82 179,-88 179,-88 179,-104 179,-104 179,-110 173,-116 167,-116"/>
<text text-anchor="start" x="92" y="-90.8" font-family="Arial" font-weight="bold" font-size="24.00" fill="white">Linear</text>
</g>
<!-- flatten&#45;&gt;fc -->
<g id="edge7" class="edge">
<title>flatten&#45;&gt;fc</title>
<path fill="none" stroke="black" stroke-width="2" d="M128.5,-151.94C128.5,-144.15 128.5,-134.95 128.5,-126.34"/>
<polygon fill="black" stroke="black" stroke-width="2" points="132,-126.25 128.5,-116.25 125,-126.25 132,-126.25"/>
</g>
<!-- output -->
<g id="node10" class="node">
<title>output</title>
<path fill="#000000" stroke="#000000" d="M171,-40C171,-40 86,-40 86,-40 80,-40 74,-34 74,-28 74,-28 74,-12 74,-12 74,-6 80,0 86,0 86,0 171,0 171,0 177,0 183,-6 183,-12 183,-12 183,-28 183,-28 183,-34 177,-40 171,-40"/>
<text text-anchor="start" x="88" y="-14.8" font-family="Arial" font-weight="bold" font-size="24.00" fill="white">Output</text>
</g>
<!-- fc&#45;&gt;output -->
<g id="edge8" class="edge">
<title>fc&#45;&gt;output</title>
<path fill="none" stroke="black" stroke-width="2" d="M128.5,-75.94C128.5,-68.15 128.5,-58.95 128.5,-50.34"/>
<polygon fill="black" stroke="black" stroke-width="2" points="132,-50.25 128.5,-40.25 125,-50.25 132,-50.25"/>
</g>
<!-- layer3_1 -->
<g id="node11" class="node">
<title>layer3_1</title>
<path fill="#842c5d" stroke="#842c5d" d="M176,-496C176,-496 81,-496 81,-496 75,-496 69,-490 69,-484 69,-484 69,-468 69,-468 69,-462 75,-456 81,-456 81,-456 176,-456 176,-456 182,-456 188,-462 188,-468 188,-468 188,-484 188,-484 188,-490 182,-496 176,-496"/>
<text text-anchor="start" x="83" y="-470.8" font-family="Arial" font-weight="bold" font-size="24.00" fill="white">layer3.1</text>
</g>
<!-- layer4_0 -->
<g id="node12" class="node">
<title>layer4_0</title>
<path fill="#58c494" stroke="#58c494" d="M176,-420C176,-420 81,-420 81,-420 75,-420 69,-414 69,-408 69,-408 69,-392 69,-392 69,-386 75,-380 81,-380 81,-380 176,-380 176,-380 182,-380 188,-386 188,-392 188,-392 188,-408 188,-408 188,-414 182,-420 176,-420"/>
<text text-anchor="start" x="83" y="-394.8" font-family="Arial" font-weight="bold" font-size="24.00">layer4.0</text>
</g>
<!-- layer3_1&#45;&gt;layer4_0 -->
<g id="edge9" class="edge">
<title>layer3_1&#45;&gt;layer4_0</title>
<path fill="none" stroke="black" stroke-width="2" d="M128.5,-455.94C128.5,-448.15 128.5,-438.95 128.5,-430.34"/>
<polygon fill="black" stroke="black" stroke-width="2" points="132,-430.25 128.5,-420.25 125,-430.25 132,-430.25"/>
</g>
<!-- layer4_1 -->
<g id="node14" class="node">
<title>layer4_1</title>
<path fill="#58c494" stroke="#58c494" d="M176,-344C176,-344 81,-344 81,-344 75,-344 69,-338 69,-332 69,-332 69,-316 69,-316 69,-310 75,-304 81,-304 81,-304 176,-304 176,-304 182,-304 188,-310 188,-316 188,-316 188,-332 188,-332 188,-338 182,-344 176,-344"/>
<text text-anchor="start" x="83" y="-318.8" font-family="Arial" font-weight="bold" font-size="24.00">layer4.1</text>
</g>
<!-- layer4_0&#45;&gt;layer4_1 -->
<g id="edge12" class="edge">
<title>layer4_0&#45;&gt;layer4_1</title>
<path fill="none" stroke="black" stroke-width="2" d="M128.5,-379.94C128.5,-372.15 128.5,-362.95 128.5,-354.34"/>
<polygon fill="black" stroke="black" stroke-width="2" points="132,-354.25 128.5,-344.25 125,-354.25 132,-354.25"/>
</g>
<!-- layer2_0 -->
<g id="node17" class="node">
<title>layer2_0</title>
<path fill="#764bc9" stroke="#764bc9" d="M176,-724C176,-724 81,-724 81,-724 75,-724 69,-718 69,-712 69,-712 69,-696 69,-696 69,-690 75,-684 81,-684 81,-684 176,-684 176,-684 182,-684 188,-690 188,-696 188,-696 188,-712 188,-712 188,-718 182,-724 176,-724"/>
<text text-anchor="start" x="83" y="-698.8" font-family="Arial" font-weight="bold" font-size="24.00" fill="white">layer2.0</text>
</g>
<!-- layer1_1&#45;&gt;layer2_0 -->
<g id="edge15" class="edge">
<title>layer1_1&#45;&gt;layer2_0</title>
<path fill="none" stroke="black" stroke-width="2" d="M128.5,-759.94C128.5,-752.15 128.5,-742.95 128.5,-734.34"/>
<polygon fill="black" stroke="black" stroke-width="2" points="132,-734.25 128.5,-724.25 125,-734.25 132,-734.25"/>
</g>
<!-- layer4_1&#45;&gt;avgpool -->
<g id="edge11" class="edge">
<title>layer4_1&#45;&gt;avgpool</title>
<path fill="none" stroke="black" stroke-width="2" d="M128.5,-303.94C128.5,-296.15 128.5,-286.95 128.5,-278.34"/>
<polygon fill="black" stroke="black" stroke-width="2" points="132,-278.25 128.5,-268.25 125,-278.25 132,-278.25"/>
</g>
<!-- layer3_0 -->
<g id="node15" class="node">
<title>layer3_0</title>
<path fill="#842c5d" stroke="#842c5d" d="M176,-572C176,-572 81,-572 81,-572 75,-572 69,-566 69,-560 69,-560 69,-544 69,-544 69,-538 75,-532 81,-532 81,-532 176,-532 176,-532 182,-532 188,-538 188,-544 188,-544 188,-560 188,-560 188,-566 182,-572 176,-572"/>
<text text-anchor="start" x="83" y="-546.8" font-family="Arial" font-weight="bold" font-size="24.00" fill="white">layer3.0</text>
</g>
<!-- layer3_0&#45;&gt;layer3_1 -->
<g id="edge13" class="edge">
<title>layer3_0&#45;&gt;layer3_1</title>
<path fill="none" stroke="black" stroke-width="2" d="M128.5,-531.94C128.5,-524.15 128.5,-514.95 128.5,-506.34"/>
<polygon fill="black" stroke="black" stroke-width="2" points="132,-506.25 128.5,-496.25 125,-506.25 132,-506.25"/>
</g>
<!-- layer2_1 -->
<g id="node16" class="node">
<title>layer2_1</title>
<path fill="#764bc9" stroke="#764bc9" d="M176,-648C176,-648 81,-648 81,-648 75,-648 69,-642 69,-636 69,-636 69,-620 69,-620 69,-614 75,-608 81,-608 81,-608 176,-608 176,-608 182,-608 188,-614 188,-620 188,-620 188,-636 188,-636 188,-642 182,-648 176,-648"/>
<text text-anchor="start" x="83" y="-622.8" font-family="Arial" font-weight="bold" font-size="24.00" fill="white">layer2.1</text>
</g>
<!-- layer2_1&#45;&gt;layer3_0 -->
<g id="edge14" class="edge">
<title>layer2_1&#45;&gt;layer3_0</title>
<path fill="none" stroke="black" stroke-width="2" d="M128.5,-607.94C128.5,-600.15 128.5,-590.95 128.5,-582.34"/>
<polygon fill="black" stroke="black" stroke-width="2" points="132,-582.25 128.5,-572.25 125,-582.25 132,-582.25"/>
</g>
<!-- layer2_0&#45;&gt;layer2_1 -->
<g id="edge16" class="edge">
<title>layer2_0&#45;&gt;layer2_1</title>
<path fill="none" stroke="black" stroke-width="2" d="M128.5,-683.94C128.5,-676.15 128.5,-666.95 128.5,-658.34"/>
<polygon fill="black" stroke="black" stroke-width="2" points="132,-658.25 128.5,-648.25 125,-658.25 132,-658.25"/>
</g>
</g>
</svg>
